SplineFontDB: 3.2
FontName: Biohackers
FullName: Biohackers
FamilyName: Biohackers
Weight: Book
Copyright: Copyright (c) 2022, zmr
Version: 001.000
ItalicAngle: 0
UnderlinePosition: -100
UnderlineWidth: 50
Ascent: 800
Descent: 200
InvalidEm: 0
sfntRevision: 0x00010000
LayerCount: 2
Layer: 0 1 "Back" 1
Layer: 1 1 "Fore" 0
XUID: [1021 410 -877779780 13252281]
StyleMap: 0x0040
FSType: 0
OS2Version: 4
OS2_WeightWidthSlopeOnly: 0
OS2_UseTypoMetrics: 1
CreationTime: 1664552904
ModificationTime: 1664616381
PfmFamily: 17
TTFWeight: 400
TTFWidth: 5
LineGap: 90
VLineGap: 0
Panose: 2 0 5 3 0 0 0 0 0 0
OS2TypoAscent: 800
OS2TypoAOffset: 0
OS2TypoDescent: -200
OS2TypoDOffset: 0
OS2TypoLinegap: 90
OS2WinAscent: 679
OS2WinAOffset: 0
OS2WinDescent: 111
OS2WinDOffset: 0
HheadAscent: 679
HheadAOffset: 0
HheadDescent: -111
HheadDOffset: 0
OS2SubXSize: 650
OS2SubYSize: 700
OS2SubXOff: 0
OS2SubYOff: 140
OS2SupXSize: 650
OS2SupYSize: 700
OS2SupXOff: 0
OS2SupYOff: 480
OS2StrikeYSize: 49
OS2StrikeYPos: 258
OS2CapHeight: 492
OS2XHeight: 492
OS2Vendor: 'PfEd'
OS2CodePages: 00000001.00000000
OS2UnicodeRanges: 00000001.00000000.00000000.00000000
MarkAttachClasses: 1
DEI: 91125
ShortTable: cvt  2
  33
  633
EndShort
ShortTable: maxp 16
  1
  0
  61
  283
  3
  0
  0
  2
  0
  1
  1
  0
  64
  46
  0
  0
EndShort
LangName: 1033 "" "" "Regular" "FontForge 2.0 : Biohackers : 30-9-2022" "" "Version 001.000"
GaspTable: 1 65535 2 0
Encoding: UnicodeBmp
Compacted: 1
UnicodeInterp: none
NameList: AGL For New Fonts
DisplaySize: -48
AntiAlias: 1
FitToEm: 0
WinInfo: 0 16 4
Grid
-1000 579.200012207 m 0
 2000 579.200012207 l 1024
  Named: "height"
-115 1300 m 0
 -115 -700 l 1024
EndSplineSet
BeginChars: 65539 61

StartChar: .notdef
Encoding: 65536 -1 0
Width: 364
GlyphClass: 1
Flags: W
LayerCount: 2
Fore
SplineSet
33 0 m 1,0,-1
 33 666 l 1,1,-1
 298 666 l 1,2,-1
 298 0 l 1,3,-1
 33 0 l 1,0,-1
66 33 m 1,4,-1
 265 33 l 1,5,-1
 265 633 l 1,6,-1
 66 633 l 1,7,-1
 66 33 l 1,4,-1
EndSplineSet
Validated: 1
EndChar

StartChar: A
Encoding: 65 65 3
Width: 500
GlyphClass: 1
Flags: W
LayerCount: 2
Fore
SplineSet
491.958984375 54.81640625 m 1,0,-1
 491.958984375 37.6513671875 l 1,1,2
 482.927734375 3 482.927734375 3 445.927734375 0 c 1,3,4
 405.927734375 2 405.927734375 2 401.962890625 30.453125 c 0,5,6
 399.927734375 44 399.927734375 44 398.716796875 47.064453125 c 0,7,8
 394.927734375 53 394.927734375 53 392.225585938 60.6298828125 c 0,9,10
 377.927734375 105 377.927734375 105 377.471679688 105.479492188 c 0,11,12
 375.927734375 105 375.927734375 105 368.915039062 106.310546875 c 0,13,14
 347.927734375 111 347.927734375 111 333.80078125 106.310546875 c 0,15,16
 328.927734375 105 328.927734375 105 324.94921875 105.203125 c 0,17,18
 312.927734375 104 312.927734375 104 307.245117188 105.203125 c 0,19,20
 302.927734375 106 302.927734375 106 298.6875 106.310546875 c 0,21,22
 287.927734375 108 287.927734375 108 281.57421875 106.310546875 c 0,23,24
 276.927734375 105 276.927734375 105 272.721679688 105.203125 c 0,25,26
 235.927734375 107 235.927734375 107 160.299804688 105.203125 c 0,27,28
 142.927734375 105 142.927734375 105 142.595703125 105.203125 c 0,29,30
 141.927734375 106 141.927734375 106 141.415039062 105.756835938 c 0,31,32
 132.927734375 104 132.927734375 104 123.7109375 105.756835938 c 1,33,34
 114.927734375 104 114.927734375 104 106.301757812 105.756835938 c 1,35,36
 97.927734375 80 97.927734375 80 74.7294921875 71.7041015625 c 0,37,38
 40.927734375 60 40.927734375 60 19.5517578125 84.7158203125 c 0,39,40
 8.0439453125 97.8671875 8.0439453125 97.8671875 8.0439453125 106.864257812 c 2,41,-1
 8.0439453125 125.135742188 l 2,42,43
 7.927734375 127 7.927734375 127 11.8798828125 135.65625 c 0,44,45
 16.927734375 145 16.927734375 145 17.78125 147.284179688 c 0,46,47
 17.927734375 148 17.927734375 148 26.04296875 168.877929688 c 0,48,49
 67.927734375 279 67.927734375 279 109.252929688 388.143554688 c 0,50,51
 128.927734375 439 128.927734375 439 145.142578125 473.763671875 c 0,52,53
 168.927734375 527 168.927734375 527 181.365234375 563.444335938 c 0,54,55
 185.927734375 579 185.927734375 579 194.209960938 579.200195312 c 0,56,57
 223.927734375 580 223.927734375 580 288.927734375 579.200195312 c 1,58,-1
 300.927734375 579.200195312 l 1,59,60
 371.927734375 379 371.927734375 379 384.190429688 346.901367188 c 0,61,62
 458.927734375 162 458.927734375 162 468.6484375 122.920898438 c 0,63,64
 469.927734375 118 469.927734375 118 471.008789062 114.0625 c 0,65,66
 481.927734375 85 481.927734375 85 491.958984375 54.81640625 c 1,0,-1
262.39453125 491.750976562 m 0,67,68
 258.102539062 504.708007812 258.102539062 504.708007812 253.247070312 517.56640625 c 1,69,70
 245.280273438 518.598632812 245.280273438 518.598632812 237.313476562 517.56640625 c 1,71,72
 203.885742188 429.075195312 203.885742188 429.075195312 170.922851562 341.508789062 c 1,73,74
 170.922851562 341.508789062 170.922851562 341.508789062 170.922851562 339.959960938 c 1,75,76
 242.334960938 339.641601562 242.334960938 339.641601562 314.326171875 339.443359375 c 0,77,78
 314.471679688 341.270507812 314.471679688 341.270507812 314.03125 343.057617188 c 0,79,80
 304.873046875 368.6796875 304.873046875 368.6796875 296.032226562 394.170898438 c 0,81,82
 294.1640625 397.270507812 294.1640625 397.270507812 293.671875 400.8828125 c 0,83,84
 279.708984375 443.203125 279.708984375 443.203125 264.754882812 485.0390625 c 0,85,86
 262.88671875 488.138671875 262.88671875 488.138671875 262.39453125 491.750976562 c 0,67,68
139.888671875 267.288085938 m 1,87,88
 133.805664062 228.329101562 133.805664062 228.329101562 128.0859375 189.18359375 c 1,89,90
 212.302734375 190.076171875 212.302734375 190.076171875 297.161132812 189.18359375 c 0,91,92
 301.466796875 190.241210938 301.466796875 190.241210938 305.717773438 191.624023438 c 0,93,94
 309.96875 190.241210938 309.96875 190.241210938 314.275390625 189.18359375 c 0,95,96
 323.282226562 193.920898438 323.282226562 193.920898438 332.274414062 189.18359375 c 1,97,98
 340.725585938 194.025390625 340.725585938 194.025390625 349.092773438 189.18359375 c 1,99,100
 346.318359375 212.219726562 346.318359375 212.219726562 343.19140625 237.999023438 c 0,101,102
 341.034179688 251.255859375 341.034179688 251.255859375 338.765625 264.237304688 c 1,103,104
 239.282226562 266.77734375 239.282226562 266.77734375 139.888671875 267.288085938 c 1,87,88
EndSplineSet
Validated: 524321
EndChar

StartChar: B
Encoding: 66 66 4
Width: 500
GlyphClass: 1
Flags: W
LayerCount: 2
Fore
SplineSet
183.1171875 0 m 2,0,1
 183.1171875 0 183.1171875 0 155.1171875 0 c 0,2,3
 98.1171875 1 98.1171875 1 40.1171875 6 c 1,4,5
 40.1171875 236 40.1171875 236 41.1171875 466 c 0,6,7
 43.1171875 469 43.1171875 469 44.1171875 472 c 0,8,9
 47.1171875 474 47.1171875 474 50.1171875 478 c 0,10,11
 77.1171875 499 77.1171875 499 108.1171875 484 c 0,12,13
 121.1171875 477 121.1171875 477 128.1171875 465 c 0,14,15
 129.1171875 462 129.1171875 462 129.1171875 459 c 0,16,17
 129.1171875 451 129.1171875 451 129.1171875 443 c 0,18,19
 128.1171875 390 128.1171875 390 128.1171875 338 c 1,20,21
 139.1171875 337 139.1171875 337 149.1171875 337 c 0,22,23
 179.1171875 336 179.1171875 336 208.1171875 337 c 0,24,25
 255.1171875 338 255.1171875 338 299.1171875 351 c 0,26,27
 320.1171875 358 320.1171875 358 336.1171875 370 c 0,28,29
 356.1171875 384 356.1171875 384 360.1171875 407 c 0,30,31
 366.1171875 438 366.1171875 438 345.1171875 464 c 0,32,33
 321.1171875 491 321.1171875 491 282.1171875 500 c 1,34,35
 241.1171875 504 241.1171875 504 237.1171875 540 c 1,36,37
 241.1171875 573 241.1171875 573 278.1171875 578 c 1,38,39
 299.1171875 575 299.1171875 575 320.1171875 571 c 0,40,41
 377.1171875 558 377.1171875 558 417.1171875 522 c 0,42,43
 463.1171875 476 463.1171875 476 456.1171875 415 c 0,44,45
 446.1171875 319 446.1171875 319 343.1171875 292 c 1,46,47
 379.1171875 284 379.1171875 284 409.1171875 263 c 0,48,49
 466.1171875 217 466.1171875 217 459.1171875 149 c 0,50,51
 452.1171875 89 452.1171875 89 402.1171875 49 c 1,52,53
 350.1171875 13 350.1171875 13 284.1171875 6 c 0,54,55
 234.1171875 0 234.1171875 0 183.1171875 0 c 2,0,1
160.1171875 249 m 0,56,57
 145.1171875 248 145.1171875 248 130.1171875 247 c 1,58,59
 130.1171875 162 130.1171875 162 129.1171875 78 c 1,60,61
 174.1171875 72 174.1171875 72 220.1171875 74 c 0,62,63
 254.1171875 75 254.1171875 75 286.1171875 83 c 0,64,65
 313.1171875 89 313.1171875 89 335.1171875 103 c 0,66,67
 360.1171875 121 360.1171875 121 364.1171875 150 c 0,68,69
 367.1171875 174 367.1171875 174 354.1171875 196 c 0,70,71
 333.1171875 224 333.1171875 224 296.1171875 235 c 0,72,73
 254.1171875 247 254.1171875 247 211.1171875 248 c 0,74,75
 185.1171875 249 185.1171875 249 160.1171875 249 c 0,56,57
EndSplineSet
Validated: 524321
EndChar

StartChar: C
Encoding: 67 67 5
Width: 500
GlyphClass: 1
Flags: W
LayerCount: 2
Fore
SplineSet
325.077148438 489.381835938 m 0,0,1
 317.53515625 489.9296875 317.53515625 489.9296875 309.676757812 489.9296875 c 0,2,3
 299.06640625 490.108398438 299.06640625 490.108398438 288.83984375 488.833984375 c 0,4,5
 252.08984375 484.881835938 252.08984375 484.881835938 217.573242188 472.666992188 c 0,6,7
 196.578125 463.34765625 196.578125 463.34765625 179.524414062 449.102539062 c 0,8,9
 162.685546875 434.374023438 162.685546875 434.374023438 148.419921875 417.590820312 c 0,10,11
 139.958984375 406.626953125 139.958984375 406.626953125 133.321289062 394.57421875 c 0,12,13
 111.834960938 350.04296875 111.834960938 350.04296875 108.559570312 301.411132812 c 0,14,15
 106.327148438 261.205078125 106.327148438 261.205078125 112.787109375 221.400390625 c 0,16,17
 123.712890625 174.70703125 123.712890625 174.70703125 159.291015625 140.29296875 c 0,18,19
 218.197265625 85.15234375 218.197265625 85.15234375 303.334960938 80.8330078125 c 1,20,21
 337.060546875 72.431640625 337.060546875 72.431640625 339.572265625 40.8271484375 c 0,22,23
 338.74609375 18.763671875 338.74609375 18.763671875 319.038085938 6.3017578125 c 0,24,25
 313.848632812 3.671875 313.848632812 3.671875 308.166992188 1.91796875 c 0,26,27
 294.39453125 0.4375 294.39453125 0.4375 280.384765625 0 c 0,28,29
 254.11328125 2.544921875 254.11328125 2.544921875 228.444335938 7.671875 c 0,30,31
 226.32421875 8.939453125 226.32421875 8.939453125 223.61328125 8.7685546875 c 0,32,33
 155.541992188 24.025390625 155.541992188 24.025390625 103.42578125 66.0361328125 c 0,34,35
 85.0732421875 82.271484375 85.0732421875 82.271484375 69.90625 100.8359375 c 0,36,37
 27.45703125 158.27734375 27.45703125 158.27734375 18.5693359375 227.428710938 c 0,38,39
 12.970703125 270.647460938 12.970703125 270.647460938 16.1533203125 314.015625 c 0,40,41
 18.7314453125 336.565429688 18.7314453125 336.565429688 22.193359375 358.953125 c 0,42,43
 26.9052734375 379.619140625 26.9052734375 379.619140625 32.4609375 400.0546875 c 0,44,45
 71.392578125 513.1953125 71.392578125 513.1953125 193.415039062 554.870117188 c 0,46,47
 272.962890625 578.92578125 272.962890625 578.92578125 355.275390625 564.734375 c 0,48,49
 415.014648438 554.940429688 415.014648438 554.940429688 465.1953125 524.455078125 c 0,50,51
 472.40234375 519.423828125 472.40234375 519.423828125 478.180664062 512.946289062 c 0,52,53
 491.510742188 492.826171875 491.510742188 492.826171875 478.784179688 472.393554688 c 0,54,55
 469.87109375 460.739257812 469.87109375 460.739257812 454.32421875 458.418945312 c 0,56,57
 438.5390625 454.176757812 438.5390625 454.176757812 425.333984375 462.802734375 c 0,58,59
 404.806640625 471.430664062 404.806640625 471.430664062 383.661132812 478.6953125 c 0,60,61
 366.073242188 483.466796875 366.073242188 483.466796875 348.028320312 486.916015625 c 0,62,63
 336.6484375 488.959960938 336.6484375 488.959960938 325.077148438 489.381835938 c 0,0,1
EndSplineSet
Validated: 524321
EndChar

StartChar: D
Encoding: 68 68 6
Width: 500
GlyphClass: 1
Flags: W
LayerCount: 2
Fore
SplineSet
147 0 m 2,0,1
 147 0 147 0 142 0 c 0,2,3
 97 0 97 0 53 12 c 1,4,5
 52 17 52 17 52 22 c 0,6,7
 52 23 52 23 52 25 c 128,-1,8
 52 27 52 27 52 28 c 0,9,10
 51 282 51 282 50 535 c 1,11,12
 73 541 73 541 95 546 c 0,13,14
 108 548 108 548 120 549 c 0,15,16
 153 551 153 551 185 549 c 0,17,18
 223 546 223 546 259 537 c 0,19,20
 329 519 329 519 377 465 c 0,21,22
 447 383 447 383 450 273 c 1,23,24
 448 161 448 161 373 77 c 0,25,26
 324 26 324 26 254 11 c 0,27,28
 201 0 201 0 147 0 c 2,0,1
168 470 m 0,29,30
 147 467 147 467 127 460 c 1,31,32
 127 393 127 393 128 326 c 1,33,34
 136 328 136 328 144 326 c 0,35,36
 148 327 148 327 152 327 c 0,37,38
 180 327 180 327 207 327 c 0,39,40
 215 329 215 329 223 327 c 0,41,42
 227 328 227 328 231 328 c 0,43,44
 243 328 243 328 255 327 c 0,45,46
 283 319 283 319 286 289 c 1,47,48
 282 253 282 253 247 250 c 0,49,50
 235 250 235 250 223 250 c 0,51,52
 215 249 215 249 208 250 c 0,53,54
 200 248 200 248 192 250 c 0,55,56
 188 249 188 249 184 249 c 0,57,58
 156 250 156 250 128 249 c 1,59,60
 127 186 127 186 128 122 c 0,61,62
 128 104 128 104 129 86 c 1,63,64
 134 84 134 84 139 83 c 0,65,66
 177 79 177 79 215 83 c 0,67,68
 250 86 250 86 282 103 c 0,69,70
 320 127 320 127 343 166 c 0,71,72
 381 236 381 236 367 315 c 0,73,74
 355 378 355 378 310 423 c 0,75,76
 284 448 284 448 249 459 c 0,77,78
 209 470 209 470 168 470 c 0,29,30
EndSplineSet
Validated: 33
EndChar

StartChar: E
Encoding: 69 69 7
Width: 500
GlyphClass: 1
Flags: W
LayerCount: 2
Fore
SplineSet
90.7275390625 580.200195312 m 0,0,1
 249.727539062 579 249.727539062 579 408.727539062 579.200195312 c 1,2,3
 442.727539062 573 442.727539062 573 446.727539062 545.200195312 c 0,4,5
 450.727539062 520 450.727539062 520 424.727539062 507.200195312 c 0,6,7
 416.727539062 503 416.727539062 503 412.727539062 503.200195312 c 0,8,9
 402.727539062 504 402.727539062 504 391.727539062 504.200195312 c 0,10,11
 270.727539062 503 270.727539062 503 148.727539062 503.200195312 c 1,12,13
 148.727539062 457 148.727539062 457 148.749023438 434 c 1,14,15
 165.727539062 434 165.727539062 434 165.749023438 434 c 0,16,17
 166.727539062 434 166.727539062 434 175.749023438 434 c 0,18,19
 240.727539062 433 240.727539062 433 240.749023438 433 c 0,20,21
 250.727539062 433 250.727539062 433 260.727539062 433 c 0,22,23
 264.727539062 433 264.727539062 433 269.41796875 432.87109375 c 0,24,25
 283.727539062 433 283.727539062 433 297.727539062 433 c 0,26,27
 330.727539062 431 330.727539062 431 333.749023438 396 c 1,28,29
 330.021484375 358 330.021484375 358 287.749023438 358 c 0,30,31
 273.727539062 358 273.727539062 358 259.749023438 358 c 0,32,33
 240.727539062 358 240.727539062 358 240.727539062 358 c 128,-1,34
 240.727539062 358 240.727539062 358 222.727539062 358 c 0,35,36
 222.727539062 358 222.727539062 358 212.727539062 358 c 0,37,38
 189.727539062 358 189.727539062 358 166.749023438 358 c 0,39,40
 148.727539062 358 148.727539062 358 148.727539062 358 c 129,-1,41
 148.727539062 358 148.727539062 358 148.749023438 319 c 1,42,43
 148.727539062 319 148.727539062 319 389.749023438 319 c 0,44,45
 405.727539062 319 405.727539062 319 406.749023438 319 c 0,46,47
 444.727539062 313 444.727539062 313 447.749023438 280 c 1,48,49
 444.727539062 242 444.727539062 242 406.749023438 242 c 0,50,51
 394.727539062 242 394.727539062 242 394.749023438 242 c 0,52,53
 389.727539062 241 389.727539062 241 383.749023438 241 c 0,54,55
 265.727539062 240 265.727539062 240 148.749023438 240 c 1,56,57
 148.749023438 240 148.749023438 240 148.749023438 77 c 1,58,59
 284.727539062 77 284.727539062 77 421.749023438 76 c 1,60,61
 452.276367188 64.89453125 452.276367188 64.89453125 448.749023438 30 c 0,62,63
 446.727539062 9 446.727539062 9 417.749023438 1 c 0,64,65
 416.727539062 0 416.727539062 0 415.249023438 0 c 128,-1,66
 413.727539062 0 413.727539062 0 412.749023438 0 c 0,67,68
 251.727539062 -1 251.727539062 -1 89.7490234375 0 c 1,69,70
 61.7275390625 6 61.7275390625 6 51.7490234375 29 c 1,71,72
 51.7275390625 270 51.7275390625 270 51.7275390625 534.200195312 c 1,73,74
 47.7275390625 555 47.7275390625 555 62.7275390625 568.200195312 c 0,75,76
 77.7275390625 580 77.7275390625 580 90.7275390625 580.200195312 c 0,0,1
EndSplineSet
Validated: 524321
EndChar

StartChar: F
Encoding: 70 70 8
Width: 500
GlyphClass: 1
Flags: W
LayerCount: 2
Fore
SplineSet
144.455078125 0 m 1,0,1
 144.455078125 0 144.455078125 0 48.455078125 0 c 1,2,3
 50.49609375 342 50.49609375 342 50.49609375 539.200195312 c 0,4,5
 50.455078125 547.75 50.455078125 547.75 52.49609375 550.200195312 c 0,6,7
 68.49609375 586 68.49609375 586 105.49609375 578.200195312 c 0,8,9
 106.49609375 578 106.49609375 578 106.49609375 578.700195312 c 0,10,11
 106.49609375 579 106.49609375 579 107.49609375 579.200195312 c 0,12,13
 261.49609375 579 261.49609375 579 415.49609375 579.200195312 c 1,14,15
 431.49609375 573 431.49609375 573 433.49609375 571.200195312 c 0,16,17
 443.49609375 563 443.49609375 563 444.49609375 561.200195312 c 0,18,19
 461.49609375 535 461.49609375 535 437.49609375 515.200195312 c 0,20,21
 424.49609375 504 424.49609375 504 404.49609375 504.200195312 c 0,22,23
 361.49609375 503 361.49609375 503 147.49609375 503.200195312 c 1,24,-1
 144.455078125 441 l 1,25,26
 164.49609375 441 164.49609375 441 164.49609375 441 c 0,27,28
 183.49609375 441 183.49609375 441 183.49609375 441 c 0,29,30
 189.49609375 441 189.49609375 441 192.455078125 441 c 0,31,32
 212.49609375 441 212.49609375 441 212.455078125 441 c 0,33,34
 216.49609375 441 216.49609375 441 221.49609375 441 c 0,35,36
 255.49609375 441 255.49609375 441 289.455078125 441 c 0,37,38
 333.49609375 440 333.49609375 440 332.99609375 403 c 1,39,40
 332.49609375 363 332.49609375 363 289.455078125 363 c 0,41,42
 285.49609375 363 285.49609375 363 251.49609375 364 c 0,43,44
 246.49609375 364 246.49609375 364 241.455078125 364 c 0,45,46
 226.49609375 364 226.49609375 364 221.49609375 364 c 128,-1,47
 216.49609375 364 216.49609375 364 212.49609375 364 c 0,48,49
 212.49609375 364 212.49609375 364 202.455078125 364 c 0,50,51
 187.49609375 364 187.49609375 364 183.455078125 364 c 0,52,53
 164.49609375 364 164.49609375 364 144.455078125 364 c 1,54,55
 144.455078125 364 144.455078125 364 144.455078125 319 c 1,56,57
 310.49609375 321 310.49609375 321 330.455078125 319 c 0,58,59
 349.49609375 318 349.49609375 318 349.49609375 318 c 0,60,61
 384.49609375 308 384.49609375 308 387.49609375 281 c 1,62,63
 384.49609375 248 384.49609375 248 348.455078125 241 c 1,64,65
 246.49609375 241 246.49609375 241 144.455078125 241 c 1,66,67
 144.455078125 241 144.455078125 241 144.455078125 0 c 1,0,1
EndSplineSet
Validated: 524321
EndChar

StartChar: G
Encoding: 71 71 9
Width: 500
GlyphClass: 1
Flags: W
LayerCount: 2
Fore
SplineSet
351.484375 577 m 0,0,1
 355.484375 576 355.484375 576 359.484375 576 c 0,2,3
 427.484375 567 427.484375 567 484.484375 534 c 0,4,5
 494.484375 527 494.484375 527 500.484375 518 c 1,6,7
 500.484375 501 500.484375 501 500.484375 485 c 1,8,9
 481.484375 458 481.484375 458 447.484375 467 c 0,10,11
 421.484375 477 421.484375 477 393.484375 485 c 0,12,13
 370.484375 491 370.484375 491 345.484375 494 c 0,14,15
 323.484375 495 323.484375 495 301.484375 495 c 0,16,17
 294.484375 494 294.484375 494 287.484375 493 c 0,18,19
 280.484375 493 280.484375 493 274.484375 492 c 0,20,21
 272.484375 492 272.484375 492 270.484375 492 c 0,22,23
 235.484375 489 235.484375 489 219.484375 518 c 0,24,25
 209.484375 544 209.484375 544 229.484375 564 c 1,26,27
 243.484375 572 243.484375 572 259.484375 576 c 0,28,29
 269.484375 576 269.484375 576 279.484375 579 c 0,30,31
 315.484375 580 315.484375 580 351.484375 577 c 0,0,1
101.454101562 312 m 0,32,33
 100.454101562 302 100.454101562 302 100.454101562 292 c 0,34,35
 100.454101562 278 100.454101562 278 102.454101562 265 c 0,36,37
 106.454101562 197 106.454101562 197 156.454101562 148 c 0,38,39
 212.454101562 98 212.454101562 98 290.454101562 88 c 0,40,41
 295.454101562 86 295.454101562 86 302.454101562 86 c 0,42,43
 321.454101562 84 321.454101562 84 339.454101562 86 c 0,44,45
 372.454101562 89 372.454101562 89 403.454101562 99 c 1,46,47
 404.454101562 165 404.454101562 165 403.454101562 230 c 1,48,49
 357.454101562 231 357.454101562 231 312.454101562 231 c 0,50,51
 289.454101562 233 289.454101562 233 276.454101562 250 c 0,52,53
 272.454101562 256 272.454101562 256 271.454101562 263 c 0,54,55
 271.454101562 267 271.454101562 267 271.454101562 271 c 0,56,57
 272.454101562 290 272.454101562 290 289.454101562 300 c 0,58,59
 296.454101562 304 296.454101562 304 304.454101562 306 c 0,60,61
 390.454101562 307 390.454101562 307 475.454101562 306 c 0,62,63
 477.454101562 306 477.454101562 306 479.954101562 304 c 128,-1,64
 482.454101562 302 482.454101562 302 484.454101562 302 c 0,65,66
 489.454101562 297 489.454101562 297 490.454101562 290 c 0,67,68
 491.454101562 171 491.454101562 171 491.454101562 54 c 0,69,70
 490.454101562 49 490.454101562 49 490.454101562 42 c 1,71,72
 436.454101562 12 436.454101562 12 375.454101562 4 c 0,73,74
 370.454101562 4 370.454101562 4 367.454101562 3 c 0,75,76
 300.454101562 -4 300.454101562 -4 234.454101562 8 c 0,77,78
 155.454101562 24 155.454101562 24 93.4541015625 72 c 1,79,80
 41.4541015625 118 41.4541015625 118 18.4541015625 182 c 0,81,82
 -6.5458984375 257 -6.5458984375 257 1.4541015625 335 c 0,83,84
 4.4541015625 363 4.4541015625 363 10.4541015625 389 c 1,85,86
 18.4541015625 400 18.4541015625 400 27.4541015625 409 c 0,87,88
 51.4541015625 422 51.4541015625 422 78.4541015625 413 c 0,89,90
 109.454101562 398 109.454101562 398 107.454101562 365 c 0,91,92
 105.454101562 360 105.454101562 360 107.454101562 355 c 0,93,94
 102.454101562 334 102.454101562 334 101.454101562 312 c 0,32,33
EndSplineSet
Validated: 524321
EndChar

StartChar: H
Encoding: 72 72 10
Width: 500
GlyphClass: 1
Flags: W
LayerCount: 2
Fore
SplineSet
95.03125 0 m 1,0,1
 95.03125 -2 95.03125 -2 85.03125 0 c 0,2,3
 56.03125 4 56.03125 4 52.03125 32 c 1,4,5
 52.03125 32 52.03125 32 50.03125 32 c 1,6,7
 50.03125 496 50.03125 496 50.03125 541 c 0,8,9
 49.611328125 547.338867188 49.611328125 547.338867188 52.03125 555 c 0,10,11
 57.3935546875 572.969726562 57.3935546875 572.969726562 73.03125 577.400390625 c 0,12,13
 93.03125 583 93.03125 583 114.03125 573.400390625 c 0,14,15
 129.03125 566 129.03125 566 129.03125 538 c 0,16,17
 129.03125 420 129.03125 420 129.03125 303 c 1,18,19
 250.03125 302 250.03125 302 371.03125 302 c 1,20,21
 371.03125 426 371.03125 426 371.03125 549 c 0,22,23
 371.03125 563 371.03125 563 385.03125 572 c 0,24,25
 410.03125 588 410.03125 588 433.03125 574 c 0,26,27
 450.03125 564 450.03125 564 450.03125 546 c 0,28,29
 450.03125 39 450.03125 39 450.03125 39 c 129,-1,30
 450.03125 39 450.03125 39 449.03125 39 c 0,31,32
 448.03125 38 448.03125 38 448.03125 38 c 1,33,34
 447.03125 22 447.03125 22 440.03125 12.5 c 0,35,36
 432.03125 1 432.03125 1 414.03125 0 c 128,-1,37
 396.03125 -1 396.03125 -1 385.03125 8 c 0,38,39
 376.03125 16 376.03125 16 371.03125 34 c 1,40,41
 370.03125 136 370.03125 136 370.03125 237 c 1,42,43
 249.03125 238 249.03125 238 129.03125 238 c 1,44,-1
 129.03125 190 l 1,45,46
 208.03125 190 208.03125 190 286.03125 190 c 1,47,48
 312.03125 186 312.03125 186 315.03125 166 c 0,49,50
 319.03125 138 319.03125 138 286.03125 131 c 1,51,52
 208.03125 132 208.03125 132 129.03125 131 c 1,53,54
 131.03125 59 131.03125 59 129.03125 36 c 0,55,56
 127.03125 6 127.03125 6 95.03125 0 c 1,0,1
EndSplineSet
Validated: 524321
EndChar

StartChar: I
Encoding: 73 73 11
Width: 500
GlyphClass: 1
Flags: W
LayerCount: 2
Fore
SplineSet
263 0 m 1,0,1
 263 0 263 0 235 0 c 0,2,3
 231 0 231 0 221 4 c 0,4,5
 195 14 195 14 191 38 c 0,6,7
 189 53 189 53 189 67 c 0,8,9
 196 298 196 298 196 538.200195312 c 0,10,11
 196 546 196 546 201 554 c 0,12,13
 223 585 223 585 265 578 c 0,14,15
 303 572 303 572 311 543 c 1,16,17
 311 522 311 522 311 500 c 0,18,19
 311 495 311 495 311 489.200195312 c 0,20,21
 309 201 309 201 307 110 c 0,22,23
 306 73 306 73 307 37 c 1,24,25
 300 8 300 8 263 0 c 1,0,1
EndSplineSet
Validated: 524321
EndChar

StartChar: J
Encoding: 74 74 12
Width: 501
GlyphClass: 1
Flags: W
LayerCount: 2
Fore
SplineSet
417.12109375 518.200195312 m 0,0,1
 414.12109375 518 414.12109375 518 411.12109375 517.200195312 c 0,2,3
 410.12109375 517 410.12109375 517 409.12109375 517.200195312 c 2,4,5
 366.12109375 517 366.12109375 517 323.12109375 517.200195312 c 1,6,7
 323.12109375 505 323.12109375 505 323.12109375 503.200195312 c 2,8,9
 323.12109375 503.200195312 323.12109375 503.200195312 323.12109375 501.200195312 c 0,10,11
 321.12109375 318 321.12109375 318 322.12109375 313.200195312 c 0,12,13
 322.12109375 168 322.12109375 168 316.169921875 140 c 0,14,15
 315.12109375 135 315.12109375 135 315.169921875 130 c 0,16,17
 312.12109375 110 312.12109375 110 306.169921875 90 c 256,18,19
 298.12109375 64 298.12109375 64 290.169921875 52 c 0,20,21
 267.12109375 17 267.12109375 17 232.169921875 5 c 0,22,23
 218.12109375 0 218.12109375 0 208.169921875 0 c 2,24,25
 203.12109375 -1 203.12109375 -1 162.169921875 0 c 0,26,27
 157.12109375 0 157.12109375 0 141.169921875 5 c 0,28,29
 94.5625 18.6494140625 94.5625 18.6494140625 80.169921875 45 c 0,30,31
 47.12109375 111 47.12109375 111 49.169921875 137 c 0,32,33
 49.12109375 137 49.12109375 137 52.169921875 147 c 0,34,35
 56.12109375 159 56.12109375 159 63.169921875 165 c 0,36,37
 85.12109375 181 85.12109375 181 105.169921875 166 c 0,38,39
 122.12109375 153 122.12109375 153 121.169921875 133 c 0,40,41
 121.12109375 128 121.12109375 128 122.169921875 124 c 0,42,43
 127.2890625 96.791015625 127.2890625 96.791015625 131.169921875 94 c 0,44,45
 137.12109375 87 137.12109375 87 145.169921875 80 c 0,46,47
 159.646484375 63.44140625 159.646484375 63.44140625 188.169921875 67 c 0,48,49
 224.12109375 72 224.12109375 72 236.169921875 105 c 0,50,51
 245.12109375 132 245.12109375 132 245.169921875 149 c 0,52,53
 246.12109375 241 246.12109375 241 247.12109375 332.200195312 c 1,54,55
 181.12109375 332.200195312 181.12109375 332.200195312 181.12109375 332.200195312 c 0,56,57
 169.12109375 332 169.12109375 332 167.12109375 332.200195312 c 0,58,59
 149.12109375 332 149.12109375 332 142.12109375 336.200195312 c 0,60,61
 119.12109375 352 119.12109375 352 129.12109375 379.200195312 c 1,62,63
 135.12109375 399 135.12109375 399 165.12109375 398 c 0,64,65
 166.12109375 398 166.12109375 398 173.831054688 398.631835938 c 0,66,67
 180.12109375 399 180.12109375 399 207.12109375 399 c 0,68,69
 213.12109375 399 213.12109375 399 219.198242188 399.1015625 c 0,70,71
 223.12109375 399 223.12109375 399 229.12109375 399 c 0,72,73
 229.12109375 399 229.12109375 399 247.12109375 399.200195312 c 1,74,75
 247.12109375 458 247.12109375 458 247.12109375 517.200195312 c 1,76,77
 247.12109375 517.200195312 247.12109375 517.200195312 155.12109375 517.200195312 c 0,78,79
 143.171875 517.76953125 143.171875 517.76953125 139.12109375 520.200195312 c 0,80,81
 133.12109375 522 133.12109375 522 129.12109375 525.200195312 c 0,82,83
 116.12109375 535 116.12109375 535 117.12109375 548.200195312 c 0,84,85
 118.12109375 566 118.12109375 566 131.12109375 573.200195312 c 0,86,87
 138.12109375 577 138.12109375 577 139.12109375 578.200195312 c 0,88,89
 143.12109375 580 143.12109375 580 147.12109375 580.200195312 c 0,90,91
 151.12109375 580 151.12109375 580 158.62109375 580.200195312 c 0,92,93
 166.12109375 580 166.12109375 580 170.12109375 580.200195312 c 0,94,95
 212.12109375 579 212.12109375 579 427.12109375 579.200195312 c 0,96,97
 433.12109375 579 433.12109375 579 441.12109375 571.200195312 c 0,98,99
 446.12109375 565 446.12109375 565 447.12109375 564.200195312 c 0,100,101
 460.12109375 535 460.12109375 535 438.12109375 523.200195312 c 0,102,103
 434.12109375 521 434.12109375 521 429.12109375 520.200195312 c 0,104,105
 423.12109375 518 423.12109375 518 417.12109375 518.200195312 c 0,0,1
EndSplineSet
Validated: 524321
EndChar

StartChar: K
Encoding: 75 75 13
Width: 500
GlyphClass: 1
Flags: W
LayerCount: 2
Fore
SplineSet
108.254882812 0 m 1,0,1
 108.254882812 0 108.254882812 0 74.2548828125 0 c 1,2,3
 62.0048828125 5 62.0048828125 5 58.2548828125 11 c 0,4,5
 48.0048828125 25 48.0048828125 25 48.2548828125 29 c 0,6,7
 60.0048828125 327 60.0048828125 327 60.0048828125 539.200195312 c 0,8,9
 60.0048828125 549 60.0048828125 549 70.0048828125 557.200195312 c 0,10,11
 88.40625 568.701171875 88.40625 568.701171875 89.0048828125 569.200195312 c 0,12,13
 124.626953125 584.170898438 124.626953125 584.170898438 133.004882812 573 c 0,14,15
 139.004882812 565 139.004882812 565 134.004882812 539.5 c 0,16,17
 134.029296875 539.264648438 134.029296875 539.264648438 133.129882812 420 c 0,18,19
 133.004882812 356 133.004882812 356 135.254882812 326 c 1,20,21
 147.004882812 335 147.004882812 335 226.129882812 435 c 0,22,23
 284.004882812 508 284.004882812 508 332.004882812 569.200195312 c 0,24,25
 339.004882812 578 339.004882812 578 354.004882812 579.200195312 c 0,26,27
 394.004882812 585 394.004882812 585 400.004882812 558.200195312 c 0,28,29
 404.004882812 540 404.004882812 540 388.004882812 514.200195312 c 1,30,31
 328.004882812 435 328.004882812 435 268.254882812 356 c 1,32,33
 274.004882812 343 274.004882812 343 282.254882812 331 c 0,34,35
 289.004882812 320 289.004882812 320 290.254882812 318 c 0,36,37
 294.004882812 312 294.004882812 312 298.254882812 305 c 0,38,39
 304.004882812 294 304.004882812 294 306.254882812 292 c 0,40,41
 307.004882812 291 307.004882812 291 308.254882812 289 c 0,42,43
 313.004882812 282 313.004882812 282 317.254882812 274 c 0,44,45
 327.004882812 255 327.004882812 255 329.254882812 252 c 0,46,47
 334.004882812 246 334.004882812 246 337.254882812 239 c 0,48,49
 342.004882812 230 342.004882812 230 344.254882812 227 c 0,50,51
 346.004882812 225 346.004882812 225 348.254882812 222 c 0,52,53
 361.004882812 200 361.004882812 200 361.254882812 199 c 2,54,-1
 364.254882812 196 l 2,55,56
 367.004882812 193 367.004882812 193 371.254882812 183 c 0,57,58
 378.004882812 167 378.004882812 167 383.254882812 161 c 0,59,60
 384.004882812 160 384.004882812 160 385.754882812 158.5 c 0,61,62
 387.004882812 157 387.004882812 157 387.254882812 156 c 0,63,64
 391.004882812 150 391.004882812 150 395.254882812 143 c 0,65,66
 406.004882812 123 406.004882812 123 407.254882812 121 c 0,67,68
 410.004882812 117 410.004882812 117 411.254882812 116 c 0,69,70
 414.004882812 109 414.004882812 109 418.254882812 103 c 0,71,72
 424.004882812 92 424.004882812 92 430.254882812 82 c 0,73,74
 438.004882812 70 438.004882812 70 438.254882812 69 c 0,75,76
 441.004882812 66 441.004882812 66 442.754882812 62 c 0,77,78
 444.004882812 58 444.004882812 58 445.754882812 53 c 0,79,80
 447.004882812 48 447.004882812 48 448.254882812 45 c 0,81,82
 461.004882812 9 461.004882812 9 427.254882812 0 c 0,83,84
 400.004882812 -8 400.004882812 -8 390.754882812 4.5 c 0,85,86
 370.004882812 32 370.004882812 32 365.254882812 36 c 0,87,88
 364.004882812 37 364.004882812 37 362.254882812 42 c 0,89,90
 360.004882812 47 360.004882812 47 358.254882812 49 c 0,91,92
 356.004882812 51 356.004882812 51 350.254882812 62 c 0,93,94
 347.004882812 69 347.004882812 69 342.254882812 75 c 0,95,96
 338.004882812 82 338.004882812 82 334.254882812 88 c 0,97,98
 332.004882812 91 332.004882812 91 330.254882812 93 c 0,99,100
 328.004882812 94 328.004882812 94 318.254882812 115 c 0,101,102
 313.004882812 127 313.004882812 127 311.254882812 128 c 0,103,104
 309.004882812 130 309.004882812 130 307.254882812 133 c 0,105,106
 304.004882812 139 304.004882812 139 295.254882812 155 c 0,107,108
 289.004882812 166 289.004882812 166 287.254882812 168 c 0,109,110
 285.004882812 170 285.004882812 170 283.254882812 172 c 0,111,112
 281.004882812 173 281.004882812 173 271.254882812 194 c 0,113,114
 266.004882812 206 266.004882812 206 264.254882812 207 c 0,115,116
 261.004882812 210 261.004882812 210 260.254882812 212 c 0,117,118
 253.004882812 224 253.004882812 224 248.254882812 234 c 0,119,120
 247.004882812 237 247.004882812 237 244.254882812 240 c 0,121,122
 239.004882812 246 239.004882812 246 237.254882812 251 c 0,123,124
 227.004882812 276 227.004882812 276 217.254882812 286 c 0,125,126
 214.004882812 289 214.004882812 289 212.254882812 292 c 1,127,128
 200.004882812 285 200.004882812 285 189.254882812 268 c 0,129,130
 188.004882812 266 188.004882812 266 187.254882812 264 c 0,131,132
 177.004882812 254 177.004882812 254 176.254882812 253 c 0,133,134
 174.004882812 249 174.004882812 249 170.254882812 246 c 0,135,136
 168.004882812 244 168.004882812 244 164.754882812 239.5 c 0,137,138
 161.004882812 235 161.004882812 235 159.254882812 233 c 0,139,140
 154.004882812 229 154.004882812 229 151.254882812 224 c 1,141,142
 151.254882812 224 151.254882812 224 151.254882812 224 c 1,143,144
 147.004882812 222 147.004882812 222 144.254882812 219 c 0,145,146
 140.004882812 214 140.004882812 214 135.254882812 210 c 1,147,148
 134.004882812 120 134.004882812 120 134.254882812 30 c 1,149,150
 128.004882812 14 128.004882812 14 124.254882812 11 c 0,151,152
 117.004882812 4 117.004882812 4 108.254882812 0 c 1,0,1
EndSplineSet
Validated: 524321
EndChar

StartChar: L
Encoding: 76 76 14
Width: 500
GlyphClass: 1
Flags: W
LayerCount: 2
Fore
SplineSet
412.985351562 0 m 1,0,1
 412.985351562 0 412.985351562 0 65.9853515625 0 c 1,2,3
 55 5 55 5 49.9853515625 15 c 1,4,5
 54 365 54 365 54 539 c 0,6,7
 54 551 54 551 66 563 c 0,8,9
 93 590 93 590 125 571 c 0,10,11
 135 565 135 565 143 555 c 0,12,13
 148 548 148 548 148 546 c 0,14,15
 146 312 146 312 144.985351562 78 c 1,16,17
 406 78 406 78 410 77 c 128,-1,18
 414 76 414 76 417.985351562 75 c 0,19,20
 451 64 451 64 449.985351562 33 c 1,21,22
 444 5 444 5 412.985351562 0 c 1,0,1
EndSplineSet
Validated: 524321
EndChar

StartChar: M
Encoding: 77 77 15
Width: 500
GlyphClass: 1
Flags: W
LayerCount: 2
Fore
SplineSet
449.5 0 m 1,0,1
 449.5 0 449.5 0 374.5 0 c 1,2,3
 374.5 78 374.5 78 373.5 156 c 1,4,5
 248.5 156 248.5 156 124.5 156 c 1,6,7
 124.5 156 124.5 156 124.5 0 c 1,8,9
 124.5 0 124.5 0 49.5 0 c 1,10,11
 50.5 268 50.5 268 50.5 545 c 0,12,13
 50.5 554 50.5 554 55.5 559 c 0,14,15
 58.5 563 58.5 563 61.5 567 c 0,16,17
 63.5 570 63.5 570 70.5 574 c 0,18,19
 94.5 586 94.5 586 121.5 567 c 0,20,21
 128.5 562 128.5 562 136.5 552 c 1,22,23
 192.5 431 192.5 431 234.5 362 c 0,24,25
 240.5 352 240.5 352 245.5 343 c 1,26,27
 250.5 349 250.5 349 254.5 356 c 0,28,29
 316.5 445 316.5 445 364.5 542 c 0,30,31
 366.5 546 366.5 546 367.5 550 c 1,32,33
 368.5 548 368.5 548 369.5 550 c 0,34,35
 371.5 557 371.5 557 375.5 563 c 0,36,37
 383.5 575 383.5 575 413.87109375 576.616210938 c 0,38,39
 448.5 579 448.5 579 448.5 543 c 0,40,41
 448.5 542 448.5 542 449.5 541 c 0,42,43
 451.5 399 451.5 399 449.5 0 c 1,0,1
126.5 364 m 1,44,45
 125.5 349 125.5 349 125.5 342 c 0,46,47
 124.5 282 124.5 282 124.5 222 c 1,48,49
 127.5 222 127.5 222 130.5 222 c 0,50,51
 137.5 222 137.5 222 144.5 222 c 256,52,53
 151.5 222 151.5 222 158.5 222 c 130,-1,54
 165.5 222 165.5 222 172.5 222 c 128,-1,55
 179.5 222 179.5 222 186.5 222 c 256,56,57
 193.5 222 193.5 222 200.5 222 c 2,58,59
 202.5 222 202.5 222 205.5 222 c 128,-1,60
 208.5 222 208.5 222 211.5 223 c 1,61,62
 168.5 293 168.5 293 126.5 364 c 1,44,45
368.5 222 m 2,63,64
 371 222 371 222 373.5 222 c 1,65,66
 373.5 292 373.5 292 373.5 364 c 1,67,68
 323.5 289 323.5 289 283.5 231 c 0,69,70
 280.3125 225.139648438 280.3125 225.139648438 280.5 222 c 0,71,72
 280.5 221 280.5 221 284.5 222 c 0,73,74
 284.5 222 284.5 222 298.5 222 c 2,75,76
 305.5 222 305.5 222 312.5 222 c 128,-1,77
 319.5 222 319.5 222 326.5 222 c 256,78,79
 333.5 222 333.5 222 340.5 222 c 256,80,81
 347.5 222 347.5 222 354.5 222 c 256,82,83
 361.5 222 361.5 222 368.5 222 c 2,63,64
EndSplineSet
Validated: 524321
EndChar

StartChar: N
Encoding: 78 78 16
Width: 500
GlyphClass: 1
Flags: W
LayerCount: 2
Fore
SplineSet
428 0 m 1,0,1
 428 0 428 0 381 0 c 0,2,3
 379 0 379 0 372 5 c 0,4,5
 356 17 356 17 346 32 c 0,6,7
 342 38 342 38 340 38 c 0,8,9
 339 38 339 38 333 47 c 0,10,11
 323 60 323 60 322 63 c 0,12,13
 322 63 322 63 128 456.200195312 c 1,14,15
 125 317 125 317 126.5 240.600097656 c 0,16,17
 128 83 128 83 128 25 c 1,18,19
 124 8 124 8 104 0 c 1,20,-1
 74 0 l 1,21,22
 50 0 50 0 50 27 c 0,23,24
 50 276 50 276 50 524.200195312 c 0,25,26
 50 526 50 526 52 546.200195312 c 0,27,28
 53 556 53 556 54 559.200195312 c 0,29,30
 65 579 65 579 103 579.200195312 c 0,31,32
 139 579 139 579 153 555.200195312 c 1,33,34
 153 555.200195312 153 555.200195312 155 553.200195312 c 0,35,36
 155 553.200195312 155 553.200195312 373 114 c 1,37,38
 373 317 373 317 373 519.200195312 c 1,39,40
 243 519.200195312 243 519.200195312 243 519.200195312 c 0,41,42
 238 520 238 520 236 520.200195312 c 0,43,44
 210 530 210 530 212 554.200195312 c 1,45,46
 218 574 218 574 243 579.200195312 c 5,47,48
 322 579 322 579 401 579.200195312 c 0,49,50
 408 579 408 579 416 579.200195312 c 0,51,52
 442 578 442 578 450 553.200195312 c 1,53,54
 450 293 450 293 450 32 c 0,55,56
 450 13 450 13 428 0 c 1,0,1
EndSplineSet
Validated: 524321
EndChar

StartChar: O
Encoding: 79 79 17
Width: 500
GlyphClass: 1
Flags: W
LayerCount: 2
Fore
SplineSet
292.034179688 565.698242188 m 0,0,1
 294.317382812 564.607421875 294.317382812 564.607421875 297.090820312 564.551757812 c 0,2,3
 327.181640625 558.080078125 327.181640625 558.080078125 353.98046875 544.205078125 c 0,4,5
 374.561523438 532.8671875 374.561523438 532.8671875 393.171875 518.986328125 c 0,6,7
 429.0703125 489.6015625 429.0703125 489.6015625 452.90625 451.641601562 c 0,8,9
 500.037109375 373.834960938 500.037109375 373.834960938 499.998046875 284.854492188 c 0,10,11
 500.25 196.594726562 500.25 196.594726562 454.169921875 119.213867188 c 0,12,13
 417.217773438 58.482421875 417.217773438 58.482421875 351.452148438 23.2109375 c 0,14,15
 318.533203125 7.2890625 318.533203125 7.2890625 281.919921875 1.1455078125 c 1,16,-1
 277.49609375 1.1455078125 l 2,17,18
 275.100585938 2.412109375 275.100585938 2.412109375 272.123046875 2.291015625 c 0,19,20
 266.600585938 2.1884765625 266.600585938 2.1884765625 261.060546875 2.291015625 c 0,21,22
 246.380859375 5.13671875 246.380859375 5.13671875 237.356445312 16.046875 c 0,23,24
 223.087890625 36.228515625 223.087890625 36.228515625 234.828125 57.88671875 c 0,25,26
 239.970703125 64.2705078125 239.970703125 64.2705078125 246.522460938 69.63671875 c 0,27,28
 261.844726562 78.474609375 261.844726562 78.474609375 280.024414062 80.5263671875 c 0,29,30
 328.8203125 93.990234375 328.8203125 93.990234375 360.301757812 130.103515625 c 1,31,32
 358.836914062 130.921875 358.836914062 130.921875 357.141601562 130.676757812 c 0,33,34
 349.39453125 131.361328125 349.39453125 131.361328125 341.970703125 130.676757812 c 0,35,36
 277.525390625 131.274414062 277.525390625 131.274414062 213.020507812 131.25 c 2,37,-1
 190.896484375 131.25 l 1,38,-1
 183.311523438 131.25 l 2,39,40
 176.19921875 132.048828125 176.19921875 132.048828125 168.772460938 131.25 c 0,41,42
 152.470703125 131.51953125 152.470703125 131.51953125 136.21875 130.676757812 c 0,43,44
 134.818359375 129.865234375 134.818359375 129.865234375 134.323242188 128.384765625 c 0,45,46
 130.872070312 106.521484375 130.872070312 106.521484375 108.72265625 97.1474609375 c 0,47,48
 70.6484375 85.919921875 70.6484375 85.919921875 48.35546875 115.775390625 c 0,49,50
 41.58984375 128.618164062 41.58984375 128.618164062 33.8173828125 140.994140625 c 0,51,52
 14.7900390625 180.28125 14.7900390625 180.28125 6.3203125 222.380859375 c 0,53,54
 6.283203125 226.021484375 6.283203125 226.021484375 5.056640625 229.258789062 c 0,55,56
 5.115234375 233.193359375 5.115234375 233.193359375 3.7919921875 236.709960938 c 0,57,58
 0.8125 260.588867188 0.8125 260.588867188 0 284.568359375 c 0,59,60
 0.7939453125 308.857421875 0.7939453125 308.857421875 4.1083984375 332.999023438 c 0,61,62
 17.6962890625 429.54296875 17.6962890625 429.54296875 88.1787109375 502.078125 c 0,63,64
 115.090820312 527.64453125 115.090820312 527.64453125 148.544921875 545.3515625 c 0,65,66
 216.15234375 578.939453125 216.15234375 578.939453125 292.034179688 565.698242188 c 0,0,1
260.533203125 490.615234375 m 0,67,68
 245.311523438 490.900390625 245.311523438 490.900390625 230.19140625 489.469726562 c 0,69,70
 224.73046875 488.876953125 224.73046875 488.876953125 219.446289062 487.462890625 c 0,71,72
 189.73828125 479.703125 189.73828125 479.703125 165.716796875 462.244140625 c 0,73,74
 113.701171875 421.09765625 113.701171875 421.09765625 95.552734375 360.510742188 c 1,75,76
 250.90234375 360.63671875 250.90234375 360.63671875 405.286132812 361.083984375 c 1,77,78
 403.849609375 366.861328125 403.849609375 366.861328125 401.809570312 372.546875 c 0,79,80
 389.783203125 403.240234375 389.783203125 403.240234375 369.255859375 429.861328125 c 0,81,82
 346.353515625 458.224609375 346.353515625 458.224609375 312.998046875 476 c 0,83,84
 292.798828125 486.0703125 292.798828125 486.0703125 270.014648438 489.469726562 c 0,85,86
 265.08984375 489.67578125 265.08984375 489.67578125 260.533203125 490.615234375 c 0,67,68
408.446289062 216.649414062 m 0,87,88
 419.399414062 255.306640625 419.399414062 255.306640625 417.295898438 295.170898438 c 1,89,90
 250.693359375 294.822265625 250.693359375 294.822265625 84.1748046875 295.170898438 c 1,91,92
 81.44140625 245.467773438 81.44140625 245.467773438 98.712890625 198.30859375 c 0,93,94
 100.177734375 197.490234375 100.177734375 197.490234375 101.873046875 197.735351562 c 0,95,96
 108.673828125 198.388671875 108.673828125 198.388671875 115.147460938 197.735351562 c 0,97,98
 241.095703125 197.190429688 241.095703125 197.190429688 367.04296875 196.58984375 c 0,99,100
 372.890625 196.684570312 372.890625 196.684570312 384.584960938 196.875976562 c 128,-1,101
 396.279296875 197.06640625 396.279296875 197.06640625 402.125976562 197.162109375 c 1,102,103
 405.427734375 204.7109375 405.427734375 204.7109375 407.182617188 212.637695312 c 0,104,105
 407.391601562 214.842773438 407.391601562 214.842773438 408.446289062 216.649414062 c 0,87,88
EndSplineSet
Validated: 524321
EndChar

StartChar: P
Encoding: 80 80 18
Width: 500
GlyphClass: 1
Flags: W
LayerCount: 2
Fore
SplineSet
181.166992188 579.200195312 m 0,0,1
 228.166992188 579 228.166992188 579 275.166992188 573.200195312 c 0,2,3
 345.166992188 566 345.166992188 566 392.166992188 528.200195312 c 0,4,5
 444.166992188 487 444.166992188 487 450.166992188 419.200195312 c 1,6,7
 445.166992188 315 445.166992188 315 336.166992188 280.200195312 c 0,8,9
 289.166992188 265 289.166992188 265 244.166992188 264.200195312 c 0,10,11
 202.166992188 263 202.166992188 263 198.166992188 263.200195312 c 0,12,13
 166.166992188 264 166.166992188 264 135.166992188 264.200195312 c 1,14,15
 134.166992188 153 134.166992188 153 134.166992188 40 c 0,16,17
 134.166992188 26 134.166992188 26 123.166992188 15 c 0,18,19
 97.1669921875 -10 97.1669921875 -10 71.1669921875 6 c 0,20,21
 63.1669921875 11 63.1669921875 11 55.1669921875 22 c 0,22,23
 51.1669921875 28 51.1669921875 28 51.1669921875 33 c 0,24,25
 49.1669921875 129 49.1669921875 129 50.1669921875 168.200195312 c 0,26,27
 51.1669921875 233 51.1669921875 233 51.1669921875 542.200195312 c 1,28,29
 59.1669921875 561 59.1669921875 561 75.1669921875 570.200195312 c 0,30,31
 76.5908203125 572.142578125 76.5908203125 572.142578125 77.1669921875 572.200195312 c 0,32,33
 82.1669921875 576 82.1669921875 576 88.1669921875 576.200195312 c 0,34,35
 140.166992188 579 140.166992188 579 181.166992188 579.200195312 c 0,0,1
187.166992188 513.200195312 m 0,36,37
 162.166992188 511.200195312 162.166992188 511.200195312 138.166992188 508.200195312 c 1,38,39
 138.166992188 508.200195312 138.166992188 508.200195312 138.166992188 462.200195312 c 1,40,41
 186.166992188 462.200195312 186.166992188 462.200195312 235.166992188 462.200195312 c 0,42,43
 247.166992188 463.200195312 247.166992188 463.200195312 257.166992188 457.200195312 c 0,44,45
 282.166992188 442.200195312 282.166992188 442.200195312 278.166992188 416.200195312 c 0,46,47
 269.166992188 387.200195312 269.166992188 387.200195312 235.166992188 385.200195312 c 0,48,49
 186.166992188 385.200195312 186.166992188 385.200195312 137.166992188 385.200195312 c 1,50,51
 137.166992188 357.200195312 137.166992188 357.200195312 137.166992188 329.200195312 c 1,52,53
 148.166992188 327.200195312 148.166992188 327.200195312 159.166992188 327.200195312 c 0,54,55
 192.166992188 326.200195312 192.166992188 326.200195312 225.166992188 327.200195312 c 0,56,57
 265.166992188 329.200195312 265.166992188 329.200195312 303.166992188 341.200195312 c 0,58,59
 326.166992188 348.200195312 326.166992188 348.200195312 345.166992188 362.200195312 c 0,60,61
 359.166992188 373.200195312 359.166992188 373.200195312 366.166992188 389.200195312 c 0,62,63
 383.166992188 443.200195312 383.166992188 443.200195312 338.166992188 481.200195312 c 0,64,65
 310.166992188 501.200195312 310.166992188 501.200195312 273.166992188 508.200195312 c 0,66,67
 230.166992188 515.200195312 230.166992188 515.200195312 187.166992188 513.200195312 c 0,36,37
EndSplineSet
Validated: 524321
EndChar

StartChar: Q
Encoding: 81 81 19
Width: 500
GlyphClass: 1
Flags: W
LayerCount: 2
Fore
SplineSet
246.834960938 584.200195312 m 2,0,-1
 249.415039062 584.200195312 l 2,1,2
 304.834960938 584 304.834960938 584 351.971679688 558.400390625 c 0,3,4
 415.834960938 523 415.834960938 523 449.046875 469.349609375 c 0,5,6
 505.834960938 379 505.834960938 379 499.388671875 258.28125 c 0,7,8
 492.834960938 135 492.834960938 135 436.822265625 93.49609375 c 0,9,10
 333.834960938 17 333.834960938 17 333.620117188 16.9287109375 c 0,11,12
 332.834960938 16 332.834960938 16 333.620117188 14.154296875 c 0,13,14
 338.834960938 0 338.834960938 0 346.520507812 -11.9228515625 c 0,15,16
 354.834960938 -26 354.834960938 -26 379.416015625 -52.98046875 c 0,17,18
 384.834960938 -59 384.834960938 -59 384.8984375 -71.5673828125 c 0,19,20
 382.834960938 -101 382.834960938 -101 349.422851562 -108.186523438 c 1,21,22
 330.834960938 -110 330.834960938 -110 301.369140625 -84.0517578125 c 0,23,24
 296.834960938 -80 296.834960938 -80 291.694335938 -75.173828125 c 0,25,26
 263.834960938 -49 263.834960938 -49 237.834960938 5 c 1,27,28
 145.834960938 12 145.834960938 12 87.869140625 68.5283203125 c 0,29,30
 38.8349609375 116 38.8349609375 116 16.91796875 178.384765625 c 0,31,32
 -11.1650390625 261 -11.1650390625 261 7.2421875 345.9453125 c 1,33,34
 13.8349609375 351 13.8349609375 351 21.1103515625 356.209960938 c 0,35,36
 30.8349609375 362 30.8349609375 362 38.525390625 362.3125 c 0,37,38
 79.8349609375 363 79.8349609375 363 85.611328125 328.467773438 c 1,39,40
 83.8349609375 313 83.8349609375 313 82.064453125 296.564453125 c 0,41,42
 77.8349609375 239 77.8349609375 239 100.125 185.04296875 c 0,43,44
 120.834960938 135 120.834960938 135 165.59375 105.424804688 c 0,45,46
 187.834960938 91 187.834960938 91 215.259765625 85.1728515625 c 1,47,48
 206.834960938 130 206.834960938 130 206.551757812 130.114257812 c 0,49,50
 205.834960938 137 205.834960938 137 207.197265625 143.430664062 c 0,51,52
 214.834960938 168 214.834960938 168 239.770507812 173.114257812 c 0,53,54
 278.834960938 181 278.834960938 181 296.208984375 147.314453125 c 1,55,56
 297.834960938 132 297.834960938 132 300.079101562 115.689453125 c 0,57,58
 301.834960938 103 301.834960938 103 306.8515625 91.5537109375 c 1,59,60
 316.834960938 93 316.834960938 93 324.912109375 98.7666015625 c 0,61,62
 344.834960938 111 344.834960938 111 360.7109375 127.340820312 c 0,63,64
 397.834960938 169 397.834960938 169 408.44140625 220.552734375 c 0,65,66
 427.834960938 320 427.834960938 320 394.865234375 398.330078125 c 0,67,68
 374.834960938 445 374.834960938 445 338.426757812 472.956054688 c 0,69,70
 248.975585938 539.115234375 248.975585938 539.115234375 209.423828125 499.587890625 c 0,71,72
 207.834960938 498 207.834960938 498 197.168945312 494.0390625 c 0,73,74
 163.834960938 481 163.834960938 481 142.01953125 507.078125 c 0,75,76
 122.834960938 531 122.834960938 531 142.01953125 553.684570312 c 0,77,78
 147.834960938 560 147.834960938 560 155.887695312 564.502929688 c 0,79,80
 201.834960938 584 201.834960938 584 246.834960938 584.200195312 c 2,0,-1
EndSplineSet
Validated: 524321
EndChar

StartChar: R
Encoding: 82 82 20
Width: 500
GlyphClass: 1
Flags: W
LayerCount: 2
Fore
SplineSet
450 0 m 1,0,1
 450 0 450 0 356 0 c 1,2,3
 221 294 221 294 221 294 c 1,4,5
 180 294 180 294 138 294 c 1,6,7
 136 147 136 147 135 0 c 1,8,9
 135 0 135 0 50 0 c 1,10,11
 52 0 52 0 52 440 c 0,12,13
 52 448 52 448 53 450 c 0,14,15
 63.849609375 473.5078125 63.849609375 473.5078125 95 476 c 0,16,17
 119 478 119 478 138 447 c 0,18,19
 139 446 139 446 139 446 c 1,20,21
 139 380 139 380 139 368 c 0,22,23
 140 368 140 368 141 367 c 0,24,25
 159 365 159 365 176 364 c 0,26,27
 229 362 229 362 280 373 c 0,28,29
 322 382 322 382 341 415 c 1,30,31
 358 470 358 470 301 493 c 0,32,33
 281 501 281 501 241 506 c 0,34,35
 233 507 233 507 224 508 c 1,36,37
 224 510 224 510 223 511 c 0,38,39
 195 528 195 528 206 556 c 1,40,41
 219 578 219 578 251 578 c 0,42,43
 251 578 251 578 289 572 c 0,44,45
 312 568 312 568 335 560 c 0,46,47
 371 547 371 547 393 525 c 0,48,49
 441 477 441 477 426 415 c 1,50,51
 401 336 401 336 310 308 c 1,52,53
 332 272 332 272 378.5 156 c 128,-1,54
 425 40 425 40 450 0 c 1,0,1
EndSplineSet
Validated: 524321
EndChar

StartChar: S
Encoding: 83 83 21
Width: 500
GlyphClass: 1
Flags: W
LayerCount: 2
Fore
SplineSet
252.9453125 579.200195312 m 0,0,1
 340.9453125 576.200195312 340.9453125 576.200195312 422.9453125 548.200195312 c 1,2,3
 450.9453125 532.200195312 450.9453125 532.200195312 435.9453125 507.200195312 c 0,4,5
 421.9453125 491.200195312 421.9453125 491.200195312 396.9453125 493.200195312 c 1,6,7
 339.9453125 510.200195312 339.9453125 510.200195312 279.9453125 515.200195312 c 0,8,9
 257.9453125 516.200195312 257.9453125 516.200195312 236.9453125 516.200195312 c 0,10,11
 210.9453125 514.200195312 210.9453125 514.200195312 187.9453125 505.200195312 c 0,12,13
 131.9453125 478.200195312 131.9453125 478.200195312 145.9453125 426.200195312 c 0,14,15
 153.9453125 407.200195312 153.9453125 407.200195312 173.9453125 394.200195312 c 0,16,17
 200.9453125 378.200195312 200.9453125 378.200195312 231.9453125 367.200195312 c 0,18,19
 271.9453125 354.200195312 271.9453125 354.200195312 311.9453125 341.200195312 c 0,20,21
 355.9453125 327.200195312 355.9453125 327.200195312 390.9453125 302.200195312 c 0,22,23
 424.9453125 277.200195312 424.9453125 277.200195312 439.9453125 241.200195312 c 0,24,25
 446.9453125 220.200195312 446.9453125 220.200195312 443.9453125 198.200195312 c 1,26,27
 425.9453125 170.200195312 425.9453125 170.200195312 388.9453125 175.200195312 c 0,28,29
 362.9453125 182.200195312 362.9453125 182.200195312 356.9453125 203.200195312 c 0,30,31
 355.9453125 206.200195312 355.9453125 206.200195312 354.9453125 209.200195312 c 0,32,33
 353.9453125 240.200195312 353.9453125 240.200195312 323.9453125 261.200195312 c 0,34,35
 301.9453125 275.200195312 301.9453125 275.200195312 275.9453125 284.200195312 c 0,36,37
 240.9453125 295.200195312 240.9453125 295.200195312 205.9453125 306.200195312 c 0,38,39
 157.9453125 321.200195312 157.9453125 321.200195312 116.9453125 347.200195312 c 0,40,41
 22.9453125 410.200195312 22.9453125 410.200195312 71.9453125 500.200195312 c 0,42,43
 88.9453125 528.200195312 88.9453125 528.200195312 120.9453125 546.200195312 c 0,44,45
 165.9453125 573.200195312 165.9453125 573.200195312 221.9453125 577.200195312 c 0,46,47
 237.9453125 578.200195312 237.9453125 578.200195312 252.9453125 579.200195312 c 0,0,1
89.046875 85 m 0,48,49
 97.046875 85 97.046875 85 104.046875 84 c 0,50,51
 113.046875 81 113.046875 81 122.046875 77 c 0,52,53
 128.046875 76 128.046875 76 134.046875 74 c 0,54,55
 144.046875 74 144.046875 74 154.046875 73 c 0,56,57
 198.046875 63 198.046875 63 244.046875 61 c 0,58,59
 256.046875 59 256.046875 59 267.046875 56 c 0,60,61
 292.046875 45 292.046875 45 288.046875 23 c 0,62,63
 285.046875 13 285.046875 13 274.046875 7 c 0,64,65
 270.046875 5 270.046875 5 267.046875 3 c 0,66,67
 260.046875 1 260.046875 1 256.046875 0 c 0,68,69
 206.046875 0 206.046875 0 158.046875 9 c 0,70,71
 117.046875 17 117.046875 17 78.046875 29 c 1,72,73
 50.046875 43 50.046875 43 61.046875 68 c 0,74,75
 70.046875 82 70.046875 82 89.046875 85 c 0,48,49
EndSplineSet
Validated: 524321
EndChar

StartChar: T
Encoding: 84 84 22
Width: 500
GlyphClass: 1
Flags: W
LayerCount: 2
Fore
SplineSet
129.944335938 579.200195312 m 0,0,1
 321.944335938 580 321.944335938 580 418.944335938 577.200195312 c 0,2,3
 449.944335938 576 449.944335938 576 449.944335938 543.200195312 c 2,4,5
 449.944335938 543.200195312 449.944335938 543.200195312 449.944335938 542.200195312 c 0,6,7
 448.944335938 517 448.944335938 517 433.944335938 513.200195312 c 0,8,9
 429.944335938 512 429.944335938 512 426.944335938 510.200195312 c 0,10,11
 424.944335938 509 424.944335938 509 423.944335938 509.200195312 c 0,12,13
 420.944335938 510 420.944335938 510 418.944335938 509.200195312 c 0,14,15
 350.944335938 509 350.944335938 509 281.944335938 509.200195312 c 1,16,17
 281.944335938 255 281.944335938 255 281.944335938 0 c 1,18,19
 281.944335938 0 281.944335938 0 213.944335938 0 c 1,20,21
 213.944335938 0 213.944335938 0 213.944335938 509.200195312 c 1,22,23
 147.944335938 509 147.944335938 509 86.9443359375 509.200195312 c 0,24,25
 85.9443359375 509 85.9443359375 509 85.9443359375 510.200195312 c 1,26,27
 70.9443359375 508 70.9443359375 508 60.9443359375 517.200195312 c 0,28,29
 46.9443359375 533 46.9443359375 533 50.9443359375 551.200195312 c 0,30,31
 56.9443359375 579 56.9443359375 579 81.9443359375 579.200195312 c 0,32,33
 105.944335938 579 105.944335938 579 129.944335938 579.200195312 c 0,0,1
EndSplineSet
Validated: 524321
EndChar

StartChar: U
Encoding: 85 85 23
Width: 500
GlyphClass: 1
Flags: W
LayerCount: 2
Fore
SplineSet
255.599609375 0 m 1,0,1
 255.599609375 0 255.599609375 0 239.599609375 0 c 0,2,3
 187.5 3 187.5 3 144.599609375 29 c 0,4,5
 85.5 65 85.5 65 64.599609375 125 c 0,6,7
 51.5 163 51.5 163 51.599609375 197 c 0,8,9
 51.5 372 51.5 372 50.5 547.200195312 c 0,10,11
 50.5 551 50.5 551 55.5 560.200195312 c 0,12,13
 65.5 577 65.5 577 83.5 579.200195312 c 0,14,15
 110.5 582 110.5 582 122.5 564.200195312 c 0,16,17
 131.5 551 131.5 551 130.5 536.200195312 c 0,18,19
 128.5 490 128.5 490 129.5 421.200195312 c 0,20,21
 130.5 345 130.5 345 130.599609375 269 c 1,22,23
 249.5 268 249.5 268 369.599609375 269 c 1,24,25
 369.5 532 369.5 532 369.5 532.200195312 c 0,26,27
 370.5 534 370.5 534 371.5 537.200195312 c 0,28,29
 371.5 541 371.5 541 371.5 548.200195312 c 0,30,31
 374.5 575 374.5 575 404.5 579.200195312 c 0,32,33
 440.5 583 440.5 583 445.5 556.200195312 c 0,34,35
 449.5 538 449.5 538 449.5 537.200195312 c 0,36,37
 449.5 239 449.5 239 448.599609375 207 c 0,38,39
 447.5 168 447.5 168 437.599609375 130 c 0,40,41
 425.5 85 425.5 85 393.599609375 55 c 0,42,43
 339.5 4 339.5 4 255.599609375 0 c 1,0,1
140.599609375 205 m 0,44,45
 136.599609375 205 136.599609375 205 131.599609375 205 c 1,46,47
 133.599609375 173 133.599609375 173 142.599609375 143 c 0,48,49
 150.599609375 117 150.599609375 117 169.599609375 96 c 0,50,51
 184.599609375 81 184.599609375 81 205.599609375 72 c 0,52,53
 296.599609375 45 296.599609375 45 344.599609375 116 c 0,54,55
 370.599609375 158 370.599609375 158 369.599609375 205 c 1,56,57
 254.599609375 205 254.599609375 205 140.599609375 205 c 0,44,45
EndSplineSet
Validated: 524321
EndChar

StartChar: V
Encoding: 86 86 24
Width: 500
GlyphClass: 1
Flags: W
LayerCount: 2
Fore
SplineSet
449.5 535 m 2,0,1
 449.5 535 449.5 535 449.5 534 c 256,2,3
 449.5 533 449.5 533 448.5 533 c 0,4,5
 411.5 393 411.5 393 300.5 0 c 1,6,7
 300.5 0 300.5 0 208.5 0 c 1,8,9
 100.5 360 100.5 360 51.5 526 c 0,10,11
 51.4716796875 528.236328125 51.4716796875 528.236328125 51.5 530 c 256,12,13
 50.5 532 50.5 532 50.5 534 c 0,14,15
 51.5 540 51.5 540 51.5 558 c 0,16,17
 51.5 578 51.5 578 89.5 578 c 0,18,19
 97.5 578 97.5 578 103.5 577.5 c 128,-1,20
 109.5 577 109.5 577 116.5 577 c 0,21,22
 120.5 577 120.5 577 123.5 577 c 0,23,24
 140.5 577 140.5 577 157.5 577 c 0,25,26
 169.5 577 169.5 577 171.5 577 c 0,27,28
 177.5 577 177.5 577 177.5 577 c 0,29,30
 279.5 577 279.5 577 279.5 577 c 0,31,32
 293.5 577 293.5 577 293.5 577 c 0,33,34
 296.5 577 296.5 577 300.5 577 c 0,35,36
 333.5 577 333.5 577 333.5 577 c 0,37,38
 340.5 577 340.5 577 347.5 577 c 128,-1,39
 354.5 577 354.5 577 354.5 577 c 0,40,41
 372.5 577 372.5 577 388.5 578 c 0,42,43
 401.5 579 401.5 579 401.5 579 c 0,44,45
 417.5 579 417.5 579 417.5 579 c 0,46,47
 429.5 574 429.5 574 434.5 570 c 128,-1,48
 439.5 566 439.5 566 442.5 561 c 0,49,50
 449.5 549 449.5 549 449.5 535 c 2,0,1
359.5 510 m 0,51,52
 333.5 509 333.5 509 307.5 510 c 0,53,54
 274.5 511 274.5 511 262.5 509 c 0,55,56
 256.5 508 256.5 508 250.5 509 c 0,57,58
 234.5 510 234.5 510 218.5 509 c 0,59,60
 215.5 509 215.5 509 212.5 509 c 0,61,62
 210.5 509 210.5 509 208.5 509 c 0,63,64
 196.5 508 196.5 508 183.5 509 c 0,65,66
 177.5 509 177.5 509 171.5 509 c 0,67,68
 160.5 510 160.5 510 157.5 509 c 128,-1,69
 154.5 508 154.5 508 150.5 508 c 0,70,71
 140.5 508 140.5 508 129.5 508 c 1,72,73
 205.5 250 205.5 250 244.5 107 c 0,74,75
 248.5 96 248.5 96 248.5 95 c 0,76,77
 250.5 86 250.5 86 252.5 81 c 0,78,79
 253.5 79 253.5 79 254.5 77 c 1,80,81
 257.5 83 257.5 83 260.5 91 c 0,82,83
 260.5 91 260.5 91 369.5 509 c 1,84,85
 364.5 510 364.5 510 359.5 510 c 0,51,52
EndSplineSet
Validated: 524321
EndChar

StartChar: W
Encoding: 87 87 25
Width: 500
GlyphClass: 1
Flags: W
LayerCount: 2
Fore
SplineSet
447.002929688 492.841796875 m 0,0,1
 445.854492188 488.625976562 445.854492188 488.625976562 446.002929688 483.966796875 c 0,2,3
 445.515625 482.24609375 445.515625 482.24609375 445.50390625 480.416992188 c 0,4,5
 444.458007812 476.78515625 444.458007812 476.78515625 444.504882812 472.725585938 c 0,6,7
 443.084960938 464.931640625 443.084960938 464.931640625 442.505859375 456.750976562 c 0,8,9
 441.372070312 451.93359375 441.372070312 451.93359375 441.506835938 446.693359375 c 0,10,11
 440.26953125 440.380859375 440.26953125 440.380859375 440.0078125 433.676757812 c 0,12,13
 438.462890625 428.625 438.462890625 428.625 438.508789062 423.02734375 c 0,14,15
 437.647460938 418.055664062 437.647460938 418.055664062 437.509765625 412.96875 c 0,16,17
 436.450195312 410.553710938 436.450195312 410.553710938 436.509765625 407.64453125 c 0,18,19
 436.127929688 402.564453125 436.127929688 402.564453125 435.510742188 397.5859375 c 0,20,21
 434.39453125 394.271484375 434.39453125 394.271484375 434.51171875 390.486328125 c 0,22,23
 432.622070312 377.81640625 432.622070312 377.81640625 431.513671875 365.045898438 c 0,24,25
 430.677734375 361.678710938 430.677734375 361.678710938 430.514648438 357.946289062 c 0,26,27
 429.405273438 349.423828125 429.405273438 349.423828125 428.515625 340.788085938 c 0,28,29
 427.471679688 334.747070312 427.471679688 334.747070312 427.016601562 328.36328125 c 0,30,31
 426.046875 325.020507812 426.046875 325.020507812 426.017578125 321.263671875 c 2,32,-1
 426.017578125 318.305664062 l 2,33,34
 425.067382812 316.171875 425.067382812 316.171875 425.018554688 313.572265625 c 2,35,-1
 425.018554688 312.389648438 l 2,36,37
 423.732421875 305.49609375 423.732421875 305.49609375 423.51953125 298.189453125 c 0,38,39
 422.459960938 295.776367188 422.459960938 295.776367188 422.520507812 292.865234375 c 2,40,-1
 422.520507812 288.723632812 l 2,41,42
 420.921875 283.983398438 420.921875 283.983398438 421.021484375 278.665039062 c 0,43,44
 416.977539062 247.352539062 416.977539062 247.352539062 413.526367188 215.951171875 c 0,45,46
 412.563476562 213.208984375 412.563476562 213.208984375 412.52734375 210.034179688 c 0,47,48
 412.061523438 205.897460938 412.061523438 205.897460938 411.05859375 196.991210938 c 128,-1,49
 410.055664062 188.083984375 410.055664062 188.083984375 409.529296875 183.41015625 c 0,50,51
 408.413085938 180.094726562 408.413085938 180.094726562 408.530273438 176.310546875 c 0,52,53
 406.625 163.663085938 406.625 163.663085938 405.532226562 150.870117188 c 0,54,55
 404.5625 147.525390625 404.5625 147.525390625 404.533203125 143.76953125 c 0,56,57
 403.112304688 134.061523438 403.112304688 134.061523438 402.534179688 124.24609375 c 0,58,59
 401.349609375 121.247070312 401.349609375 121.247070312 401.53515625 117.737304688 c 0,60,61
 395.307617188 69.943359375 395.307617188 69.943359375 390.04296875 21.890625 c 0,62,63
 388.21875 11.09765625 388.21875 11.09765625 387.045898438 0 c 1,64,-1
 334.583007812 0 l 1,65,66
 291.40625 105.5078125 291.40625 105.5078125 247.145507812 210.034179688 c 1,67,68
 244.904296875 206.509765625 244.904296875 206.509765625 243.3984375 202.342773438 c 0,69,70
 207.237304688 101.006835938 207.237304688 101.006835938 170.700195312 0 c 1,71,-1
 115.240234375 0 l 1,72,73
 114.046875 15.0244140625 114.046875 15.0244140625 111.743164062 29.58203125 c 0,74,75
 111.926757812 34.541015625 111.926757812 34.541015625 110.743164062 39.048828125 c 0,76,77
 109.737304688 49.4775390625 109.737304688 49.4775390625 108.245117188 59.755859375 c 0,78,79
 107.958984375 63.7412109375 107.958984375 63.7412109375 107.24609375 67.447265625 c 0,80,81
 101.09375 115.977539062 101.09375 115.977539062 96.75390625 150.278320312 c 0,82,83
 96.517578125 154.598632812 96.517578125 154.598632812 95.75390625 158.561523438 c 2,84,-1
 95.75390625 159.744140625 l 2,85,86
 95.6455078125 163.188476562 95.6455078125 163.188476562 94.7548828125 166.252929688 c 0,87,88
 93.99609375 175.633789062 93.99609375 175.633789062 92.2568359375 184.59375 c 0,89,90
 92.3837890625 191.0703125 92.3837890625 191.0703125 90.7578125 197.018554688 c 0,91,92
 81.7607421875 271.3046875 81.7607421875 271.3046875 72.2705078125 345.521484375 c 0,93,94
 72.2431640625 349.279296875 72.2431640625 349.279296875 71.271484375 352.62109375 c 0,95,96
 63.73046875 411.162109375 63.73046875 411.162109375 56.7822265625 469.767578125 c 0,97,98
 56.6728515625 473.216796875 56.6728515625 473.216796875 55.783203125 476.275390625 c 0,99,100
 54.611328125 488.734375 54.611328125 488.734375 52.78515625 501.125 c 0,101,102
 52.8447265625 504.034179688 52.8447265625 504.034179688 51.78515625 506.44921875 c 0,103,104
 51.3984375 509.751953125 51.3984375 509.751953125 50.5361328125 512.95703125 c 0,105,106
 47.1396484375 538.735351562 47.1396484375 538.735351562 65.2763671875 553.485351562 c 1,107,108
 90.0576171875 564.904296875 90.0576171875 564.904296875 103.499023438 537.806640625 c 0,109,110
 105.372070312 528.77734375 105.372070312 528.77734375 108.995117188 520.6484375 c 0,111,112
 116.733398438 461.967773438 116.733398438 461.967773438 124.233398438 404.094726562 c 0,113,114
 124.110351562 401.119140625 124.110351562 401.119140625 124.483398438 398.177734375 c 0,115,116
 124.76953125 397.685546875 124.76953125 397.685546875 125.233398438 397.5859375 c 2,117,-1
 126.232421875 388.711914062 l 2,118,119
 125.950195312 384.31640625 125.950195312 384.31640625 127.231445312 380.428710938 c 0,120,121
 127.922851562 377.224609375 127.922851562 377.224609375 128.23046875 373.920898438 c 0,122,123
 127.928710938 369.227539062 127.928710938 369.227539062 129.23046875 365.045898438 c 0,124,125
 142.317382812 271.134765625 142.317382812 271.134765625 153.962890625 176.90234375 c 0,126,127
 155.993164062 160.4453125 155.993164062 160.4453125 158.958984375 144.361328125 c 1,128,129
 189.083007812 221.619140625 189.083007812 221.619140625 219.166015625 298.78125 c 0,130,131
 219.627929688 298.87890625 219.627929688 298.87890625 219.915039062 299.373046875 c 0,132,133
 220.288085938 302.017578125 220.288085938 302.017578125 220.165039062 304.698242188 c 0,134,135
 220.305664062 320.73046875 220.305664062 320.73046875 230.657226562 331.026367188 c 0,136,137
 246.786132812 343.6796875 246.786132812 343.6796875 262.634765625 330.434570312 c 0,138,139
 272.247070312 319.389648438 272.247070312 319.389648438 273.876953125 303.514648438 c 1,140,141
 308.807617188 224.935546875 308.807617188 224.935546875 342.827148438 146.13671875 c 0,142,143
 344.551757812 143.96484375 344.551757812 143.96484375 344.826171875 147.3203125 c 0,144,145
 347.158203125 169.60546875 347.158203125 169.60546875 350.072265625 191.693359375 c 0,146,147
 351.124023438 194.71875 351.124023438 194.71875 351.071289062 198.201171875 c 0,148,149
 352.46875 209.123046875 352.46875 209.123046875 353.569335938 220.092773438 c 0,150,151
 354.032226562 220.19140625 354.032226562 220.19140625 354.319335938 220.68359375 c 0,152,153
 354.692382812 223.63671875 354.692382812 223.63671875 354.568359375 226.600585938 c 0,154,155
 363.029296875 294.736328125 363.029296875 294.736328125 371.556640625 362.087890625 c 0,156,157
 372.09765625 362.458984375 372.09765625 362.458984375 372.305664062 363.270507812 c 0,158,159
 372.6796875 366.220703125 372.6796875 366.220703125 372.555664062 369.1875 c 0,160,161
 373.567382812 381.681640625 373.567382812 381.681640625 375.553710938 394.036132812 c 0,162,163
 376.017578125 394.135742188 376.017578125 394.135742188 376.303710938 394.627929688 c 0,164,165
 376.676757812 397.581054688 376.676757812 397.581054688 376.552734375 400.544921875 c 0,166,167
 382.094726562 444.9140625 382.094726562 444.9140625 387.544921875 489.291992188 c 0,168,169
 388.731445312 492.287109375 388.731445312 492.287109375 388.544921875 495.799804688 c 0,170,171
 390.922851562 515.955078125 390.922851562 515.955078125 393.791015625 536.03125 c 0,172,173
 398.708007812 554.87109375 398.708007812 554.87109375 414.525390625 560.584960938 c 0,174,175
 436.258789062 564.505859375 436.258789062 564.505859375 446.252929688 541.356445312 c 0,176,177
 449.041015625 531.208984375 449.041015625 531.208984375 450 520.6484375 c 0,178,179
 448.362304688 506.771484375 448.362304688 506.771484375 447.002929688 492.841796875 c 0,0,1
EndSplineSet
Validated: 524321
EndChar

StartChar: X
Encoding: 88 88 26
Width: 500
GlyphClass: 1
Flags: W
LayerCount: 2
Fore
SplineSet
370.517578125 0 m 1,0,-1
 332.454101562 0 l 1,1,2
 298.204101562 16 298.204101562 16 305.409179688 45.5751953125 c 0,3,4
 308.204101562 58 308.204101562 58 324.107421875 71.076171875 c 0,5,6
 331.204101562 77 331.204101562 77 337.462890625 83.5546875 c 0,7,8
 341.204101562 88 341.204101562 88 342.8046875 90.06640625 c 0,9,10
 351.204101562 94 351.204101562 94 349.81640625 95.7626953125 c 0,11,12
 333.204101562 119 333.204101562 119 246.64453125 224.079101562 c 1,13,14
 237.204101562 211 237.204101562 211 227.947265625 198.579101562 c 0,15,16
 225.204101562 195 225.204101562 195 221.936523438 191.525390625 c 0,17,18
 215.204101562 182 215.204101562 182 212.587890625 177.961914062 c 0,19,20
 204.204101562 167 204.204101562 167 202.571289062 163.3125 c 0,21,22
 196.204101562 155 196.204101562 155 191.21875 147.03515625 c 0,23,24
 182.204101562 133 182.204101562 133 181.202148438 132.385742188 c 0,25,26
 180.204101562 130 180.204101562 130 171.185546875 117.736328125 c 0,27,28
 158.94921875 102.430664062 158.94921875 102.430664062 158.83203125 99.0185546875 c 0,29,30
 159.204101562 98 159.204101562 98 165.17578125 93.8642578125 c 0,31,32
 169.204101562 90 169.204101562 90 171.853515625 85.7255859375 c 0,33,34
 182.204101562 75 182.204101562 75 185.876953125 71.619140625 c 0,35,36
 202.204101562 58 202.204101562 58 204.57421875 44.490234375 c 0,37,38
 208.204101562 17 208.204101562 17 182.204101562 0 c 1,39,-1
 132.788085938 0 l 1,40,41
 129.204101562 2 129.204101562 2 117.095703125 14.6494140625 c 0,42,43
 110.204101562 21 110.204101562 21 104.408203125 27.1279296875 c 0,44,45
 98.2041015625 34 98.2041015625 34 91.0517578125 40.6923828125 c 0,46,47
 79.2041015625 53 79.2041015625 53 78.3642578125 53.171875 c 0,48,49
 59.9111328125 65.8291015625 59.9111328125 65.8291015625 57.6630859375 85.7255859375 c 0,50,51
 55.69921875 91.8740234375 55.69921875 91.8740234375 55.994140625 97.390625 c 0,52,53
 56.0751953125 101.865234375 56.0751953125 101.865234375 58.9990234375 113.396484375 c 0,54,55
 61.2041015625 121 61.2041015625 121 63.6728515625 130.215820312 c 0,56,57
 68.2041015625 142 68.2041015625 142 69.015625 143.237304688 c 0,58,59
 121.204101562 206 121.204101562 206 132.454101562 221.366210938 c 0,60,61
 142.204101562 234 142.204101562 234 143.138671875 236.55859375 c 0,62,63
 144.204101562 238 144.204101562 238 153.155273438 251.208007812 c 0,64,65
 158.204101562 258 158.204101562 258 163.171875 265.857421875 c 0,66,67
 176.204101562 286 176.204101562 286 177.1953125 287.559570312 c 0,68,69
 181.204101562 293 181.204101562 293 187.545898438 297.0546875 c 1,70,71
 145.204101562 350 145.204101562 350 103.072265625 402.041015625 c 1,72,73
 99.4072265625 410.022460938 99.4072265625 410.022460938 85.7099609375 430.25390625 c 0,74,75
 84.2041015625 433 84.2041015625 433 83.0390625 436.22265625 c 0,76,77
 78.2041015625 443 78.2041015625 443 73.0224609375 449.244140625 c 0,78,79
 68.2041015625 456 68.2041015625 456 63.005859375 462.265625 c 0,80,81
 50.2041015625 477 50.2041015625 477 49.9833984375 488.580078125 c 0,82,83
 50.2041015625 499 50.2041015625 499 49.9833984375 500.788085938 c 0,84,85
 51.2041015625 518 51.2041015625 518 70.3505859375 532.798828125 c 0,86,87
 77.2041015625 538 77.2041015625 538 83.70703125 544.735351562 c 0,88,89
 92.2041015625 552 92.2041015625 552 99.7333984375 559.927734375 c 0,90,91
 105.19921875 562.78515625 105.19921875 562.78515625 109.08203125 566.98046875 c 0,92,93
 121.584960938 580.493164062 121.584960938 580.493164062 132.120117188 582.986328125 c 0,94,95
 170.204101562 592 170.204101562 592 191.21875 565.895507812 c 1,96,97
 210.122070312 529.9375 210.122070312 529.9375 177.1953125 515.436523438 c 0,98,99
 176.204101562 515 176.204101562 515 174.858398438 512.723632812 c 0,100,101
 173.204101562 511 173.204101562 511 172.521484375 510.01171875 c 0,102,103
 163.725585938 498.51171875 163.725585938 498.51171875 150.818359375 491.834960938 c 0,104,105
 149.204101562 491 149.204101562 491 152.48828125 488.8515625 c 0,106,107
 158.204101562 482 158.204101562 482 162.504882812 475.830078125 c 0,108,109
 168.204101562 469 168.204101562 469 173.189453125 462.265625 c 0,110,111
 179.204101562 455 179.204101562 455 183.206054688 449.244140625 c 0,112,113
 189.204101562 442 189.204101562 442 193.22265625 436.22265625 c 0,114,115
 199.204101562 429 199.204101562 429 203.239257812 423.201171875 c 0,116,117
 209.204101562 415 209.204101562 415 214.704101562 408.5 c 128,-1,118
 220.204101562 402 220.204101562 402 224.608398438 395.530273438 c 0,119,120
 234.204101562 384 234.204101562 384 234.625 382.508789062 c 0,121,122
 241.204101562 374 241.204101562 374 246.978515625 364.603515625 c 1,123,124
 274.204101562 397 274.204101562 397 275.359375 399.328125 c 0,125,126
 280.204101562 405 280.204101562 405 284.708007812 411.264648438 c 0,127,128
 293.204101562 423 293.204101562 423 294.724609375 424.286132812 c 0,129,130
 299.204101562 430 299.204101562 430 304.741210938 437.307617188 c 0,131,132
 314.204101562 450 314.204101562 450 314.7578125 450.872070312 c 0,133,134
 320.204101562 458 320.204101562 458 324.775390625 463.893554688 c 0,135,136
 335.204101562 477 335.204101562 477 334.791992188 476.915039062 c 0,137,138
 346.143554688 491.775390625 346.143554688 491.775390625 346.143554688 492.106445312 c 0,139,140
 346.204101562 493 346.204101562 493 346.143554688 494.27734375 c 0,141,142
 346.204101562 497 346.204101562 497 325.442382812 511.638671875 c 0,143,144
 318.204101562 517 318.204101562 517 318.204101562 517 c 0,145,146
 295.204101562 534 295.204101562 534 302.73828125 558.841796875 c 0,147,148
 310.204101562 582 310.204101562 582 339.799804688 586.784179688 c 0,149,150
 367.204101562 591 367.204101562 591 388.213867188 568.608398438 c 0,151,152
 394.204101562 562 394.204101562 562 400.234375 557.756835938 c 0,153,154
 400.204101562 558 400.204101562 558 413.58984375 545.8203125 c 0,155,156
 426.204101562 535 426.204101562 535 426.27734375 534.426757812 c 0,157,158
 447.204101562 521 447.204101562 521 446.64453125 502.415039062 c 128,-1,159
 446.204101562 484 446.204101562 484 445.643554688 483.42578125 c 0,160,161
 444.204101562 476 444.204101562 476 433.623046875 463.893554688 c 0,162,163
 428.204101562 458 428.204101562 458 423.606445312 450.872070312 c 0,164,165
 418.681640625 445.309570312 418.681640625 445.309570312 413.58984375 437.850585938 c 0,166,167
 400.204101562 418 400.204101562 418 398.23046875 416.147460938 c 0,168,169
 394.204101562 414 394.204101562 414 392.888671875 410.721679688 c 0,170,171
 393.713867188 408.719726562 393.713867188 408.719726562 383.540039062 398.243164062 c 0,172,173
 376.489257812 387.439453125 376.489257812 387.439453125 372.1875 383.59375 c 0,174,175
 367.204101562 379 367.204101562 379 364.173828125 372.7421875 c 0,176,177
 362.204101562 369 362.204101562 369 359.5 364.603515625 c 0,178,179
 356.204101562 358 356.204101562 358 351.486328125 351.58203125 c 0,180,181
 330.204101562 322 330.204101562 322 306.411132812 294.883789062 c 1,182,183
 316.204101562 285 316.204101562 285 325.776367188 275.081054688 c 1,184,185
 336.204101562 269 336.204101562 269 345.4765625 253.920898438 c 0,186,187
 350.204101562 246 350.204101562 246 356.16015625 239.271484375 c 0,188,189
 360.204101562 233 360.204101562 233 365.509765625 226.25 c 0,190,191
 375.204101562 213 375.204101562 213 376.194335938 211.600585938 c 0,192,193
 381.204101562 207 381.204101562 207 382.204101562 205.08984375 c 0,194,195
 385.204101562 199 385.204101562 199 390.217773438 193.696289062 c 0,196,197
 400.204101562 181 400.204101562 181 401.569335938 177.961914062 c 0,198,199
 406.204101562 172 406.204101562 172 410.918945312 164.939453125 c 0,200,201
 423.204101562 145 423.204101562 145 426.27734375 142.15234375 c 0,202,203
 432.204101562 134 432.204101562 134 436.961914062 127.502929688 c 0,204,205
 448.204101562 112 448.204101562 112 448.982421875 106.342773438 c 0,206,207
 450.204101562 96 450.204101562 96 449.983398438 86.267578125 c 0,208,209
 449.204101562 69 449.204101562 69 429.616210938 52.62890625 c 0,210,211
 418.204101562 43 418.204101562 43 416.928710938 40.6923828125 c 0,212,213
 415.204101562 38 415.204101562 38 412.25390625 34.724609375 c 0,214,215
 392.204101562 17 392.204101562 17 391.552734375 16.27734375 c 0,216,217
 381.204101562 4 381.204101562 4 370.517578125 0 c 1,0,-1
EndSplineSet
Validated: 524321
EndChar

StartChar: Y
Encoding: 89 89 27
Width: 500
GlyphClass: 1
Flags: W
LayerCount: 2
Fore
SplineSet
406.916992188 579 m 0,0,1
 431.916992188 581 431.916992188 581 443.916992188 562 c 0,2,3
 448.916992188 554 448.916992188 554 449.916992188 545 c 0,4,5
 450.916992188 537 450.916992188 537 449.916992188 530 c 0,6,7
 447.916992188 522 447.916992188 522 447.916992188 522 c 0,8,9
 366.916992188 384 366.916992188 384 286.916992188 246 c 1,10,11
 286.916992188 234 286.916992188 234 284.916992188 0 c 1,12,13
 284.916992188 0 284.916992188 0 207.916992188 0 c 1,14,15
 208.916992188 122 208.916992188 122 208.916992188 245 c 1,16,17
 78.9169921875 469 78.9169921875 469 50.9169921875 524 c 0,18,19
 48.9169921875 528 48.9169921875 528 49.9169921875 533 c 0,20,21
 49.9169921875 541 49.9169921875 541 52.9169921875 549 c 0,22,23
 60.9169921875 579 60.9169921875 579 86.9169921875 579.200195312 c 0,24,25
 99.9169921875 579 99.9169921875 579 115.916992188 557 c 0,26,27
 120.916992188 550 120.916992188 550 124.916992188 542 c 0,28,29
 126.916992188 538 126.916992188 538 129.916992188 535 c 0,30,31
 188.916992188 428 188.916992188 428 249.916992188 322 c 1,32,33
 270.916992188 370 270.916992188 370 381.916992188 555 c 0,34,35
 390.916992188 570 390.916992188 570 391.916992188 570 c 0,36,37
 391.916992188 570 391.916992188 570 397.916992188 576 c 0,38,39
 400.916992188 579 400.916992188 579 406.916992188 579 c 0,0,1
EndSplineSet
Validated: 524321
EndChar

StartChar: Z
Encoding: 90 90 28
Width: 500
GlyphClass: 1
Flags: W
LayerCount: 2
Fore
SplineSet
446.75 0 m 1,0,1
 446.75 0 446.75 0 73.6669921875 0 c 1,2,3
 73.75 28 73.75 28 73.6669921875 60 c 0,4,5
 73.6669921875 64.1435546875 73.6669921875 64.1435546875 74.6669921875 69 c 0,6,7
 74.75 70 74.75 70 75.6669921875 71 c 0,8,9
 213.75 290 213.75 290 352.75 509.200195312 c 1,10,11
 352.75 509.200195312 352.75 509.200195312 351.75 509.200195312 c 2,12,-1
 350.75 509.200195312 l 1,13,-1
 349.75 509.200195312 l 1,14,-1
 348.75 509.200195312 l 1,15,-1
 347.75 509.200195312 l 1,16,-1
 346.75 509.200195312 l 1,17,-1
 345.75 509.200195312 l 1,18,-1
 344.75 509.200195312 l 1,19,-1
 343.75 509.200195312 l 1,20,-1
 342.75 509.200195312 l 1,21,-1
 341.75 509.200195312 l 1,22,-1
 340.75 509.200195312 l 1,23,-1
 339.75 509.200195312 l 1,24,-1
 338.75 509.200195312 l 1,25,-1
 337.75 509.200195312 l 1,26,-1
 336.75 509.200195312 l 1,27,-1
 335.75 509.200195312 l 1,28,-1
 334.75 509.200195312 l 1,29,-1
 333.75 509.200195312 l 1,30,-1
 332.75 509.200195312 l 1,31,-1
 331.75 509.200195312 l 1,32,-1
 330.75 509.200195312 l 1,33,-1
 329.75 509.200195312 l 1,34,-1
 328.75 509.200195312 l 1,35,-1
 327.75 509.200195312 l 1,36,-1
 326.75 509.200195312 l 1,37,-1
 325.75 509.200195312 l 1,38,-1
 324.75 509.200195312 l 1,39,-1
 323.75 509.200195312 l 1,40,-1
 322.75 509.200195312 l 1,41,-1
 321.75 509.200195312 l 1,42,-1
 320.75 509.200195312 l 1,43,-1
 319.75 509.200195312 l 1,44,-1
 318.75 509.200195312 l 1,45,-1
 317.75 509.200195312 l 1,46,-1
 316.75 509.200195312 l 1,47,-1
 315.75 509.200195312 l 1,48,-1
 314.75 509.200195312 l 1,49,-1
 313.75 509.200195312 l 1,50,-1
 312.75 509.200195312 l 1,51,-1
 311.75 509.200195312 l 1,52,-1
 310.75 509.200195312 l 1,53,-1
 309.75 509.200195312 l 1,54,-1
 308.75 509.200195312 l 1,55,-1
 307.75 509.200195312 l 1,56,-1
 306.75 509.200195312 l 1,57,-1
 305.75 509.200195312 l 1,58,-1
 304.75 509.200195312 l 1,59,-1
 303.75 509.200195312 l 1,60,-1
 302.75 509.200195312 l 1,61,-1
 301.75 509.200195312 l 1,62,-1
 300.75 509.200195312 l 1,63,-1
 299.75 509.200195312 l 1,64,-1
 298.75 509.200195312 l 1,65,-1
 297.75 509.200195312 l 1,66,-1
 296.75 509.200195312 l 1,67,-1
 295.75 509.200195312 l 1,68,-1
 294.75 509.200195312 l 1,69,-1
 293.75 509.200195312 l 1,70,-1
 292.75 509.200195312 l 1,71,-1
 291.75 509.200195312 l 1,72,-1
 290.75 509.200195312 l 1,73,-1
 289.75 509.200195312 l 1,74,-1
 288.75 509.200195312 l 1,75,-1
 287.75 509.200195312 l 1,76,-1
 286.75 509.200195312 l 1,77,-1
 285.75 509.200195312 l 1,78,-1
 284.75 509.200195312 l 1,79,-1
 283.75 509.200195312 l 1,80,-1
 282.75 509.200195312 l 1,81,-1
 281.75 509.200195312 l 1,82,-1
 280.75 509.200195312 l 1,83,-1
 279.75 509.200195312 l 1,84,-1
 278.75 509.200195312 l 1,85,-1
 277.75 509.200195312 l 1,86,-1
 276.75 509.200195312 l 1,87,-1
 275.75 509.200195312 l 1,88,-1
 274.75 509.200195312 l 1,89,-1
 273.75 509.200195312 l 1,90,-1
 272.75 509.200195312 l 1,91,-1
 271.75 509.200195312 l 1,92,-1
 270.75 509.200195312 l 1,93,-1
 269.75 509.200195312 l 1,94,-1
 268.75 509.200195312 l 1,95,-1
 267.75 509.200195312 l 1,96,-1
 266.75 509.200195312 l 1,97,-1
 265.75 509.200195312 l 1,98,-1
 264.75 509.200195312 l 1,99,-1
 263.75 509.200195312 l 1,100,-1
 262.75 509.200195312 l 1,101,-1
 261.75 509.200195312 l 1,102,-1
 260.75 509.200195312 l 1,103,-1
 259.75 509.200195312 l 1,104,-1
 258.75 509.200195312 l 1,105,-1
 257.75 509.200195312 l 1,106,-1
 256.75 509.200195312 l 1,107,-1
 255.75 509.200195312 l 1,108,-1
 254.75 509.200195312 l 1,109,-1
 253.75 509.200195312 l 1,110,-1
 252.75 509.200195312 l 1,111,-1
 251.75 509.200195312 l 1,112,-1
 250.75 509.200195312 l 1,113,-1
 249.75 509.200195312 l 1,114,-1
 248.75 509.200195312 l 1,115,-1
 247.75 509.200195312 l 1,116,-1
 246.75 509.200195312 l 1,117,-1
 245.75 509.200195312 l 1,118,-1
 244.75 509.200195312 l 1,119,-1
 243.75 509.200195312 l 1,120,-1
 242.75 509.200195312 l 1,121,-1
 241.75 509.200195312 l 1,122,-1
 240.75 509.200195312 l 1,123,-1
 239.75 509.200195312 l 1,124,-1
 238.75 509.200195312 l 1,125,-1
 237.75 509.200195312 l 1,126,-1
 236.75 509.200195312 l 1,127,-1
 235.75 509.200195312 l 1,128,-1
 234.75 509.200195312 l 1,129,-1
 233.75 509.200195312 l 1,130,-1
 232.75 509.200195312 l 1,131,-1
 231.75 509.200195312 l 1,132,-1
 230.75 509.200195312 l 1,133,-1
 228.75 509.200195312 l 1,134,-1
 227.75 509.200195312 l 1,135,-1
 226.75 509.200195312 l 1,136,-1
 225.75 509.200195312 l 1,137,-1
 224.75 509.200195312 l 1,138,-1
 223.75 509.200195312 l 1,139,-1
 222.75 509.200195312 l 1,140,-1
 221.75 509.200195312 l 1,141,-1
 220.75 509.200195312 l 1,142,-1
 219.75 509.200195312 l 1,143,-1
 218.75 509.200195312 l 1,144,-1
 217.75 509.200195312 l 1,145,-1
 216.75 509.200195312 l 1,146,-1
 215.75 509.200195312 l 1,147,-1
 214.75 509.200195312 l 1,148,-1
 213.75 509.200195312 l 1,149,-1
 212.75 509.200195312 l 1,150,-1
 211.75 509.200195312 l 1,151,-1
 210.75 509.200195312 l 1,152,-1
 209.75 509.200195312 l 1,153,-1
 208.75 509.200195312 l 1,154,-1
 207.75 509.200195312 l 1,155,-1
 206.75 509.200195312 l 1,156,-1
 205.75 509.200195312 l 1,157,-1
 204.75 509.200195312 l 1,158,-1
 203.75 509.200195312 l 1,159,-1
 202.75 509.200195312 l 1,160,-1
 201.75 509.200195312 l 1,161,-1
 200.75 509.200195312 l 1,162,-1
 199.75 509.200195312 l 1,163,-1
 198.75 509.200195312 l 1,164,-1
 197.75 509.200195312 l 1,165,-1
 196.75 509.200195312 l 1,166,-1
 195.75 509.200195312 l 1,167,-1
 194.75 509.200195312 l 1,168,-1
 193.75 509.200195312 l 1,169,-1
 192.75 509.200195312 l 1,170,-1
 191.75 509.200195312 l 1,171,-1
 190.75 509.200195312 l 1,172,-1
 189.75 509.200195312 l 1,173,-1
 188.75 509.200195312 l 1,174,-1
 187.75 509.200195312 l 1,175,-1
 186.75 509.200195312 l 1,176,-1
 185.75 509.200195312 l 1,177,-1
 184.75 509.200195312 l 1,178,-1
 183.75 509.200195312 l 1,179,-1
 182.75 509.200195312 l 1,180,-1
 181.75 509.200195312 l 1,181,-1
 180.75 509.200195312 l 1,182,-1
 179.75 509.200195312 l 1,183,-1
 178.75 509.200195312 l 1,184,-1
 177.75 509.200195312 l 1,185,-1
 176.75 509.200195312 l 1,186,-1
 175.75 509.200195312 l 1,187,-1
 174.75 509.200195312 l 1,188,-1
 173.75 509.200195312 l 1,189,-1
 172.75 509.200195312 l 1,190,-1
 171.75 509.200195312 l 1,191,-1
 170.75 509.200195312 l 1,192,-1
 169.75 509.200195312 l 1,193,-1
 168.75 509.200195312 l 1,194,-1
 167.75 509.200195312 l 1,195,-1
 166.75 509.200195312 l 1,196,-1
 165.75 509.200195312 l 1,197,-1
 164.75 509.200195312 l 1,198,-1
 163.75 509.200195312 l 1,199,-1
 162.75 509.200195312 l 1,200,-1
 161.75 509.200195312 l 1,201,-1
 160.75 509.200195312 l 1,202,-1
 159.75 509.200195312 l 1,203,-1
 158.75 509.200195312 l 1,204,-1
 157.75 509.200195312 l 1,205,-1
 156.75 509.200195312 l 1,206,-1
 155.75 509.200195312 l 1,207,-1
 154.75 509.200195312 l 1,208,-1
 153.75 509.200195312 l 1,209,-1
 152.75 509.200195312 l 1,210,-1
 151.75 509.200195312 l 1,211,-1
 150.75 509.200195312 l 1,212,-1
 149.75 509.200195312 l 1,213,-1
 148.75 509.200195312 l 1,214,-1
 147.75 509.200195312 l 1,215,-1
 146.75 509.200195312 l 1,216,-1
 145.75 509.200195312 l 1,217,-1
 144.75 509.200195312 l 1,218,-1
 143.75 509.200195312 l 1,219,-1
 142.75 509.200195312 l 1,220,-1
 141.75 509.200195312 l 1,221,-1
 140.75 509.200195312 l 1,222,-1
 139.75 509.200195312 l 1,223,-1
 138.75 509.200195312 l 1,224,-1
 137.75 509.200195312 l 1,225,-1
 136.75 509.200195312 l 1,226,-1
 135.75 509.200195312 l 1,227,-1
 134.75 509.200195312 l 1,228,-1
 133.75 509.200195312 l 1,229,-1
 132.75 509.200195312 l 1,230,-1
 131.75 509.200195312 l 1,231,-1
 130.75 509.200195312 l 1,232,-1
 129.75 509.200195312 l 1,233,-1
 128.75 509.200195312 l 1,234,-1
 127.75 509.200195312 l 1,235,-1
 126.75 509.200195312 l 1,236,-1
 125.75 509.200195312 l 1,237,-1
 124.75 509.200195312 l 1,238,-1
 123.75 509.200195312 l 1,239,-1
 122.75 509.200195312 l 1,240,-1
 121.75 509.200195312 l 1,241,-1
 120.75 509.200195312 l 1,242,-1
 119.75 509.200195312 l 1,243,-1
 118.75 509.200195312 l 1,244,-1
 117.75 509.200195312 l 1,245,-1
 116.75 509.200195312 l 1,246,-1
 115.75 509.200195312 l 1,247,-1
 114.75 509.200195312 l 1,248,-1
 113.75 509.200195312 l 1,249,-1
 112.75 509.200195312 l 1,250,-1
 111.75 509.200195312 l 1,251,-1
 110.75 509.200195312 l 1,252,-1
 109.75 509.200195312 l 1,253,-1
 108.75 509.200195312 l 1,254,-1
 107.75 509.200195312 l 1,255,-1
 106.75 509.200195312 l 1,256,-1
 105.75 509.200195312 l 2,257,258
 102.75 510 102.75 510 88.75 510.200195312 c 0,259,260
 82.75 510 82.75 510 77.75 512.200195312 c 0,261,262
 51.75 520 51.75 520 49.75 545.200195312 c 1,263,264
 52.75 574 52.75 574 84.75 579.200195312 c 1,265,266
 124.75 579 124.75 579 430.75 579.200195312 c 0,267,268
 434.75 579 434.75 579 438.75 576.200195312 c 0,269,270
 448.75 571 448.75 571 449.75 563.200195312 c 0,271,272
 450.75 540 450.75 540 449.75 518.200195312 c 0,273,274
 449.75 508 449.75 508 445.75 503.200195312 c 0,275,276
 306.75 286 306.75 286 168.666992188 69 c 1,277,278
 168.75 69 168.75 69 438.666992188 69 c 0,279,280
 446.75 69 446.75 69 446.75 65 c 0,281,282
 446.75 32 446.75 32 446.75 0 c 1,0,1
EndSplineSet
Validated: 524321
EndChar

StartChar: a
Encoding: 97 97 35
Width: 500
GlyphClass: 1
Flags: W
LayerCount: 2
Fore
SplineSet
491.958984375 54.81640625 m 1,0,-1
 491.958984375 37.6513671875 l 1,1,2
 482.927734375 3 482.927734375 3 445.927734375 0 c 1,3,4
 405.927734375 2 405.927734375 2 401.962890625 30.453125 c 0,5,6
 399.927734375 44 399.927734375 44 398.716796875 47.064453125 c 0,7,8
 394.927734375 53 394.927734375 53 392.225585938 60.6298828125 c 0,9,10
 377.927734375 105 377.927734375 105 377.471679688 105.479492188 c 0,11,12
 375.927734375 105 375.927734375 105 368.915039062 106.310546875 c 0,13,14
 347.927734375 111 347.927734375 111 333.80078125 106.310546875 c 0,15,16
 328.927734375 105 328.927734375 105 324.94921875 105.203125 c 0,17,18
 312.927734375 104 312.927734375 104 307.245117188 105.203125 c 0,19,20
 302.927734375 106 302.927734375 106 298.6875 106.310546875 c 0,21,22
 287.927734375 108 287.927734375 108 281.57421875 106.310546875 c 0,23,24
 276.927734375 105 276.927734375 105 272.721679688 105.203125 c 0,25,26
 235.927734375 107 235.927734375 107 160.299804688 105.203125 c 0,27,28
 142.927734375 105 142.927734375 105 142.595703125 105.203125 c 0,29,30
 141.927734375 106 141.927734375 106 141.415039062 105.756835938 c 0,31,32
 132.927734375 104 132.927734375 104 123.7109375 105.756835938 c 1,33,34
 114.927734375 104 114.927734375 104 106.301757812 105.756835938 c 1,35,36
 97.927734375 80 97.927734375 80 74.7294921875 71.7041015625 c 0,37,38
 40.927734375 60 40.927734375 60 19.5517578125 84.7158203125 c 0,39,40
 8.0439453125 97.8671875 8.0439453125 97.8671875 8.0439453125 106.864257812 c 2,41,-1
 8.0439453125 125.135742188 l 2,42,43
 7.927734375 127 7.927734375 127 11.8798828125 135.65625 c 0,44,45
 16.927734375 145 16.927734375 145 17.78125 147.284179688 c 0,46,47
 17.927734375 148 17.927734375 148 26.04296875 168.877929688 c 0,48,49
 67.927734375 279 67.927734375 279 109.252929688 388.143554688 c 0,50,51
 128.927734375 439 128.927734375 439 145.142578125 473.763671875 c 0,52,53
 168.927734375 527 168.927734375 527 181.365234375 563.444335938 c 0,54,55
 185.927734375 579 185.927734375 579 194.209960938 579.200195312 c 0,56,57
 223.927734375 580 223.927734375 580 288.927734375 579.200195312 c 1,58,-1
 300.927734375 579.200195312 l 1,59,60
 371.927734375 379 371.927734375 379 384.190429688 346.901367188 c 0,61,62
 458.927734375 162 458.927734375 162 468.6484375 122.920898438 c 0,63,64
 469.927734375 118 469.927734375 118 471.008789062 114.0625 c 0,65,66
 481.927734375 85 481.927734375 85 491.958984375 54.81640625 c 1,0,-1
262.39453125 491.750976562 m 0,67,68
 258.102539062 504.708007812 258.102539062 504.708007812 253.247070312 517.56640625 c 1,69,70
 245.280273438 518.598632812 245.280273438 518.598632812 237.313476562 517.56640625 c 1,71,72
 203.885742188 429.075195312 203.885742188 429.075195312 170.922851562 341.508789062 c 1,73,74
 170.922851562 341.508789062 170.922851562 341.508789062 170.922851562 339.959960938 c 1,75,76
 242.334960938 339.641601562 242.334960938 339.641601562 314.326171875 339.443359375 c 0,77,78
 314.471679688 341.270507812 314.471679688 341.270507812 314.03125 343.057617188 c 0,79,80
 304.873046875 368.6796875 304.873046875 368.6796875 296.032226562 394.170898438 c 0,81,82
 294.1640625 397.270507812 294.1640625 397.270507812 293.671875 400.8828125 c 0,83,84
 279.708984375 443.203125 279.708984375 443.203125 264.754882812 485.0390625 c 0,85,86
 262.88671875 488.138671875 262.88671875 488.138671875 262.39453125 491.750976562 c 0,67,68
139.888671875 267.288085938 m 1,87,88
 133.805664062 228.329101562 133.805664062 228.329101562 128.0859375 189.18359375 c 1,89,90
 212.302734375 190.076171875 212.302734375 190.076171875 297.161132812 189.18359375 c 0,91,92
 301.466796875 190.241210938 301.466796875 190.241210938 305.717773438 191.624023438 c 0,93,94
 309.96875 190.241210938 309.96875 190.241210938 314.275390625 189.18359375 c 0,95,96
 323.282226562 193.920898438 323.282226562 193.920898438 332.274414062 189.18359375 c 1,97,98
 340.725585938 194.025390625 340.725585938 194.025390625 349.092773438 189.18359375 c 1,99,100
 346.318359375 212.219726562 346.318359375 212.219726562 343.19140625 237.999023438 c 0,101,102
 341.034179688 251.255859375 341.034179688 251.255859375 338.765625 264.237304688 c 1,103,104
 239.282226562 266.77734375 239.282226562 266.77734375 139.888671875 267.288085938 c 1,87,88
EndSplineSet
Validated: 524321
EndChar

StartChar: b
Encoding: 98 98 36
Width: 500
GlyphClass: 1
Flags: W
LayerCount: 2
Fore
SplineSet
183.1171875 0 m 2,0,1
 183.1171875 0 183.1171875 0 155.1171875 0 c 0,2,3
 98.1171875 1 98.1171875 1 40.1171875 6 c 1,4,5
 40.1171875 236 40.1171875 236 41.1171875 466 c 0,6,7
 43.1171875 469 43.1171875 469 44.1171875 472 c 0,8,9
 47.1171875 474 47.1171875 474 50.1171875 478 c 0,10,11
 77.1171875 499 77.1171875 499 108.1171875 484 c 0,12,13
 121.1171875 477 121.1171875 477 128.1171875 465 c 0,14,15
 129.1171875 462 129.1171875 462 129.1171875 459 c 0,16,17
 129.1171875 451 129.1171875 451 129.1171875 443 c 0,18,19
 128.1171875 390 128.1171875 390 128.1171875 338 c 1,20,21
 139.1171875 337 139.1171875 337 149.1171875 337 c 0,22,23
 179.1171875 336 179.1171875 336 208.1171875 337 c 0,24,25
 255.1171875 338 255.1171875 338 299.1171875 351 c 0,26,27
 320.1171875 358 320.1171875 358 336.1171875 370 c 0,28,29
 356.1171875 384 356.1171875 384 360.1171875 407 c 0,30,31
 366.1171875 438 366.1171875 438 345.1171875 464 c 0,32,33
 321.1171875 491 321.1171875 491 282.1171875 500 c 1,34,35
 241.1171875 504 241.1171875 504 237.1171875 540 c 1,36,37
 241.1171875 573 241.1171875 573 278.1171875 578 c 1,38,39
 299.1171875 575 299.1171875 575 320.1171875 571 c 0,40,41
 377.1171875 558 377.1171875 558 417.1171875 522 c 0,42,43
 463.1171875 476 463.1171875 476 456.1171875 415 c 0,44,45
 446.1171875 319 446.1171875 319 343.1171875 292 c 1,46,47
 379.1171875 284 379.1171875 284 409.1171875 263 c 0,48,49
 466.1171875 217 466.1171875 217 459.1171875 149 c 0,50,51
 452.1171875 89 452.1171875 89 402.1171875 49 c 1,52,53
 350.1171875 13 350.1171875 13 284.1171875 6 c 0,54,55
 234.1171875 0 234.1171875 0 183.1171875 0 c 2,0,1
160.1171875 249 m 0,56,57
 145.1171875 248 145.1171875 248 130.1171875 247 c 1,58,59
 130.1171875 162 130.1171875 162 129.1171875 78 c 1,60,61
 174.1171875 72 174.1171875 72 220.1171875 74 c 0,62,63
 254.1171875 75 254.1171875 75 286.1171875 83 c 0,64,65
 313.1171875 89 313.1171875 89 335.1171875 103 c 0,66,67
 360.1171875 121 360.1171875 121 364.1171875 150 c 0,68,69
 367.1171875 174 367.1171875 174 354.1171875 196 c 0,70,71
 333.1171875 224 333.1171875 224 296.1171875 235 c 0,72,73
 254.1171875 247 254.1171875 247 211.1171875 248 c 0,74,75
 185.1171875 249 185.1171875 249 160.1171875 249 c 0,56,57
EndSplineSet
Validated: 524321
EndChar

StartChar: c
Encoding: 99 99 37
Width: 500
GlyphClass: 1
Flags: W
LayerCount: 2
Fore
SplineSet
325.077148438 489.381835938 m 0,0,1
 317.53515625 489.9296875 317.53515625 489.9296875 309.676757812 489.9296875 c 0,2,3
 299.06640625 490.108398438 299.06640625 490.108398438 288.83984375 488.833984375 c 0,4,5
 252.08984375 484.881835938 252.08984375 484.881835938 217.573242188 472.666992188 c 0,6,7
 196.578125 463.34765625 196.578125 463.34765625 179.524414062 449.102539062 c 0,8,9
 162.685546875 434.374023438 162.685546875 434.374023438 148.419921875 417.590820312 c 0,10,11
 139.958984375 406.626953125 139.958984375 406.626953125 133.321289062 394.57421875 c 0,12,13
 111.834960938 350.04296875 111.834960938 350.04296875 108.559570312 301.411132812 c 0,14,15
 106.327148438 261.205078125 106.327148438 261.205078125 112.787109375 221.400390625 c 0,16,17
 123.712890625 174.70703125 123.712890625 174.70703125 159.291015625 140.29296875 c 0,18,19
 218.197265625 85.15234375 218.197265625 85.15234375 303.334960938 80.8330078125 c 1,20,21
 337.060546875 72.431640625 337.060546875 72.431640625 339.572265625 40.8271484375 c 0,22,23
 338.74609375 18.763671875 338.74609375 18.763671875 319.038085938 6.3017578125 c 0,24,25
 313.848632812 3.671875 313.848632812 3.671875 308.166992188 1.91796875 c 0,26,27
 294.39453125 0.4375 294.39453125 0.4375 280.384765625 0 c 0,28,29
 254.11328125 2.544921875 254.11328125 2.544921875 228.444335938 7.671875 c 0,30,31
 226.32421875 8.939453125 226.32421875 8.939453125 223.61328125 8.7685546875 c 0,32,33
 155.541992188 24.025390625 155.541992188 24.025390625 103.42578125 66.0361328125 c 0,34,35
 85.0732421875 82.271484375 85.0732421875 82.271484375 69.90625 100.8359375 c 0,36,37
 27.45703125 158.27734375 27.45703125 158.27734375 18.5693359375 227.428710938 c 0,38,39
 12.970703125 270.647460938 12.970703125 270.647460938 16.1533203125 314.015625 c 0,40,41
 18.7314453125 336.565429688 18.7314453125 336.565429688 22.193359375 358.953125 c 0,42,43
 26.9052734375 379.619140625 26.9052734375 379.619140625 32.4609375 400.0546875 c 0,44,45
 71.392578125 513.1953125 71.392578125 513.1953125 193.415039062 554.870117188 c 0,46,47
 272.962890625 578.92578125 272.962890625 578.92578125 355.275390625 564.734375 c 0,48,49
 415.014648438 554.940429688 415.014648438 554.940429688 465.1953125 524.455078125 c 0,50,51
 472.40234375 519.423828125 472.40234375 519.423828125 478.180664062 512.946289062 c 0,52,53
 491.510742188 492.826171875 491.510742188 492.826171875 478.784179688 472.393554688 c 0,54,55
 469.87109375 460.739257812 469.87109375 460.739257812 454.32421875 458.418945312 c 0,56,57
 438.5390625 454.176757812 438.5390625 454.176757812 425.333984375 462.802734375 c 0,58,59
 404.806640625 471.430664062 404.806640625 471.430664062 383.661132812 478.6953125 c 0,60,61
 366.073242188 483.466796875 366.073242188 483.466796875 348.028320312 486.916015625 c 0,62,63
 336.6484375 488.959960938 336.6484375 488.959960938 325.077148438 489.381835938 c 0,0,1
EndSplineSet
Validated: 524321
EndChar

StartChar: d
Encoding: 100 100 38
Width: 500
GlyphClass: 1
Flags: W
LayerCount: 2
Fore
SplineSet
147 0 m 2,0,1
 147 0 147 0 142 0 c 0,2,3
 97 0 97 0 53 12 c 1,4,5
 52 17 52 17 52 22 c 0,6,7
 52 23 52 23 52 25 c 128,-1,8
 52 27 52 27 52 28 c 0,9,10
 51 282 51 282 50 535 c 1,11,12
 73 541 73 541 95 546 c 0,13,14
 108 548 108 548 120 549 c 0,15,16
 153 551 153 551 185 549 c 0,17,18
 223 546 223 546 259 537 c 0,19,20
 329 519 329 519 377 465 c 0,21,22
 447 383 447 383 450 273 c 1,23,24
 448 161 448 161 373 77 c 0,25,26
 324 26 324 26 254 11 c 0,27,28
 201 0 201 0 147 0 c 2,0,1
168 470 m 0,29,30
 147 467 147 467 127 460 c 1,31,32
 127 393 127 393 128 326 c 1,33,34
 136 328 136 328 144 326 c 0,35,36
 148 327 148 327 152 327 c 0,37,38
 180 327 180 327 207 327 c 0,39,40
 215 329 215 329 223 327 c 0,41,42
 227 328 227 328 231 328 c 0,43,44
 243 328 243 328 255 327 c 0,45,46
 283 319 283 319 286 289 c 1,47,48
 282 253 282 253 247 250 c 0,49,50
 235 250 235 250 223 250 c 0,51,52
 215 249 215 249 208 250 c 0,53,54
 200 248 200 248 192 250 c 0,55,56
 188 249 188 249 184 249 c 0,57,58
 156 250 156 250 128 249 c 1,59,60
 127 186 127 186 128 122 c 0,61,62
 128 104 128 104 129 86 c 1,63,64
 134 84 134 84 139 83 c 0,65,66
 177 79 177 79 215 83 c 0,67,68
 250 86 250 86 282 103 c 0,69,70
 320 127 320 127 343 166 c 0,71,72
 381 236 381 236 367 315 c 0,73,74
 355 378 355 378 310 423 c 0,75,76
 284 448 284 448 249 459 c 0,77,78
 209 470 209 470 168 470 c 0,29,30
EndSplineSet
Validated: 33
EndChar

StartChar: e
Encoding: 101 101 39
Width: 500
GlyphClass: 1
Flags: W
LayerCount: 2
Fore
SplineSet
90.7275390625 580.200195312 m 0,0,1
 249.727539062 579 249.727539062 579 408.727539062 579.200195312 c 1,2,3
 442.727539062 573 442.727539062 573 446.727539062 545.200195312 c 0,4,5
 450.727539062 520 450.727539062 520 424.727539062 507.200195312 c 0,6,7
 416.727539062 503 416.727539062 503 412.727539062 503.200195312 c 0,8,9
 402.727539062 504 402.727539062 504 391.727539062 504.200195312 c 0,10,11
 270.727539062 503 270.727539062 503 148.727539062 503.200195312 c 1,12,13
 148.727539062 457 148.727539062 457 148.749023438 434 c 1,14,15
 165.727539062 434 165.727539062 434 165.749023438 434 c 0,16,17
 166.727539062 434 166.727539062 434 175.749023438 434 c 0,18,19
 240.727539062 433 240.727539062 433 240.749023438 433 c 0,20,21
 250.727539062 433 250.727539062 433 260.727539062 433 c 0,22,23
 264.727539062 433 264.727539062 433 269.41796875 432.87109375 c 0,24,25
 283.727539062 433 283.727539062 433 297.727539062 433 c 0,26,27
 330.727539062 431 330.727539062 431 333.749023438 396 c 1,28,29
 330.021484375 358 330.021484375 358 287.749023438 358 c 0,30,31
 273.727539062 358 273.727539062 358 259.749023438 358 c 0,32,33
 240.727539062 358 240.727539062 358 240.727539062 358 c 128,-1,34
 240.727539062 358 240.727539062 358 222.727539062 358 c 0,35,36
 222.727539062 358 222.727539062 358 212.727539062 358 c 0,37,38
 189.727539062 358 189.727539062 358 166.749023438 358 c 0,39,40
 148.727539062 358 148.727539062 358 148.727539062 358 c 129,-1,41
 148.727539062 358 148.727539062 358 148.749023438 319 c 1,42,43
 148.727539062 319 148.727539062 319 389.749023438 319 c 0,44,45
 405.727539062 319 405.727539062 319 406.749023438 319 c 0,46,47
 444.727539062 313 444.727539062 313 447.749023438 280 c 1,48,49
 444.727539062 242 444.727539062 242 406.749023438 242 c 0,50,51
 394.727539062 242 394.727539062 242 394.749023438 242 c 0,52,53
 389.727539062 241 389.727539062 241 383.749023438 241 c 0,54,55
 265.727539062 240 265.727539062 240 148.749023438 240 c 1,56,57
 148.749023438 240 148.749023438 240 148.749023438 77 c 1,58,59
 284.727539062 77 284.727539062 77 421.749023438 76 c 1,60,61
 452.276367188 64.89453125 452.276367188 64.89453125 448.749023438 30 c 0,62,63
 446.727539062 9 446.727539062 9 417.749023438 1 c 0,64,65
 416.727539062 0 416.727539062 0 415.249023438 0 c 128,-1,66
 413.727539062 0 413.727539062 0 412.749023438 0 c 0,67,68
 251.727539062 -1 251.727539062 -1 89.7490234375 0 c 1,69,70
 61.7275390625 6 61.7275390625 6 51.7490234375 29 c 1,71,72
 51.7275390625 270 51.7275390625 270 51.7275390625 534.200195312 c 1,73,74
 47.7275390625 555 47.7275390625 555 62.7275390625 568.200195312 c 0,75,76
 77.7275390625 580 77.7275390625 580 90.7275390625 580.200195312 c 0,0,1
EndSplineSet
Validated: 524321
EndChar

StartChar: f
Encoding: 102 102 40
Width: 500
GlyphClass: 1
Flags: W
LayerCount: 2
Fore
SplineSet
144.455078125 0 m 1,0,1
 144.455078125 0 144.455078125 0 48.455078125 0 c 1,2,3
 50.49609375 342 50.49609375 342 50.49609375 539.200195312 c 0,4,5
 50.455078125 547.75 50.455078125 547.75 52.49609375 550.200195312 c 0,6,7
 68.49609375 586 68.49609375 586 105.49609375 578.200195312 c 0,8,9
 106.49609375 578 106.49609375 578 106.49609375 578.700195312 c 0,10,11
 106.49609375 579 106.49609375 579 107.49609375 579.200195312 c 0,12,13
 261.49609375 579 261.49609375 579 415.49609375 579.200195312 c 1,14,15
 431.49609375 573 431.49609375 573 433.49609375 571.200195312 c 0,16,17
 443.49609375 563 443.49609375 563 444.49609375 561.200195312 c 0,18,19
 461.49609375 535 461.49609375 535 437.49609375 515.200195312 c 0,20,21
 424.49609375 504 424.49609375 504 404.49609375 504.200195312 c 0,22,23
 361.49609375 503 361.49609375 503 147.49609375 503.200195312 c 1,24,-1
 144.455078125 441 l 1,25,26
 164.49609375 441 164.49609375 441 164.49609375 441 c 0,27,28
 183.49609375 441 183.49609375 441 183.49609375 441 c 0,29,30
 189.49609375 441 189.49609375 441 192.455078125 441 c 0,31,32
 212.49609375 441 212.49609375 441 212.455078125 441 c 0,33,34
 216.49609375 441 216.49609375 441 221.49609375 441 c 0,35,36
 255.49609375 441 255.49609375 441 289.455078125 441 c 0,37,38
 333.49609375 440 333.49609375 440 332.99609375 403 c 1,39,40
 332.49609375 363 332.49609375 363 289.455078125 363 c 0,41,42
 285.49609375 363 285.49609375 363 251.49609375 364 c 0,43,44
 246.49609375 364 246.49609375 364 241.455078125 364 c 0,45,46
 226.49609375 364 226.49609375 364 221.49609375 364 c 128,-1,47
 216.49609375 364 216.49609375 364 212.49609375 364 c 0,48,49
 212.49609375 364 212.49609375 364 202.455078125 364 c 0,50,51
 187.49609375 364 187.49609375 364 183.455078125 364 c 0,52,53
 164.49609375 364 164.49609375 364 144.455078125 364 c 1,54,55
 144.455078125 364 144.455078125 364 144.455078125 319 c 1,56,57
 310.49609375 321 310.49609375 321 330.455078125 319 c 0,58,59
 349.49609375 318 349.49609375 318 349.49609375 318 c 0,60,61
 384.49609375 308 384.49609375 308 387.49609375 281 c 1,62,63
 384.49609375 248 384.49609375 248 348.455078125 241 c 1,64,65
 246.49609375 241 246.49609375 241 144.455078125 241 c 1,66,67
 144.455078125 241 144.455078125 241 144.455078125 0 c 1,0,1
EndSplineSet
Validated: 524321
EndChar

StartChar: g
Encoding: 103 103 41
Width: 500
GlyphClass: 1
Flags: W
LayerCount: 2
Fore
SplineSet
351.484375 577 m 0,0,1
 355.484375 576 355.484375 576 359.484375 576 c 0,2,3
 427.484375 567 427.484375 567 484.484375 534 c 0,4,5
 494.484375 527 494.484375 527 500.484375 518 c 1,6,7
 500.484375 501 500.484375 501 500.484375 485 c 1,8,9
 481.484375 458 481.484375 458 447.484375 467 c 0,10,11
 421.484375 477 421.484375 477 393.484375 485 c 0,12,13
 370.484375 491 370.484375 491 345.484375 494 c 0,14,15
 323.484375 495 323.484375 495 301.484375 495 c 0,16,17
 294.484375 494 294.484375 494 287.484375 493 c 0,18,19
 280.484375 493 280.484375 493 274.484375 492 c 0,20,21
 272.484375 492 272.484375 492 270.484375 492 c 0,22,23
 235.484375 489 235.484375 489 219.484375 518 c 0,24,25
 209.484375 544 209.484375 544 229.484375 564 c 1,26,27
 243.484375 572 243.484375 572 259.484375 576 c 0,28,29
 269.484375 576 269.484375 576 279.484375 579 c 0,30,31
 315.484375 580 315.484375 580 351.484375 577 c 0,0,1
101.454101562 312 m 0,32,33
 100.454101562 302 100.454101562 302 100.454101562 292 c 0,34,35
 100.454101562 278 100.454101562 278 102.454101562 265 c 0,36,37
 106.454101562 197 106.454101562 197 156.454101562 148 c 0,38,39
 212.454101562 98 212.454101562 98 290.454101562 88 c 0,40,41
 295.454101562 86 295.454101562 86 302.454101562 86 c 0,42,43
 321.454101562 84 321.454101562 84 339.454101562 86 c 0,44,45
 372.454101562 89 372.454101562 89 403.454101562 99 c 1,46,47
 404.454101562 165 404.454101562 165 403.454101562 230 c 1,48,49
 357.454101562 231 357.454101562 231 312.454101562 231 c 0,50,51
 289.454101562 233 289.454101562 233 276.454101562 250 c 0,52,53
 272.454101562 256 272.454101562 256 271.454101562 263 c 0,54,55
 271.454101562 267 271.454101562 267 271.454101562 271 c 0,56,57
 272.454101562 290 272.454101562 290 289.454101562 300 c 0,58,59
 296.454101562 304 296.454101562 304 304.454101562 306 c 0,60,61
 390.454101562 307 390.454101562 307 475.454101562 306 c 0,62,63
 477.454101562 306 477.454101562 306 479.954101562 304 c 128,-1,64
 482.454101562 302 482.454101562 302 484.454101562 302 c 0,65,66
 489.454101562 297 489.454101562 297 490.454101562 290 c 0,67,68
 491.454101562 171 491.454101562 171 491.454101562 54 c 0,69,70
 490.454101562 49 490.454101562 49 490.454101562 42 c 1,71,72
 436.454101562 12 436.454101562 12 375.454101562 4 c 0,73,74
 370.454101562 4 370.454101562 4 367.454101562 3 c 0,75,76
 300.454101562 -4 300.454101562 -4 234.454101562 8 c 0,77,78
 155.454101562 24 155.454101562 24 93.4541015625 72 c 1,79,80
 41.4541015625 118 41.4541015625 118 18.4541015625 182 c 0,81,82
 -6.5458984375 257 -6.5458984375 257 1.4541015625 335 c 0,83,84
 4.4541015625 363 4.4541015625 363 10.4541015625 389 c 1,85,86
 18.4541015625 400 18.4541015625 400 27.4541015625 409 c 0,87,88
 51.4541015625 422 51.4541015625 422 78.4541015625 413 c 0,89,90
 109.454101562 398 109.454101562 398 107.454101562 365 c 0,91,92
 105.454101562 360 105.454101562 360 107.454101562 355 c 0,93,94
 102.454101562 334 102.454101562 334 101.454101562 312 c 0,32,33
EndSplineSet
Validated: 524321
EndChar

StartChar: h
Encoding: 104 104 42
Width: 500
GlyphClass: 1
Flags: W
LayerCount: 2
Fore
SplineSet
95.03125 0 m 1,0,1
 95.03125 -2 95.03125 -2 85.03125 0 c 0,2,3
 56.03125 4 56.03125 4 52.03125 32 c 1,4,5
 52.03125 32 52.03125 32 50.03125 32 c 1,6,7
 50.03125 496 50.03125 496 50.03125 541 c 0,8,9
 49.611328125 547.338867188 49.611328125 547.338867188 52.03125 555 c 0,10,11
 57.3935546875 572.969726562 57.3935546875 572.969726562 73.03125 577.400390625 c 0,12,13
 93.03125 583 93.03125 583 114.03125 573.400390625 c 0,14,15
 129.03125 566 129.03125 566 129.03125 538 c 0,16,17
 129.03125 420 129.03125 420 129.03125 303 c 1,18,19
 250.03125 302 250.03125 302 371.03125 302 c 1,20,21
 371.03125 426 371.03125 426 371.03125 549 c 0,22,23
 371.03125 563 371.03125 563 385.03125 572 c 0,24,25
 410.03125 588 410.03125 588 433.03125 574 c 0,26,27
 450.03125 564 450.03125 564 450.03125 546 c 0,28,29
 450.03125 39 450.03125 39 450.03125 39 c 129,-1,30
 450.03125 39 450.03125 39 449.03125 39 c 0,31,32
 448.03125 38 448.03125 38 448.03125 38 c 1,33,34
 447.03125 22 447.03125 22 440.03125 12.5 c 0,35,36
 432.03125 1 432.03125 1 414.03125 0 c 128,-1,37
 396.03125 -1 396.03125 -1 385.03125 8 c 0,38,39
 376.03125 16 376.03125 16 371.03125 34 c 1,40,41
 370.03125 136 370.03125 136 370.03125 237 c 1,42,43
 249.03125 238 249.03125 238 129.03125 238 c 1,44,-1
 129.03125 190 l 1,45,46
 208.03125 190 208.03125 190 286.03125 190 c 1,47,48
 312.03125 186 312.03125 186 315.03125 166 c 0,49,50
 319.03125 138 319.03125 138 286.03125 131 c 1,51,52
 208.03125 132 208.03125 132 129.03125 131 c 1,53,54
 131.03125 59 131.03125 59 129.03125 36 c 0,55,56
 127.03125 6 127.03125 6 95.03125 0 c 1,0,1
EndSplineSet
Validated: 524321
EndChar

StartChar: i
Encoding: 105 105 43
Width: 500
GlyphClass: 1
Flags: W
LayerCount: 2
Fore
SplineSet
263 0 m 1,0,1
 263 0 263 0 235 0 c 0,2,3
 231 0 231 0 221 4 c 0,4,5
 195 14 195 14 191 38 c 0,6,7
 189 53 189 53 189 67 c 0,8,9
 196 298 196 298 196 538.200195312 c 0,10,11
 196 546 196 546 201 554 c 0,12,13
 223 585 223 585 265 578 c 0,14,15
 303 572 303 572 311 543 c 1,16,17
 311 522 311 522 311 500 c 0,18,19
 311 495 311 495 311 489.200195312 c 0,20,21
 309 201 309 201 307 110 c 0,22,23
 306 73 306 73 307 37 c 1,24,25
 300 8 300 8 263 0 c 1,0,1
EndSplineSet
Validated: 524321
EndChar

StartChar: j
Encoding: 106 106 44
Width: 501
GlyphClass: 1
Flags: W
LayerCount: 2
Fore
SplineSet
417.12109375 518.200195312 m 0,0,1
 414.12109375 518 414.12109375 518 411.12109375 517.200195312 c 0,2,3
 410.12109375 517 410.12109375 517 409.12109375 517.200195312 c 2,4,5
 366.12109375 517 366.12109375 517 323.12109375 517.200195312 c 1,6,7
 323.12109375 505 323.12109375 505 323.12109375 503.200195312 c 2,8,9
 323.12109375 503.200195312 323.12109375 503.200195312 323.12109375 501.200195312 c 0,10,11
 321.12109375 318 321.12109375 318 322.12109375 313.200195312 c 0,12,13
 322.12109375 168 322.12109375 168 316.169921875 140 c 0,14,15
 315.12109375 135 315.12109375 135 315.169921875 130 c 0,16,17
 312.12109375 110 312.12109375 110 306.169921875 90 c 256,18,19
 298.12109375 64 298.12109375 64 290.169921875 52 c 0,20,21
 267.12109375 17 267.12109375 17 232.169921875 5 c 0,22,23
 218.12109375 0 218.12109375 0 208.169921875 0 c 2,24,25
 203.12109375 -1 203.12109375 -1 162.169921875 0 c 0,26,27
 157.12109375 0 157.12109375 0 141.169921875 5 c 0,28,29
 94.5625 18.6494140625 94.5625 18.6494140625 80.169921875 45 c 0,30,31
 47.12109375 111 47.12109375 111 49.169921875 137 c 0,32,33
 49.12109375 137 49.12109375 137 52.169921875 147 c 0,34,35
 56.12109375 159 56.12109375 159 63.169921875 165 c 0,36,37
 85.12109375 181 85.12109375 181 105.169921875 166 c 0,38,39
 122.12109375 153 122.12109375 153 121.169921875 133 c 0,40,41
 121.12109375 128 121.12109375 128 122.169921875 124 c 0,42,43
 127.2890625 96.791015625 127.2890625 96.791015625 131.169921875 94 c 0,44,45
 137.12109375 87 137.12109375 87 145.169921875 80 c 0,46,47
 159.646484375 63.44140625 159.646484375 63.44140625 188.169921875 67 c 0,48,49
 224.12109375 72 224.12109375 72 236.169921875 105 c 0,50,51
 245.12109375 132 245.12109375 132 245.169921875 149 c 0,52,53
 246.12109375 241 246.12109375 241 247.12109375 332.200195312 c 1,54,55
 181.12109375 332.200195312 181.12109375 332.200195312 181.12109375 332.200195312 c 0,56,57
 169.12109375 332 169.12109375 332 167.12109375 332.200195312 c 0,58,59
 149.12109375 332 149.12109375 332 142.12109375 336.200195312 c 0,60,61
 119.12109375 352 119.12109375 352 129.12109375 379.200195312 c 1,62,63
 135.12109375 399 135.12109375 399 165.12109375 398 c 0,64,65
 166.12109375 398 166.12109375 398 173.831054688 398.631835938 c 0,66,67
 180.12109375 399 180.12109375 399 207.12109375 399 c 0,68,69
 213.12109375 399 213.12109375 399 219.198242188 399.1015625 c 0,70,71
 223.12109375 399 223.12109375 399 229.12109375 399 c 0,72,73
 229.12109375 399 229.12109375 399 247.12109375 399.200195312 c 1,74,75
 247.12109375 458 247.12109375 458 247.12109375 517.200195312 c 1,76,77
 247.12109375 517.200195312 247.12109375 517.200195312 155.12109375 517.200195312 c 0,78,79
 143.171875 517.76953125 143.171875 517.76953125 139.12109375 520.200195312 c 0,80,81
 133.12109375 522 133.12109375 522 129.12109375 525.200195312 c 0,82,83
 116.12109375 535 116.12109375 535 117.12109375 548.200195312 c 0,84,85
 118.12109375 566 118.12109375 566 131.12109375 573.200195312 c 0,86,87
 138.12109375 577 138.12109375 577 139.12109375 578.200195312 c 0,88,89
 143.12109375 580 143.12109375 580 147.12109375 580.200195312 c 0,90,91
 151.12109375 580 151.12109375 580 158.62109375 580.200195312 c 0,92,93
 166.12109375 580 166.12109375 580 170.12109375 580.200195312 c 0,94,95
 212.12109375 579 212.12109375 579 427.12109375 579.200195312 c 0,96,97
 433.12109375 579 433.12109375 579 441.12109375 571.200195312 c 0,98,99
 446.12109375 565 446.12109375 565 447.12109375 564.200195312 c 0,100,101
 460.12109375 535 460.12109375 535 438.12109375 523.200195312 c 0,102,103
 434.12109375 521 434.12109375 521 429.12109375 520.200195312 c 0,104,105
 423.12109375 518 423.12109375 518 417.12109375 518.200195312 c 0,0,1
EndSplineSet
Validated: 524321
EndChar

StartChar: k
Encoding: 107 107 45
Width: 500
GlyphClass: 1
Flags: W
LayerCount: 2
Fore
SplineSet
108.254882812 0 m 1,0,1
 108.254882812 0 108.254882812 0 74.2548828125 0 c 1,2,3
 62.0048828125 5 62.0048828125 5 58.2548828125 11 c 0,4,5
 48.0048828125 25 48.0048828125 25 48.2548828125 29 c 0,6,7
 60.0048828125 327 60.0048828125 327 60.0048828125 539.200195312 c 0,8,9
 60.0048828125 549 60.0048828125 549 70.0048828125 557.200195312 c 0,10,11
 88.40625 568.701171875 88.40625 568.701171875 89.0048828125 569.200195312 c 0,12,13
 124.626953125 584.170898438 124.626953125 584.170898438 133.004882812 573 c 0,14,15
 139.004882812 565 139.004882812 565 134.004882812 539.5 c 0,16,17
 134.029296875 539.264648438 134.029296875 539.264648438 133.129882812 420 c 0,18,19
 133.004882812 356 133.004882812 356 135.254882812 326 c 1,20,21
 147.004882812 335 147.004882812 335 226.129882812 435 c 0,22,23
 284.004882812 508 284.004882812 508 332.004882812 569.200195312 c 0,24,25
 339.004882812 578 339.004882812 578 354.004882812 579.200195312 c 0,26,27
 394.004882812 585 394.004882812 585 400.004882812 558.200195312 c 0,28,29
 404.004882812 540 404.004882812 540 388.004882812 514.200195312 c 1,30,31
 328.004882812 435 328.004882812 435 268.254882812 356 c 1,32,33
 274.004882812 343 274.004882812 343 282.254882812 331 c 0,34,35
 289.004882812 320 289.004882812 320 290.254882812 318 c 0,36,37
 294.004882812 312 294.004882812 312 298.254882812 305 c 0,38,39
 304.004882812 294 304.004882812 294 306.254882812 292 c 0,40,41
 307.004882812 291 307.004882812 291 308.254882812 289 c 0,42,43
 313.004882812 282 313.004882812 282 317.254882812 274 c 0,44,45
 327.004882812 255 327.004882812 255 329.254882812 252 c 0,46,47
 334.004882812 246 334.004882812 246 337.254882812 239 c 0,48,49
 342.004882812 230 342.004882812 230 344.254882812 227 c 0,50,51
 346.004882812 225 346.004882812 225 348.254882812 222 c 0,52,53
 361.004882812 200 361.004882812 200 361.254882812 199 c 2,54,-1
 364.254882812 196 l 2,55,56
 367.004882812 193 367.004882812 193 371.254882812 183 c 0,57,58
 378.004882812 167 378.004882812 167 383.254882812 161 c 0,59,60
 384.004882812 160 384.004882812 160 385.754882812 158.5 c 0,61,62
 387.004882812 157 387.004882812 157 387.254882812 156 c 0,63,64
 391.004882812 150 391.004882812 150 395.254882812 143 c 0,65,66
 406.004882812 123 406.004882812 123 407.254882812 121 c 0,67,68
 410.004882812 117 410.004882812 117 411.254882812 116 c 0,69,70
 414.004882812 109 414.004882812 109 418.254882812 103 c 0,71,72
 424.004882812 92 424.004882812 92 430.254882812 82 c 0,73,74
 438.004882812 70 438.004882812 70 438.254882812 69 c 0,75,76
 441.004882812 66 441.004882812 66 442.754882812 62 c 0,77,78
 444.004882812 58 444.004882812 58 445.754882812 53 c 0,79,80
 447.004882812 48 447.004882812 48 448.254882812 45 c 0,81,82
 461.004882812 9 461.004882812 9 427.254882812 0 c 0,83,84
 400.004882812 -8 400.004882812 -8 390.754882812 4.5 c 0,85,86
 370.004882812 32 370.004882812 32 365.254882812 36 c 0,87,88
 364.004882812 37 364.004882812 37 362.254882812 42 c 0,89,90
 360.004882812 47 360.004882812 47 358.254882812 49 c 0,91,92
 356.004882812 51 356.004882812 51 350.254882812 62 c 0,93,94
 347.004882812 69 347.004882812 69 342.254882812 75 c 0,95,96
 338.004882812 82 338.004882812 82 334.254882812 88 c 0,97,98
 332.004882812 91 332.004882812 91 330.254882812 93 c 0,99,100
 328.004882812 94 328.004882812 94 318.254882812 115 c 0,101,102
 313.004882812 127 313.004882812 127 311.254882812 128 c 0,103,104
 309.004882812 130 309.004882812 130 307.254882812 133 c 0,105,106
 304.004882812 139 304.004882812 139 295.254882812 155 c 0,107,108
 289.004882812 166 289.004882812 166 287.254882812 168 c 0,109,110
 285.004882812 170 285.004882812 170 283.254882812 172 c 0,111,112
 281.004882812 173 281.004882812 173 271.254882812 194 c 0,113,114
 266.004882812 206 266.004882812 206 264.254882812 207 c 0,115,116
 261.004882812 210 261.004882812 210 260.254882812 212 c 0,117,118
 253.004882812 224 253.004882812 224 248.254882812 234 c 0,119,120
 247.004882812 237 247.004882812 237 244.254882812 240 c 0,121,122
 239.004882812 246 239.004882812 246 237.254882812 251 c 0,123,124
 227.004882812 276 227.004882812 276 217.254882812 286 c 0,125,126
 214.004882812 289 214.004882812 289 212.254882812 292 c 1,127,128
 200.004882812 285 200.004882812 285 189.254882812 268 c 0,129,130
 188.004882812 266 188.004882812 266 187.254882812 264 c 0,131,132
 177.004882812 254 177.004882812 254 176.254882812 253 c 0,133,134
 174.004882812 249 174.004882812 249 170.254882812 246 c 0,135,136
 168.004882812 244 168.004882812 244 164.754882812 239.5 c 0,137,138
 161.004882812 235 161.004882812 235 159.254882812 233 c 0,139,140
 154.004882812 229 154.004882812 229 151.254882812 224 c 1,141,142
 151.254882812 224 151.254882812 224 151.254882812 224 c 1,143,144
 147.004882812 222 147.004882812 222 144.254882812 219 c 0,145,146
 140.004882812 214 140.004882812 214 135.254882812 210 c 1,147,148
 134.004882812 120 134.004882812 120 134.254882812 30 c 1,149,150
 128.004882812 14 128.004882812 14 124.254882812 11 c 0,151,152
 117.004882812 4 117.004882812 4 108.254882812 0 c 1,0,1
EndSplineSet
Validated: 524321
EndChar

StartChar: l
Encoding: 108 108 46
Width: 500
GlyphClass: 1
Flags: W
LayerCount: 2
Fore
SplineSet
412.985351562 0 m 1,0,1
 412.985351562 0 412.985351562 0 65.9853515625 0 c 1,2,3
 55 5 55 5 49.9853515625 15 c 1,4,5
 54 365 54 365 54 539 c 0,6,7
 54 551 54 551 66 563 c 0,8,9
 93 590 93 590 125 571 c 0,10,11
 135 565 135 565 143 555 c 0,12,13
 148 548 148 548 148 546 c 0,14,15
 146 312 146 312 144.985351562 78 c 1,16,17
 406 78 406 78 410 77 c 128,-1,18
 414 76 414 76 417.985351562 75 c 0,19,20
 451 64 451 64 449.985351562 33 c 1,21,22
 444 5 444 5 412.985351562 0 c 1,0,1
EndSplineSet
Validated: 524321
EndChar

StartChar: m
Encoding: 109 109 47
Width: 500
GlyphClass: 1
Flags: W
LayerCount: 2
Fore
SplineSet
449.5 0 m 1,0,1
 449.5 0 449.5 0 374.5 0 c 1,2,3
 374.5 78 374.5 78 373.5 156 c 1,4,5
 248.5 156 248.5 156 124.5 156 c 1,6,7
 124.5 156 124.5 156 124.5 0 c 1,8,9
 124.5 0 124.5 0 49.5 0 c 1,10,11
 50.5 268 50.5 268 50.5 545 c 0,12,13
 50.5 554 50.5 554 55.5 559 c 0,14,15
 58.5 563 58.5 563 61.5 567 c 0,16,17
 63.5 570 63.5 570 70.5 574 c 0,18,19
 94.5 586 94.5 586 121.5 567 c 0,20,21
 128.5 562 128.5 562 136.5 552 c 1,22,23
 192.5 431 192.5 431 234.5 362 c 0,24,25
 240.5 352 240.5 352 245.5 343 c 1,26,27
 250.5 349 250.5 349 254.5 356 c 0,28,29
 316.5 445 316.5 445 364.5 542 c 0,30,31
 366.5 546 366.5 546 367.5 550 c 1,32,33
 368.5 548 368.5 548 369.5 550 c 0,34,35
 371.5 557 371.5 557 375.5 563 c 0,36,37
 383.5 575 383.5 575 413.87109375 576.616210938 c 0,38,39
 448.5 579 448.5 579 448.5 543 c 0,40,41
 448.5 542 448.5 542 449.5 541 c 0,42,43
 451.5 399 451.5 399 449.5 0 c 1,0,1
126.5 364 m 1,44,45
 125.5 349 125.5 349 125.5 342 c 0,46,47
 124.5 282 124.5 282 124.5 222 c 1,48,49
 127.5 222 127.5 222 130.5 222 c 0,50,51
 137.5 222 137.5 222 144.5 222 c 256,52,53
 151.5 222 151.5 222 158.5 222 c 130,-1,54
 165.5 222 165.5 222 172.5 222 c 128,-1,55
 179.5 222 179.5 222 186.5 222 c 256,56,57
 193.5 222 193.5 222 200.5 222 c 2,58,59
 202.5 222 202.5 222 205.5 222 c 128,-1,60
 208.5 222 208.5 222 211.5 223 c 1,61,62
 168.5 293 168.5 293 126.5 364 c 1,44,45
368.5 222 m 2,63,64
 371 222 371 222 373.5 222 c 1,65,66
 373.5 292 373.5 292 373.5 364 c 1,67,68
 323.5 289 323.5 289 283.5 231 c 0,69,70
 280.3125 225.139648438 280.3125 225.139648438 280.5 222 c 0,71,72
 280.5 221 280.5 221 284.5 222 c 0,73,74
 284.5 222 284.5 222 298.5 222 c 2,75,76
 305.5 222 305.5 222 312.5 222 c 128,-1,77
 319.5 222 319.5 222 326.5 222 c 256,78,79
 333.5 222 333.5 222 340.5 222 c 256,80,81
 347.5 222 347.5 222 354.5 222 c 256,82,83
 361.5 222 361.5 222 368.5 222 c 2,63,64
EndSplineSet
Validated: 524321
EndChar

StartChar: n
Encoding: 110 110 48
Width: 500
GlyphClass: 1
Flags: W
LayerCount: 2
Fore
SplineSet
428 0 m 1,0,1
 428 0 428 0 381 0 c 0,2,3
 379 0 379 0 372 5 c 0,4,5
 356 17 356 17 346 32 c 0,6,7
 342 38 342 38 340 38 c 0,8,9
 339 38 339 38 333 47 c 0,10,11
 323 60 323 60 322 63 c 0,12,13
 322 63 322 63 128 456.200195312 c 1,14,15
 125 317 125 317 126.5 240.600097656 c 0,16,17
 128 83 128 83 128 25 c 1,18,19
 124 8 124 8 104 0 c 1,20,-1
 74 0 l 1,21,22
 50 0 50 0 50 27 c 0,23,24
 50 276 50 276 50 524.200195312 c 0,25,26
 50 526 50 526 52 546.200195312 c 0,27,28
 53 556 53 556 54 559.200195312 c 0,29,30
 65 579 65 579 103 579.200195312 c 0,31,32
 139 579 139 579 153 555.200195312 c 1,33,34
 153 555.200195312 153 555.200195312 155 553.200195312 c 0,35,36
 155 553.200195312 155 553.200195312 373 114 c 1,37,38
 373 317 373 317 373 519.200195312 c 1,39,40
 243 519.200195312 243 519.200195312 243 519.200195312 c 0,41,42
 238 520 238 520 236 520.200195312 c 0,43,44
 210 530 210 530 212 554.200195312 c 1,45,46
 218 574 218 574 243 579.200195312 c 5,47,48
 322 579 322 579 401 579.200195312 c 0,49,50
 408 579 408 579 416 579.200195312 c 0,51,52
 442 578 442 578 450 553.200195312 c 1,53,54
 450 293 450 293 450 32 c 0,55,56
 450 13 450 13 428 0 c 1,0,1
EndSplineSet
Validated: 524321
EndChar

StartChar: o
Encoding: 111 111 49
Width: 500
GlyphClass: 1
Flags: W
LayerCount: 2
Fore
SplineSet
292.034179688 565.698242188 m 0,0,1
 294.317382812 564.607421875 294.317382812 564.607421875 297.090820312 564.551757812 c 0,2,3
 327.181640625 558.080078125 327.181640625 558.080078125 353.98046875 544.205078125 c 0,4,5
 374.561523438 532.8671875 374.561523438 532.8671875 393.171875 518.986328125 c 0,6,7
 429.0703125 489.6015625 429.0703125 489.6015625 452.90625 451.641601562 c 0,8,9
 500.037109375 373.834960938 500.037109375 373.834960938 499.998046875 284.854492188 c 0,10,11
 500.25 196.594726562 500.25 196.594726562 454.169921875 119.213867188 c 0,12,13
 417.217773438 58.482421875 417.217773438 58.482421875 351.452148438 23.2109375 c 0,14,15
 318.533203125 7.2890625 318.533203125 7.2890625 281.919921875 1.1455078125 c 1,16,-1
 277.49609375 1.1455078125 l 2,17,18
 275.100585938 2.412109375 275.100585938 2.412109375 272.123046875 2.291015625 c 0,19,20
 266.600585938 2.1884765625 266.600585938 2.1884765625 261.060546875 2.291015625 c 0,21,22
 246.380859375 5.13671875 246.380859375 5.13671875 237.356445312 16.046875 c 0,23,24
 223.087890625 36.228515625 223.087890625 36.228515625 234.828125 57.88671875 c 0,25,26
 239.970703125 64.2705078125 239.970703125 64.2705078125 246.522460938 69.63671875 c 0,27,28
 261.844726562 78.474609375 261.844726562 78.474609375 280.024414062 80.5263671875 c 0,29,30
 328.8203125 93.990234375 328.8203125 93.990234375 360.301757812 130.103515625 c 1,31,32
 358.836914062 130.921875 358.836914062 130.921875 357.141601562 130.676757812 c 0,33,34
 349.39453125 131.361328125 349.39453125 131.361328125 341.970703125 130.676757812 c 0,35,36
 277.525390625 131.274414062 277.525390625 131.274414062 213.020507812 131.25 c 2,37,-1
 190.896484375 131.25 l 1,38,-1
 183.311523438 131.25 l 2,39,40
 176.19921875 132.048828125 176.19921875 132.048828125 168.772460938 131.25 c 0,41,42
 152.470703125 131.51953125 152.470703125 131.51953125 136.21875 130.676757812 c 0,43,44
 134.818359375 129.865234375 134.818359375 129.865234375 134.323242188 128.384765625 c 0,45,46
 130.872070312 106.521484375 130.872070312 106.521484375 108.72265625 97.1474609375 c 0,47,48
 70.6484375 85.919921875 70.6484375 85.919921875 48.35546875 115.775390625 c 0,49,50
 41.58984375 128.618164062 41.58984375 128.618164062 33.8173828125 140.994140625 c 0,51,52
 14.7900390625 180.28125 14.7900390625 180.28125 6.3203125 222.380859375 c 0,53,54
 6.283203125 226.021484375 6.283203125 226.021484375 5.056640625 229.258789062 c 0,55,56
 5.115234375 233.193359375 5.115234375 233.193359375 3.7919921875 236.709960938 c 0,57,58
 0.8125 260.588867188 0.8125 260.588867188 0 284.568359375 c 0,59,60
 0.7939453125 308.857421875 0.7939453125 308.857421875 4.1083984375 332.999023438 c 0,61,62
 17.6962890625 429.54296875 17.6962890625 429.54296875 88.1787109375 502.078125 c 0,63,64
 115.090820312 527.64453125 115.090820312 527.64453125 148.544921875 545.3515625 c 0,65,66
 216.15234375 578.939453125 216.15234375 578.939453125 292.034179688 565.698242188 c 0,0,1
260.533203125 490.615234375 m 0,67,68
 245.311523438 490.900390625 245.311523438 490.900390625 230.19140625 489.469726562 c 0,69,70
 224.73046875 488.876953125 224.73046875 488.876953125 219.446289062 487.462890625 c 0,71,72
 189.73828125 479.703125 189.73828125 479.703125 165.716796875 462.244140625 c 0,73,74
 113.701171875 421.09765625 113.701171875 421.09765625 95.552734375 360.510742188 c 1,75,76
 250.90234375 360.63671875 250.90234375 360.63671875 405.286132812 361.083984375 c 1,77,78
 403.849609375 366.861328125 403.849609375 366.861328125 401.809570312 372.546875 c 0,79,80
 389.783203125 403.240234375 389.783203125 403.240234375 369.255859375 429.861328125 c 0,81,82
 346.353515625 458.224609375 346.353515625 458.224609375 312.998046875 476 c 0,83,84
 292.798828125 486.0703125 292.798828125 486.0703125 270.014648438 489.469726562 c 0,85,86
 265.08984375 489.67578125 265.08984375 489.67578125 260.533203125 490.615234375 c 0,67,68
408.446289062 216.649414062 m 0,87,88
 419.399414062 255.306640625 419.399414062 255.306640625 417.295898438 295.170898438 c 1,89,90
 250.693359375 294.822265625 250.693359375 294.822265625 84.1748046875 295.170898438 c 1,91,92
 81.44140625 245.467773438 81.44140625 245.467773438 98.712890625 198.30859375 c 0,93,94
 100.177734375 197.490234375 100.177734375 197.490234375 101.873046875 197.735351562 c 0,95,96
 108.673828125 198.388671875 108.673828125 198.388671875 115.147460938 197.735351562 c 0,97,98
 241.095703125 197.190429688 241.095703125 197.190429688 367.04296875 196.58984375 c 0,99,100
 372.890625 196.684570312 372.890625 196.684570312 384.584960938 196.875976562 c 128,-1,101
 396.279296875 197.06640625 396.279296875 197.06640625 402.125976562 197.162109375 c 1,102,103
 405.427734375 204.7109375 405.427734375 204.7109375 407.182617188 212.637695312 c 0,104,105
 407.391601562 214.842773438 407.391601562 214.842773438 408.446289062 216.649414062 c 0,87,88
EndSplineSet
Validated: 524321
EndChar

StartChar: p
Encoding: 112 112 50
Width: 500
GlyphClass: 1
Flags: W
LayerCount: 2
Fore
SplineSet
181.166992188 579.200195312 m 0,0,1
 228.166992188 579 228.166992188 579 275.166992188 573.200195312 c 0,2,3
 345.166992188 566 345.166992188 566 392.166992188 528.200195312 c 0,4,5
 444.166992188 487 444.166992188 487 450.166992188 419.200195312 c 1,6,7
 445.166992188 315 445.166992188 315 336.166992188 280.200195312 c 0,8,9
 289.166992188 265 289.166992188 265 244.166992188 264.200195312 c 0,10,11
 202.166992188 263 202.166992188 263 198.166992188 263.200195312 c 0,12,13
 166.166992188 264 166.166992188 264 135.166992188 264.200195312 c 1,14,15
 134.166992188 153 134.166992188 153 134.166992188 40 c 0,16,17
 134.166992188 26 134.166992188 26 123.166992188 15 c 0,18,19
 97.1669921875 -10 97.1669921875 -10 71.1669921875 6 c 0,20,21
 63.1669921875 11 63.1669921875 11 55.1669921875 22 c 0,22,23
 51.1669921875 28 51.1669921875 28 51.1669921875 33 c 0,24,25
 49.1669921875 129 49.1669921875 129 50.1669921875 168.200195312 c 0,26,27
 51.1669921875 233 51.1669921875 233 51.1669921875 542.200195312 c 1,28,29
 59.1669921875 561 59.1669921875 561 75.1669921875 570.200195312 c 0,30,31
 76.5908203125 572.142578125 76.5908203125 572.142578125 77.1669921875 572.200195312 c 0,32,33
 82.1669921875 576 82.1669921875 576 88.1669921875 576.200195312 c 0,34,35
 140.166992188 579 140.166992188 579 181.166992188 579.200195312 c 0,0,1
187.166992188 513.200195312 m 0,36,37
 162.166992188 511.200195312 162.166992188 511.200195312 138.166992188 508.200195312 c 1,38,39
 138.166992188 508.200195312 138.166992188 508.200195312 138.166992188 462.200195312 c 1,40,41
 186.166992188 462.200195312 186.166992188 462.200195312 235.166992188 462.200195312 c 0,42,43
 247.166992188 463.200195312 247.166992188 463.200195312 257.166992188 457.200195312 c 0,44,45
 282.166992188 442.200195312 282.166992188 442.200195312 278.166992188 416.200195312 c 0,46,47
 269.166992188 387.200195312 269.166992188 387.200195312 235.166992188 385.200195312 c 0,48,49
 186.166992188 385.200195312 186.166992188 385.200195312 137.166992188 385.200195312 c 1,50,51
 137.166992188 357.200195312 137.166992188 357.200195312 137.166992188 329.200195312 c 1,52,53
 148.166992188 327.200195312 148.166992188 327.200195312 159.166992188 327.200195312 c 0,54,55
 192.166992188 326.200195312 192.166992188 326.200195312 225.166992188 327.200195312 c 0,56,57
 265.166992188 329.200195312 265.166992188 329.200195312 303.166992188 341.200195312 c 0,58,59
 326.166992188 348.200195312 326.166992188 348.200195312 345.166992188 362.200195312 c 0,60,61
 359.166992188 373.200195312 359.166992188 373.200195312 366.166992188 389.200195312 c 0,62,63
 383.166992188 443.200195312 383.166992188 443.200195312 338.166992188 481.200195312 c 0,64,65
 310.166992188 501.200195312 310.166992188 501.200195312 273.166992188 508.200195312 c 0,66,67
 230.166992188 515.200195312 230.166992188 515.200195312 187.166992188 513.200195312 c 0,36,37
EndSplineSet
Validated: 524321
EndChar

StartChar: q
Encoding: 113 113 51
Width: 500
GlyphClass: 1
Flags: W
LayerCount: 2
Fore
SplineSet
246.834960938 584.200195312 m 2,0,-1
 249.415039062 584.200195312 l 2,1,2
 304.834960938 584 304.834960938 584 351.971679688 558.400390625 c 0,3,4
 415.834960938 523 415.834960938 523 449.046875 469.349609375 c 0,5,6
 505.834960938 379 505.834960938 379 499.388671875 258.28125 c 0,7,8
 492.834960938 135 492.834960938 135 436.822265625 93.49609375 c 0,9,10
 333.834960938 17 333.834960938 17 333.620117188 16.9287109375 c 0,11,12
 332.834960938 16 332.834960938 16 333.620117188 14.154296875 c 0,13,14
 338.834960938 0 338.834960938 0 346.520507812 -11.9228515625 c 0,15,16
 354.834960938 -26 354.834960938 -26 379.416015625 -52.98046875 c 0,17,18
 384.834960938 -59 384.834960938 -59 384.8984375 -71.5673828125 c 0,19,20
 382.834960938 -101 382.834960938 -101 349.422851562 -108.186523438 c 1,21,22
 330.834960938 -110 330.834960938 -110 301.369140625 -84.0517578125 c 0,23,24
 296.834960938 -80 296.834960938 -80 291.694335938 -75.173828125 c 0,25,26
 263.834960938 -49 263.834960938 -49 237.834960938 5 c 1,27,28
 145.834960938 12 145.834960938 12 87.869140625 68.5283203125 c 0,29,30
 38.8349609375 116 38.8349609375 116 16.91796875 178.384765625 c 0,31,32
 -11.1650390625 261 -11.1650390625 261 7.2421875 345.9453125 c 1,33,34
 13.8349609375 351 13.8349609375 351 21.1103515625 356.209960938 c 0,35,36
 30.8349609375 362 30.8349609375 362 38.525390625 362.3125 c 0,37,38
 79.8349609375 363 79.8349609375 363 85.611328125 328.467773438 c 1,39,40
 83.8349609375 313 83.8349609375 313 82.064453125 296.564453125 c 0,41,42
 77.8349609375 239 77.8349609375 239 100.125 185.04296875 c 0,43,44
 120.834960938 135 120.834960938 135 165.59375 105.424804688 c 0,45,46
 187.834960938 91 187.834960938 91 215.259765625 85.1728515625 c 1,47,48
 206.834960938 130 206.834960938 130 206.551757812 130.114257812 c 0,49,50
 205.834960938 137 205.834960938 137 207.197265625 143.430664062 c 0,51,52
 214.834960938 168 214.834960938 168 239.770507812 173.114257812 c 0,53,54
 278.834960938 181 278.834960938 181 296.208984375 147.314453125 c 1,55,56
 297.834960938 132 297.834960938 132 300.079101562 115.689453125 c 0,57,58
 301.834960938 103 301.834960938 103 306.8515625 91.5537109375 c 1,59,60
 316.834960938 93 316.834960938 93 324.912109375 98.7666015625 c 0,61,62
 344.834960938 111 344.834960938 111 360.7109375 127.340820312 c 0,63,64
 397.834960938 169 397.834960938 169 408.44140625 220.552734375 c 0,65,66
 427.834960938 320 427.834960938 320 394.865234375 398.330078125 c 0,67,68
 374.834960938 445 374.834960938 445 338.426757812 472.956054688 c 0,69,70
 248.975585938 539.115234375 248.975585938 539.115234375 209.423828125 499.587890625 c 0,71,72
 207.834960938 498 207.834960938 498 197.168945312 494.0390625 c 0,73,74
 163.834960938 481 163.834960938 481 142.01953125 507.078125 c 0,75,76
 122.834960938 531 122.834960938 531 142.01953125 553.684570312 c 0,77,78
 147.834960938 560 147.834960938 560 155.887695312 564.502929688 c 0,79,80
 201.834960938 584 201.834960938 584 246.834960938 584.200195312 c 2,0,-1
EndSplineSet
Validated: 524321
EndChar

StartChar: r
Encoding: 114 114 52
Width: 500
GlyphClass: 1
Flags: W
LayerCount: 2
Fore
SplineSet
450 0 m 1,0,1
 450 0 450 0 356 0 c 1,2,3
 221 294 221 294 221 294 c 1,4,5
 180 294 180 294 138 294 c 1,6,7
 136 147 136 147 135 0 c 1,8,9
 135 0 135 0 50 0 c 1,10,11
 52 0 52 0 52 440 c 0,12,13
 52 448 52 448 53 450 c 0,14,15
 63.849609375 473.5078125 63.849609375 473.5078125 95 476 c 0,16,17
 119 478 119 478 138 447 c 0,18,19
 139 446 139 446 139 446 c 1,20,21
 139 380 139 380 139 368 c 0,22,23
 140 368 140 368 141 367 c 0,24,25
 159 365 159 365 176 364 c 0,26,27
 229 362 229 362 280 373 c 0,28,29
 322 382 322 382 341 415 c 1,30,31
 358 470 358 470 301 493 c 0,32,33
 281 501 281 501 241 506 c 0,34,35
 233 507 233 507 224 508 c 1,36,37
 224 510 224 510 223 511 c 0,38,39
 195 528 195 528 206 556 c 1,40,41
 219 578 219 578 251 578 c 0,42,43
 251 578 251 578 289 572 c 0,44,45
 312 568 312 568 335 560 c 0,46,47
 371 547 371 547 393 525 c 0,48,49
 441 477 441 477 426 415 c 1,50,51
 401 336 401 336 310 308 c 1,52,53
 332 272 332 272 378.5 156 c 128,-1,54
 425 40 425 40 450 0 c 1,0,1
EndSplineSet
Validated: 524321
EndChar

StartChar: s
Encoding: 115 115 53
Width: 500
GlyphClass: 1
Flags: W
LayerCount: 2
Fore
SplineSet
252.9453125 579.200195312 m 0,0,1
 340.9453125 576.200195312 340.9453125 576.200195312 422.9453125 548.200195312 c 1,2,3
 450.9453125 532.200195312 450.9453125 532.200195312 435.9453125 507.200195312 c 0,4,5
 421.9453125 491.200195312 421.9453125 491.200195312 396.9453125 493.200195312 c 1,6,7
 339.9453125 510.200195312 339.9453125 510.200195312 279.9453125 515.200195312 c 0,8,9
 257.9453125 516.200195312 257.9453125 516.200195312 236.9453125 516.200195312 c 0,10,11
 210.9453125 514.200195312 210.9453125 514.200195312 187.9453125 505.200195312 c 0,12,13
 131.9453125 478.200195312 131.9453125 478.200195312 145.9453125 426.200195312 c 0,14,15
 153.9453125 407.200195312 153.9453125 407.200195312 173.9453125 394.200195312 c 0,16,17
 200.9453125 378.200195312 200.9453125 378.200195312 231.9453125 367.200195312 c 0,18,19
 271.9453125 354.200195312 271.9453125 354.200195312 311.9453125 341.200195312 c 0,20,21
 355.9453125 327.200195312 355.9453125 327.200195312 390.9453125 302.200195312 c 0,22,23
 424.9453125 277.200195312 424.9453125 277.200195312 439.9453125 241.200195312 c 0,24,25
 446.9453125 220.200195312 446.9453125 220.200195312 443.9453125 198.200195312 c 1,26,27
 425.9453125 170.200195312 425.9453125 170.200195312 388.9453125 175.200195312 c 0,28,29
 362.9453125 182.200195312 362.9453125 182.200195312 356.9453125 203.200195312 c 0,30,31
 355.9453125 206.200195312 355.9453125 206.200195312 354.9453125 209.200195312 c 0,32,33
 353.9453125 240.200195312 353.9453125 240.200195312 323.9453125 261.200195312 c 0,34,35
 301.9453125 275.200195312 301.9453125 275.200195312 275.9453125 284.200195312 c 0,36,37
 240.9453125 295.200195312 240.9453125 295.200195312 205.9453125 306.200195312 c 0,38,39
 157.9453125 321.200195312 157.9453125 321.200195312 116.9453125 347.200195312 c 0,40,41
 22.9453125 410.200195312 22.9453125 410.200195312 71.9453125 500.200195312 c 0,42,43
 88.9453125 528.200195312 88.9453125 528.200195312 120.9453125 546.200195312 c 0,44,45
 165.9453125 573.200195312 165.9453125 573.200195312 221.9453125 577.200195312 c 0,46,47
 237.9453125 578.200195312 237.9453125 578.200195312 252.9453125 579.200195312 c 0,0,1
89.046875 85 m 0,48,49
 97.046875 85 97.046875 85 104.046875 84 c 0,50,51
 113.046875 81 113.046875 81 122.046875 77 c 0,52,53
 128.046875 76 128.046875 76 134.046875 74 c 0,54,55
 144.046875 74 144.046875 74 154.046875 73 c 0,56,57
 198.046875 63 198.046875 63 244.046875 61 c 0,58,59
 256.046875 59 256.046875 59 267.046875 56 c 0,60,61
 292.046875 45 292.046875 45 288.046875 23 c 0,62,63
 285.046875 13 285.046875 13 274.046875 7 c 0,64,65
 270.046875 5 270.046875 5 267.046875 3 c 0,66,67
 260.046875 1 260.046875 1 256.046875 0 c 0,68,69
 206.046875 0 206.046875 0 158.046875 9 c 0,70,71
 117.046875 17 117.046875 17 78.046875 29 c 1,72,73
 50.046875 43 50.046875 43 61.046875 68 c 0,74,75
 70.046875 82 70.046875 82 89.046875 85 c 0,48,49
EndSplineSet
Validated: 524321
EndChar

StartChar: t
Encoding: 116 116 54
Width: 500
GlyphClass: 1
Flags: W
LayerCount: 2
Fore
SplineSet
129.944335938 579.200195312 m 0,0,1
 321.944335938 580 321.944335938 580 418.944335938 577.200195312 c 0,2,3
 449.944335938 576 449.944335938 576 449.944335938 543.200195312 c 2,4,5
 449.944335938 543.200195312 449.944335938 543.200195312 449.944335938 542.200195312 c 0,6,7
 448.944335938 517 448.944335938 517 433.944335938 513.200195312 c 0,8,9
 429.944335938 512 429.944335938 512 426.944335938 510.200195312 c 0,10,11
 424.944335938 509 424.944335938 509 423.944335938 509.200195312 c 0,12,13
 420.944335938 510 420.944335938 510 418.944335938 509.200195312 c 0,14,15
 350.944335938 509 350.944335938 509 281.944335938 509.200195312 c 1,16,17
 281.944335938 255 281.944335938 255 281.944335938 0 c 1,18,19
 281.944335938 0 281.944335938 0 213.944335938 0 c 1,20,21
 213.944335938 0 213.944335938 0 213.944335938 509.200195312 c 1,22,23
 147.944335938 509 147.944335938 509 86.9443359375 509.200195312 c 0,24,25
 85.9443359375 509 85.9443359375 509 85.9443359375 510.200195312 c 1,26,27
 70.9443359375 508 70.9443359375 508 60.9443359375 517.200195312 c 0,28,29
 46.9443359375 533 46.9443359375 533 50.9443359375 551.200195312 c 0,30,31
 56.9443359375 579 56.9443359375 579 81.9443359375 579.200195312 c 0,32,33
 105.944335938 579 105.944335938 579 129.944335938 579.200195312 c 0,0,1
EndSplineSet
Validated: 524321
EndChar

StartChar: u
Encoding: 117 117 55
Width: 500
GlyphClass: 1
Flags: W
LayerCount: 2
Fore
SplineSet
255.599609375 0 m 1,0,1
 255.599609375 0 255.599609375 0 239.599609375 0 c 0,2,3
 187.5 3 187.5 3 144.599609375 29 c 0,4,5
 85.5 65 85.5 65 64.599609375 125 c 0,6,7
 51.5 163 51.5 163 51.599609375 197 c 0,8,9
 51.5 372 51.5 372 50.5 547.200195312 c 0,10,11
 50.5 551 50.5 551 55.5 560.200195312 c 0,12,13
 65.5 577 65.5 577 83.5 579.200195312 c 0,14,15
 110.5 582 110.5 582 122.5 564.200195312 c 0,16,17
 131.5 551 131.5 551 130.5 536.200195312 c 0,18,19
 128.5 490 128.5 490 129.5 421.200195312 c 0,20,21
 130.5 345 130.5 345 130.599609375 269 c 1,22,23
 249.5 268 249.5 268 369.599609375 269 c 1,24,25
 369.5 532 369.5 532 369.5 532.200195312 c 0,26,27
 370.5 534 370.5 534 371.5 537.200195312 c 0,28,29
 371.5 541 371.5 541 371.5 548.200195312 c 0,30,31
 374.5 575 374.5 575 404.5 579.200195312 c 0,32,33
 440.5 583 440.5 583 445.5 556.200195312 c 0,34,35
 449.5 538 449.5 538 449.5 537.200195312 c 0,36,37
 449.5 239 449.5 239 448.599609375 207 c 0,38,39
 447.5 168 447.5 168 437.599609375 130 c 0,40,41
 425.5 85 425.5 85 393.599609375 55 c 0,42,43
 339.5 4 339.5 4 255.599609375 0 c 1,0,1
140.599609375 205 m 0,44,45
 136.599609375 205 136.599609375 205 131.599609375 205 c 1,46,47
 133.599609375 173 133.599609375 173 142.599609375 143 c 0,48,49
 150.599609375 117 150.599609375 117 169.599609375 96 c 0,50,51
 184.599609375 81 184.599609375 81 205.599609375 72 c 0,52,53
 296.599609375 45 296.599609375 45 344.599609375 116 c 0,54,55
 370.599609375 158 370.599609375 158 369.599609375 205 c 1,56,57
 254.599609375 205 254.599609375 205 140.599609375 205 c 0,44,45
EndSplineSet
Validated: 524321
EndChar

StartChar: v
Encoding: 118 118 56
Width: 500
GlyphClass: 1
Flags: W
LayerCount: 2
Fore
SplineSet
449.5 535 m 2,0,1
 449.5 535 449.5 535 449.5 534 c 256,2,3
 449.5 533 449.5 533 448.5 533 c 0,4,5
 411.5 393 411.5 393 300.5 0 c 1,6,7
 300.5 0 300.5 0 208.5 0 c 1,8,9
 100.5 360 100.5 360 51.5 526 c 0,10,11
 51.4716796875 528.236328125 51.4716796875 528.236328125 51.5 530 c 256,12,13
 50.5 532 50.5 532 50.5 534 c 0,14,15
 51.5 540 51.5 540 51.5 558 c 0,16,17
 51.5 578 51.5 578 89.5 578 c 0,18,19
 97.5 578 97.5 578 103.5 577.5 c 128,-1,20
 109.5 577 109.5 577 116.5 577 c 0,21,22
 120.5 577 120.5 577 123.5 577 c 0,23,24
 140.5 577 140.5 577 157.5 577 c 0,25,26
 169.5 577 169.5 577 171.5 577 c 0,27,28
 177.5 577 177.5 577 177.5 577 c 0,29,30
 279.5 577 279.5 577 279.5 577 c 0,31,32
 293.5 577 293.5 577 293.5 577 c 0,33,34
 296.5 577 296.5 577 300.5 577 c 0,35,36
 333.5 577 333.5 577 333.5 577 c 0,37,38
 340.5 577 340.5 577 347.5 577 c 128,-1,39
 354.5 577 354.5 577 354.5 577 c 0,40,41
 372.5 577 372.5 577 388.5 578 c 0,42,43
 401.5 579 401.5 579 401.5 579 c 0,44,45
 417.5 579 417.5 579 417.5 579 c 0,46,47
 429.5 574 429.5 574 434.5 570 c 128,-1,48
 439.5 566 439.5 566 442.5 561 c 0,49,50
 449.5 549 449.5 549 449.5 535 c 2,0,1
359.5 510 m 0,51,52
 333.5 509 333.5 509 307.5 510 c 0,53,54
 274.5 511 274.5 511 262.5 509 c 0,55,56
 256.5 508 256.5 508 250.5 509 c 0,57,58
 234.5 510 234.5 510 218.5 509 c 0,59,60
 215.5 509 215.5 509 212.5 509 c 0,61,62
 210.5 509 210.5 509 208.5 509 c 0,63,64
 196.5 508 196.5 508 183.5 509 c 0,65,66
 177.5 509 177.5 509 171.5 509 c 0,67,68
 160.5 510 160.5 510 157.5 509 c 128,-1,69
 154.5 508 154.5 508 150.5 508 c 0,70,71
 140.5 508 140.5 508 129.5 508 c 1,72,73
 205.5 250 205.5 250 244.5 107 c 0,74,75
 248.5 96 248.5 96 248.5 95 c 0,76,77
 250.5 86 250.5 86 252.5 81 c 0,78,79
 253.5 79 253.5 79 254.5 77 c 1,80,81
 257.5 83 257.5 83 260.5 91 c 0,82,83
 260.5 91 260.5 91 369.5 509 c 1,84,85
 364.5 510 364.5 510 359.5 510 c 0,51,52
EndSplineSet
Validated: 524321
EndChar

StartChar: w
Encoding: 119 119 57
Width: 500
GlyphClass: 1
Flags: W
LayerCount: 2
Fore
SplineSet
447.002929688 492.841796875 m 0,0,1
 445.854492188 488.625976562 445.854492188 488.625976562 446.002929688 483.966796875 c 0,2,3
 445.515625 482.24609375 445.515625 482.24609375 445.50390625 480.416992188 c 0,4,5
 444.458007812 476.78515625 444.458007812 476.78515625 444.504882812 472.725585938 c 0,6,7
 443.084960938 464.931640625 443.084960938 464.931640625 442.505859375 456.750976562 c 0,8,9
 441.372070312 451.93359375 441.372070312 451.93359375 441.506835938 446.693359375 c 0,10,11
 440.26953125 440.380859375 440.26953125 440.380859375 440.0078125 433.676757812 c 0,12,13
 438.462890625 428.625 438.462890625 428.625 438.508789062 423.02734375 c 0,14,15
 437.647460938 418.055664062 437.647460938 418.055664062 437.509765625 412.96875 c 0,16,17
 436.450195312 410.553710938 436.450195312 410.553710938 436.509765625 407.64453125 c 0,18,19
 436.127929688 402.564453125 436.127929688 402.564453125 435.510742188 397.5859375 c 0,20,21
 434.39453125 394.271484375 434.39453125 394.271484375 434.51171875 390.486328125 c 0,22,23
 432.622070312 377.81640625 432.622070312 377.81640625 431.513671875 365.045898438 c 0,24,25
 430.677734375 361.678710938 430.677734375 361.678710938 430.514648438 357.946289062 c 0,26,27
 429.405273438 349.423828125 429.405273438 349.423828125 428.515625 340.788085938 c 0,28,29
 427.471679688 334.747070312 427.471679688 334.747070312 427.016601562 328.36328125 c 0,30,31
 426.046875 325.020507812 426.046875 325.020507812 426.017578125 321.263671875 c 2,32,-1
 426.017578125 318.305664062 l 2,33,34
 425.067382812 316.171875 425.067382812 316.171875 425.018554688 313.572265625 c 2,35,-1
 425.018554688 312.389648438 l 2,36,37
 423.732421875 305.49609375 423.732421875 305.49609375 423.51953125 298.189453125 c 0,38,39
 422.459960938 295.776367188 422.459960938 295.776367188 422.520507812 292.865234375 c 2,40,-1
 422.520507812 288.723632812 l 2,41,42
 420.921875 283.983398438 420.921875 283.983398438 421.021484375 278.665039062 c 0,43,44
 416.977539062 247.352539062 416.977539062 247.352539062 413.526367188 215.951171875 c 0,45,46
 412.563476562 213.208984375 412.563476562 213.208984375 412.52734375 210.034179688 c 0,47,48
 412.061523438 205.897460938 412.061523438 205.897460938 411.05859375 196.991210938 c 128,-1,49
 410.055664062 188.083984375 410.055664062 188.083984375 409.529296875 183.41015625 c 0,50,51
 408.413085938 180.094726562 408.413085938 180.094726562 408.530273438 176.310546875 c 0,52,53
 406.625 163.663085938 406.625 163.663085938 405.532226562 150.870117188 c 0,54,55
 404.5625 147.525390625 404.5625 147.525390625 404.533203125 143.76953125 c 0,56,57
 403.112304688 134.061523438 403.112304688 134.061523438 402.534179688 124.24609375 c 0,58,59
 401.349609375 121.247070312 401.349609375 121.247070312 401.53515625 117.737304688 c 0,60,61
 395.307617188 69.943359375 395.307617188 69.943359375 390.04296875 21.890625 c 0,62,63
 388.21875 11.09765625 388.21875 11.09765625 387.045898438 0 c 1,64,-1
 334.583007812 0 l 1,65,66
 291.40625 105.5078125 291.40625 105.5078125 247.145507812 210.034179688 c 1,67,68
 244.904296875 206.509765625 244.904296875 206.509765625 243.3984375 202.342773438 c 0,69,70
 207.237304688 101.006835938 207.237304688 101.006835938 170.700195312 0 c 1,71,-1
 115.240234375 0 l 1,72,73
 114.046875 15.0244140625 114.046875 15.0244140625 111.743164062 29.58203125 c 0,74,75
 111.926757812 34.541015625 111.926757812 34.541015625 110.743164062 39.048828125 c 0,76,77
 109.737304688 49.4775390625 109.737304688 49.4775390625 108.245117188 59.755859375 c 0,78,79
 107.958984375 63.7412109375 107.958984375 63.7412109375 107.24609375 67.447265625 c 0,80,81
 101.09375 115.977539062 101.09375 115.977539062 96.75390625 150.278320312 c 0,82,83
 96.517578125 154.598632812 96.517578125 154.598632812 95.75390625 158.561523438 c 2,84,-1
 95.75390625 159.744140625 l 2,85,86
 95.6455078125 163.188476562 95.6455078125 163.188476562 94.7548828125 166.252929688 c 0,87,88
 93.99609375 175.633789062 93.99609375 175.633789062 92.2568359375 184.59375 c 0,89,90
 92.3837890625 191.0703125 92.3837890625 191.0703125 90.7578125 197.018554688 c 0,91,92
 81.7607421875 271.3046875 81.7607421875 271.3046875 72.2705078125 345.521484375 c 0,93,94
 72.2431640625 349.279296875 72.2431640625 349.279296875 71.271484375 352.62109375 c 0,95,96
 63.73046875 411.162109375 63.73046875 411.162109375 56.7822265625 469.767578125 c 0,97,98
 56.6728515625 473.216796875 56.6728515625 473.216796875 55.783203125 476.275390625 c 0,99,100
 54.611328125 488.734375 54.611328125 488.734375 52.78515625 501.125 c 0,101,102
 52.8447265625 504.034179688 52.8447265625 504.034179688 51.78515625 506.44921875 c 0,103,104
 51.3984375 509.751953125 51.3984375 509.751953125 50.5361328125 512.95703125 c 0,105,106
 47.1396484375 538.735351562 47.1396484375 538.735351562 65.2763671875 553.485351562 c 1,107,108
 90.0576171875 564.904296875 90.0576171875 564.904296875 103.499023438 537.806640625 c 0,109,110
 105.372070312 528.77734375 105.372070312 528.77734375 108.995117188 520.6484375 c 0,111,112
 116.733398438 461.967773438 116.733398438 461.967773438 124.233398438 404.094726562 c 0,113,114
 124.110351562 401.119140625 124.110351562 401.119140625 124.483398438 398.177734375 c 0,115,116
 124.76953125 397.685546875 124.76953125 397.685546875 125.233398438 397.5859375 c 2,117,-1
 126.232421875 388.711914062 l 2,118,119
 125.950195312 384.31640625 125.950195312 384.31640625 127.231445312 380.428710938 c 0,120,121
 127.922851562 377.224609375 127.922851562 377.224609375 128.23046875 373.920898438 c 0,122,123
 127.928710938 369.227539062 127.928710938 369.227539062 129.23046875 365.045898438 c 0,124,125
 142.317382812 271.134765625 142.317382812 271.134765625 153.962890625 176.90234375 c 0,126,127
 155.993164062 160.4453125 155.993164062 160.4453125 158.958984375 144.361328125 c 1,128,129
 189.083007812 221.619140625 189.083007812 221.619140625 219.166015625 298.78125 c 0,130,131
 219.627929688 298.87890625 219.627929688 298.87890625 219.915039062 299.373046875 c 0,132,133
 220.288085938 302.017578125 220.288085938 302.017578125 220.165039062 304.698242188 c 0,134,135
 220.305664062 320.73046875 220.305664062 320.73046875 230.657226562 331.026367188 c 0,136,137
 246.786132812 343.6796875 246.786132812 343.6796875 262.634765625 330.434570312 c 0,138,139
 272.247070312 319.389648438 272.247070312 319.389648438 273.876953125 303.514648438 c 1,140,141
 308.807617188 224.935546875 308.807617188 224.935546875 342.827148438 146.13671875 c 0,142,143
 344.551757812 143.96484375 344.551757812 143.96484375 344.826171875 147.3203125 c 0,144,145
 347.158203125 169.60546875 347.158203125 169.60546875 350.072265625 191.693359375 c 0,146,147
 351.124023438 194.71875 351.124023438 194.71875 351.071289062 198.201171875 c 0,148,149
 352.46875 209.123046875 352.46875 209.123046875 353.569335938 220.092773438 c 0,150,151
 354.032226562 220.19140625 354.032226562 220.19140625 354.319335938 220.68359375 c 0,152,153
 354.692382812 223.63671875 354.692382812 223.63671875 354.568359375 226.600585938 c 0,154,155
 363.029296875 294.736328125 363.029296875 294.736328125 371.556640625 362.087890625 c 0,156,157
 372.09765625 362.458984375 372.09765625 362.458984375 372.305664062 363.270507812 c 0,158,159
 372.6796875 366.220703125 372.6796875 366.220703125 372.555664062 369.1875 c 0,160,161
 373.567382812 381.681640625 373.567382812 381.681640625 375.553710938 394.036132812 c 0,162,163
 376.017578125 394.135742188 376.017578125 394.135742188 376.303710938 394.627929688 c 0,164,165
 376.676757812 397.581054688 376.676757812 397.581054688 376.552734375 400.544921875 c 0,166,167
 382.094726562 444.9140625 382.094726562 444.9140625 387.544921875 489.291992188 c 0,168,169
 388.731445312 492.287109375 388.731445312 492.287109375 388.544921875 495.799804688 c 0,170,171
 390.922851562 515.955078125 390.922851562 515.955078125 393.791015625 536.03125 c 0,172,173
 398.708007812 554.87109375 398.708007812 554.87109375 414.525390625 560.584960938 c 0,174,175
 436.258789062 564.505859375 436.258789062 564.505859375 446.252929688 541.356445312 c 0,176,177
 449.041015625 531.208984375 449.041015625 531.208984375 450 520.6484375 c 0,178,179
 448.362304688 506.771484375 448.362304688 506.771484375 447.002929688 492.841796875 c 0,0,1
EndSplineSet
Validated: 524321
EndChar

StartChar: x
Encoding: 120 120 58
Width: 500
GlyphClass: 1
Flags: W
LayerCount: 2
Fore
SplineSet
370.517578125 0 m 1,0,-1
 332.454101562 0 l 1,1,2
 298.204101562 16 298.204101562 16 305.409179688 45.5751953125 c 0,3,4
 308.204101562 58 308.204101562 58 324.107421875 71.076171875 c 0,5,6
 331.204101562 77 331.204101562 77 337.462890625 83.5546875 c 0,7,8
 341.204101562 88 341.204101562 88 342.8046875 90.06640625 c 0,9,10
 351.204101562 94 351.204101562 94 349.81640625 95.7626953125 c 0,11,12
 333.204101562 119 333.204101562 119 246.64453125 224.079101562 c 1,13,14
 237.204101562 211 237.204101562 211 227.947265625 198.579101562 c 0,15,16
 225.204101562 195 225.204101562 195 221.936523438 191.525390625 c 0,17,18
 215.204101562 182 215.204101562 182 212.587890625 177.961914062 c 0,19,20
 204.204101562 167 204.204101562 167 202.571289062 163.3125 c 0,21,22
 196.204101562 155 196.204101562 155 191.21875 147.03515625 c 0,23,24
 182.204101562 133 182.204101562 133 181.202148438 132.385742188 c 0,25,26
 180.204101562 130 180.204101562 130 171.185546875 117.736328125 c 0,27,28
 158.94921875 102.430664062 158.94921875 102.430664062 158.83203125 99.0185546875 c 0,29,30
 159.204101562 98 159.204101562 98 165.17578125 93.8642578125 c 0,31,32
 169.204101562 90 169.204101562 90 171.853515625 85.7255859375 c 0,33,34
 182.204101562 75 182.204101562 75 185.876953125 71.619140625 c 0,35,36
 202.204101562 58 202.204101562 58 204.57421875 44.490234375 c 0,37,38
 208.204101562 17 208.204101562 17 182.204101562 0 c 1,39,-1
 132.788085938 0 l 1,40,41
 129.204101562 2 129.204101562 2 117.095703125 14.6494140625 c 0,42,43
 110.204101562 21 110.204101562 21 104.408203125 27.1279296875 c 0,44,45
 98.2041015625 34 98.2041015625 34 91.0517578125 40.6923828125 c 0,46,47
 79.2041015625 53 79.2041015625 53 78.3642578125 53.171875 c 0,48,49
 59.9111328125 65.8291015625 59.9111328125 65.8291015625 57.6630859375 85.7255859375 c 0,50,51
 55.69921875 91.8740234375 55.69921875 91.8740234375 55.994140625 97.390625 c 0,52,53
 56.0751953125 101.865234375 56.0751953125 101.865234375 58.9990234375 113.396484375 c 0,54,55
 61.2041015625 121 61.2041015625 121 63.6728515625 130.215820312 c 0,56,57
 68.2041015625 142 68.2041015625 142 69.015625 143.237304688 c 0,58,59
 121.204101562 206 121.204101562 206 132.454101562 221.366210938 c 0,60,61
 142.204101562 234 142.204101562 234 143.138671875 236.55859375 c 0,62,63
 144.204101562 238 144.204101562 238 153.155273438 251.208007812 c 0,64,65
 158.204101562 258 158.204101562 258 163.171875 265.857421875 c 0,66,67
 176.204101562 286 176.204101562 286 177.1953125 287.559570312 c 0,68,69
 181.204101562 293 181.204101562 293 187.545898438 297.0546875 c 1,70,71
 145.204101562 350 145.204101562 350 103.072265625 402.041015625 c 1,72,73
 99.4072265625 410.022460938 99.4072265625 410.022460938 85.7099609375 430.25390625 c 0,74,75
 84.2041015625 433 84.2041015625 433 83.0390625 436.22265625 c 0,76,77
 78.2041015625 443 78.2041015625 443 73.0224609375 449.244140625 c 0,78,79
 68.2041015625 456 68.2041015625 456 63.005859375 462.265625 c 0,80,81
 50.2041015625 477 50.2041015625 477 49.9833984375 488.580078125 c 0,82,83
 50.2041015625 499 50.2041015625 499 49.9833984375 500.788085938 c 0,84,85
 51.2041015625 518 51.2041015625 518 70.3505859375 532.798828125 c 0,86,87
 77.2041015625 538 77.2041015625 538 83.70703125 544.735351562 c 0,88,89
 92.2041015625 552 92.2041015625 552 99.7333984375 559.927734375 c 0,90,91
 105.19921875 562.78515625 105.19921875 562.78515625 109.08203125 566.98046875 c 0,92,93
 121.584960938 580.493164062 121.584960938 580.493164062 132.120117188 582.986328125 c 0,94,95
 170.204101562 592 170.204101562 592 191.21875 565.895507812 c 1,96,97
 210.122070312 529.9375 210.122070312 529.9375 177.1953125 515.436523438 c 0,98,99
 176.204101562 515 176.204101562 515 174.858398438 512.723632812 c 0,100,101
 173.204101562 511 173.204101562 511 172.521484375 510.01171875 c 0,102,103
 163.725585938 498.51171875 163.725585938 498.51171875 150.818359375 491.834960938 c 0,104,105
 149.204101562 491 149.204101562 491 152.48828125 488.8515625 c 0,106,107
 158.204101562 482 158.204101562 482 162.504882812 475.830078125 c 0,108,109
 168.204101562 469 168.204101562 469 173.189453125 462.265625 c 0,110,111
 179.204101562 455 179.204101562 455 183.206054688 449.244140625 c 0,112,113
 189.204101562 442 189.204101562 442 193.22265625 436.22265625 c 0,114,115
 199.204101562 429 199.204101562 429 203.239257812 423.201171875 c 0,116,117
 209.204101562 415 209.204101562 415 214.704101562 408.5 c 128,-1,118
 220.204101562 402 220.204101562 402 224.608398438 395.530273438 c 0,119,120
 234.204101562 384 234.204101562 384 234.625 382.508789062 c 0,121,122
 241.204101562 374 241.204101562 374 246.978515625 364.603515625 c 1,123,124
 274.204101562 397 274.204101562 397 275.359375 399.328125 c 0,125,126
 280.204101562 405 280.204101562 405 284.708007812 411.264648438 c 0,127,128
 293.204101562 423 293.204101562 423 294.724609375 424.286132812 c 0,129,130
 299.204101562 430 299.204101562 430 304.741210938 437.307617188 c 0,131,132
 314.204101562 450 314.204101562 450 314.7578125 450.872070312 c 0,133,134
 320.204101562 458 320.204101562 458 324.775390625 463.893554688 c 0,135,136
 335.204101562 477 335.204101562 477 334.791992188 476.915039062 c 0,137,138
 346.143554688 491.775390625 346.143554688 491.775390625 346.143554688 492.106445312 c 0,139,140
 346.204101562 493 346.204101562 493 346.143554688 494.27734375 c 0,141,142
 346.204101562 497 346.204101562 497 325.442382812 511.638671875 c 0,143,144
 318.204101562 517 318.204101562 517 318.204101562 517 c 0,145,146
 295.204101562 534 295.204101562 534 302.73828125 558.841796875 c 0,147,148
 310.204101562 582 310.204101562 582 339.799804688 586.784179688 c 0,149,150
 367.204101562 591 367.204101562 591 388.213867188 568.608398438 c 0,151,152
 394.204101562 562 394.204101562 562 400.234375 557.756835938 c 0,153,154
 400.204101562 558 400.204101562 558 413.58984375 545.8203125 c 0,155,156
 426.204101562 535 426.204101562 535 426.27734375 534.426757812 c 0,157,158
 447.204101562 521 447.204101562 521 446.64453125 502.415039062 c 128,-1,159
 446.204101562 484 446.204101562 484 445.643554688 483.42578125 c 0,160,161
 444.204101562 476 444.204101562 476 433.623046875 463.893554688 c 0,162,163
 428.204101562 458 428.204101562 458 423.606445312 450.872070312 c 0,164,165
 418.681640625 445.309570312 418.681640625 445.309570312 413.58984375 437.850585938 c 0,166,167
 400.204101562 418 400.204101562 418 398.23046875 416.147460938 c 0,168,169
 394.204101562 414 394.204101562 414 392.888671875 410.721679688 c 0,170,171
 393.713867188 408.719726562 393.713867188 408.719726562 383.540039062 398.243164062 c 0,172,173
 376.489257812 387.439453125 376.489257812 387.439453125 372.1875 383.59375 c 0,174,175
 367.204101562 379 367.204101562 379 364.173828125 372.7421875 c 0,176,177
 362.204101562 369 362.204101562 369 359.5 364.603515625 c 0,178,179
 356.204101562 358 356.204101562 358 351.486328125 351.58203125 c 0,180,181
 330.204101562 322 330.204101562 322 306.411132812 294.883789062 c 1,182,183
 316.204101562 285 316.204101562 285 325.776367188 275.081054688 c 1,184,185
 336.204101562 269 336.204101562 269 345.4765625 253.920898438 c 0,186,187
 350.204101562 246 350.204101562 246 356.16015625 239.271484375 c 0,188,189
 360.204101562 233 360.204101562 233 365.509765625 226.25 c 0,190,191
 375.204101562 213 375.204101562 213 376.194335938 211.600585938 c 0,192,193
 381.204101562 207 381.204101562 207 382.204101562 205.08984375 c 0,194,195
 385.204101562 199 385.204101562 199 390.217773438 193.696289062 c 0,196,197
 400.204101562 181 400.204101562 181 401.569335938 177.961914062 c 0,198,199
 406.204101562 172 406.204101562 172 410.918945312 164.939453125 c 0,200,201
 423.204101562 145 423.204101562 145 426.27734375 142.15234375 c 0,202,203
 432.204101562 134 432.204101562 134 436.961914062 127.502929688 c 0,204,205
 448.204101562 112 448.204101562 112 448.982421875 106.342773438 c 0,206,207
 450.204101562 96 450.204101562 96 449.983398438 86.267578125 c 0,208,209
 449.204101562 69 449.204101562 69 429.616210938 52.62890625 c 0,210,211
 418.204101562 43 418.204101562 43 416.928710938 40.6923828125 c 0,212,213
 415.204101562 38 415.204101562 38 412.25390625 34.724609375 c 0,214,215
 392.204101562 17 392.204101562 17 391.552734375 16.27734375 c 0,216,217
 381.204101562 4 381.204101562 4 370.517578125 0 c 1,0,-1
EndSplineSet
Validated: 524321
EndChar

StartChar: y
Encoding: 121 121 59
Width: 500
GlyphClass: 1
Flags: W
LayerCount: 2
Fore
SplineSet
406.916992188 579 m 0,0,1
 431.916992188 581 431.916992188 581 443.916992188 562 c 0,2,3
 448.916992188 554 448.916992188 554 449.916992188 545 c 0,4,5
 450.916992188 537 450.916992188 537 449.916992188 530 c 0,6,7
 447.916992188 522 447.916992188 522 447.916992188 522 c 0,8,9
 366.916992188 384 366.916992188 384 286.916992188 246 c 1,10,11
 286.916992188 234 286.916992188 234 284.916992188 0 c 1,12,13
 284.916992188 0 284.916992188 0 207.916992188 0 c 1,14,15
 208.916992188 122 208.916992188 122 208.916992188 245 c 1,16,17
 78.9169921875 469 78.9169921875 469 50.9169921875 524 c 0,18,19
 48.9169921875 528 48.9169921875 528 49.9169921875 533 c 0,20,21
 49.9169921875 541 49.9169921875 541 52.9169921875 549 c 0,22,23
 60.9169921875 579 60.9169921875 579 86.9169921875 579.200195312 c 0,24,25
 99.9169921875 579 99.9169921875 579 115.916992188 557 c 0,26,27
 120.916992188 550 120.916992188 550 124.916992188 542 c 0,28,29
 126.916992188 538 126.916992188 538 129.916992188 535 c 0,30,31
 188.916992188 428 188.916992188 428 249.916992188 322 c 1,32,33
 270.916992188 370 270.916992188 370 381.916992188 555 c 0,34,35
 390.916992188 570 390.916992188 570 391.916992188 570 c 0,36,37
 391.916992188 570 391.916992188 570 397.916992188 576 c 0,38,39
 400.916992188 579 400.916992188 579 406.916992188 579 c 0,0,1
EndSplineSet
Validated: 524321
EndChar

StartChar: z
Encoding: 122 122 60
Width: 500
GlyphClass: 1
Flags: W
LayerCount: 2
Fore
SplineSet
446.75 0 m 1,0,1
 446.75 0 446.75 0 73.6669921875 0 c 1,2,3
 73.75 28 73.75 28 73.6669921875 60 c 0,4,5
 73.6669921875 64.1435546875 73.6669921875 64.1435546875 74.6669921875 69 c 0,6,7
 74.75 70 74.75 70 75.6669921875 71 c 0,8,9
 213.75 290 213.75 290 352.75 509.200195312 c 1,10,11
 352.75 509.200195312 352.75 509.200195312 351.75 509.200195312 c 2,12,-1
 350.75 509.200195312 l 1,13,-1
 349.75 509.200195312 l 1,14,-1
 348.75 509.200195312 l 1,15,-1
 347.75 509.200195312 l 1,16,-1
 346.75 509.200195312 l 1,17,-1
 345.75 509.200195312 l 1,18,-1
 344.75 509.200195312 l 1,19,-1
 343.75 509.200195312 l 1,20,-1
 342.75 509.200195312 l 1,21,-1
 341.75 509.200195312 l 1,22,-1
 340.75 509.200195312 l 1,23,-1
 339.75 509.200195312 l 1,24,-1
 338.75 509.200195312 l 1,25,-1
 337.75 509.200195312 l 1,26,-1
 336.75 509.200195312 l 1,27,-1
 335.75 509.200195312 l 1,28,-1
 334.75 509.200195312 l 1,29,-1
 333.75 509.200195312 l 1,30,-1
 332.75 509.200195312 l 1,31,-1
 331.75 509.200195312 l 1,32,-1
 330.75 509.200195312 l 1,33,-1
 329.75 509.200195312 l 1,34,-1
 328.75 509.200195312 l 1,35,-1
 327.75 509.200195312 l 1,36,-1
 326.75 509.200195312 l 1,37,-1
 325.75 509.200195312 l 1,38,-1
 324.75 509.200195312 l 1,39,-1
 323.75 509.200195312 l 1,40,-1
 322.75 509.200195312 l 1,41,-1
 321.75 509.200195312 l 1,42,-1
 320.75 509.200195312 l 1,43,-1
 319.75 509.200195312 l 1,44,-1
 318.75 509.200195312 l 1,45,-1
 317.75 509.200195312 l 1,46,-1
 316.75 509.200195312 l 1,47,-1
 315.75 509.200195312 l 1,48,-1
 314.75 509.200195312 l 1,49,-1
 313.75 509.200195312 l 1,50,-1
 312.75 509.200195312 l 1,51,-1
 311.75 509.200195312 l 1,52,-1
 310.75 509.200195312 l 1,53,-1
 309.75 509.200195312 l 1,54,-1
 308.75 509.200195312 l 1,55,-1
 307.75 509.200195312 l 1,56,-1
 306.75 509.200195312 l 1,57,-1
 305.75 509.200195312 l 1,58,-1
 304.75 509.200195312 l 1,59,-1
 303.75 509.200195312 l 1,60,-1
 302.75 509.200195312 l 1,61,-1
 301.75 509.200195312 l 1,62,-1
 300.75 509.200195312 l 1,63,-1
 299.75 509.200195312 l 1,64,-1
 298.75 509.200195312 l 1,65,-1
 297.75 509.200195312 l 1,66,-1
 296.75 509.200195312 l 1,67,-1
 295.75 509.200195312 l 1,68,-1
 294.75 509.200195312 l 1,69,-1
 293.75 509.200195312 l 1,70,-1
 292.75 509.200195312 l 1,71,-1
 291.75 509.200195312 l 1,72,-1
 290.75 509.200195312 l 1,73,-1
 289.75 509.200195312 l 1,74,-1
 288.75 509.200195312 l 1,75,-1
 287.75 509.200195312 l 1,76,-1
 286.75 509.200195312 l 1,77,-1
 285.75 509.200195312 l 1,78,-1
 284.75 509.200195312 l 1,79,-1
 283.75 509.200195312 l 1,80,-1
 282.75 509.200195312 l 1,81,-1
 281.75 509.200195312 l 1,82,-1
 280.75 509.200195312 l 1,83,-1
 279.75 509.200195312 l 1,84,-1
 278.75 509.200195312 l 1,85,-1
 277.75 509.200195312 l 1,86,-1
 276.75 509.200195312 l 1,87,-1
 275.75 509.200195312 l 1,88,-1
 274.75 509.200195312 l 1,89,-1
 273.75 509.200195312 l 1,90,-1
 272.75 509.200195312 l 1,91,-1
 271.75 509.200195312 l 1,92,-1
 270.75 509.200195312 l 1,93,-1
 269.75 509.200195312 l 1,94,-1
 268.75 509.200195312 l 1,95,-1
 267.75 509.200195312 l 1,96,-1
 266.75 509.200195312 l 1,97,-1
 265.75 509.200195312 l 1,98,-1
 264.75 509.200195312 l 1,99,-1
 263.75 509.200195312 l 1,100,-1
 262.75 509.200195312 l 1,101,-1
 261.75 509.200195312 l 1,102,-1
 260.75 509.200195312 l 1,103,-1
 259.75 509.200195312 l 1,104,-1
 258.75 509.200195312 l 1,105,-1
 257.75 509.200195312 l 1,106,-1
 256.75 509.200195312 l 1,107,-1
 255.75 509.200195312 l 1,108,-1
 254.75 509.200195312 l 1,109,-1
 253.75 509.200195312 l 1,110,-1
 252.75 509.200195312 l 1,111,-1
 251.75 509.200195312 l 1,112,-1
 250.75 509.200195312 l 1,113,-1
 249.75 509.200195312 l 1,114,-1
 248.75 509.200195312 l 1,115,-1
 247.75 509.200195312 l 1,116,-1
 246.75 509.200195312 l 1,117,-1
 245.75 509.200195312 l 1,118,-1
 244.75 509.200195312 l 1,119,-1
 243.75 509.200195312 l 1,120,-1
 242.75 509.200195312 l 1,121,-1
 241.75 509.200195312 l 1,122,-1
 240.75 509.200195312 l 1,123,-1
 239.75 509.200195312 l 1,124,-1
 238.75 509.200195312 l 1,125,-1
 237.75 509.200195312 l 1,126,-1
 236.75 509.200195312 l 1,127,-1
 235.75 509.200195312 l 1,128,-1
 234.75 509.200195312 l 1,129,-1
 233.75 509.200195312 l 1,130,-1
 232.75 509.200195312 l 1,131,-1
 231.75 509.200195312 l 1,132,-1
 230.75 509.200195312 l 1,133,-1
 228.75 509.200195312 l 1,134,-1
 227.75 509.200195312 l 1,135,-1
 226.75 509.200195312 l 1,136,-1
 225.75 509.200195312 l 1,137,-1
 224.75 509.200195312 l 1,138,-1
 223.75 509.200195312 l 1,139,-1
 222.75 509.200195312 l 1,140,-1
 221.75 509.200195312 l 1,141,-1
 220.75 509.200195312 l 1,142,-1
 219.75 509.200195312 l 1,143,-1
 218.75 509.200195312 l 1,144,-1
 217.75 509.200195312 l 1,145,-1
 216.75 509.200195312 l 1,146,-1
 215.75 509.200195312 l 1,147,-1
 214.75 509.200195312 l 1,148,-1
 213.75 509.200195312 l 1,149,-1
 212.75 509.200195312 l 1,150,-1
 211.75 509.200195312 l 1,151,-1
 210.75 509.200195312 l 1,152,-1
 209.75 509.200195312 l 1,153,-1
 208.75 509.200195312 l 1,154,-1
 207.75 509.200195312 l 1,155,-1
 206.75 509.200195312 l 1,156,-1
 205.75 509.200195312 l 1,157,-1
 204.75 509.200195312 l 1,158,-1
 203.75 509.200195312 l 1,159,-1
 202.75 509.200195312 l 1,160,-1
 201.75 509.200195312 l 1,161,-1
 200.75 509.200195312 l 1,162,-1
 199.75 509.200195312 l 1,163,-1
 198.75 509.200195312 l 1,164,-1
 197.75 509.200195312 l 1,165,-1
 196.75 509.200195312 l 1,166,-1
 195.75 509.200195312 l 1,167,-1
 194.75 509.200195312 l 1,168,-1
 193.75 509.200195312 l 1,169,-1
 192.75 509.200195312 l 1,170,-1
 191.75 509.200195312 l 1,171,-1
 190.75 509.200195312 l 1,172,-1
 189.75 509.200195312 l 1,173,-1
 188.75 509.200195312 l 1,174,-1
 187.75 509.200195312 l 1,175,-1
 186.75 509.200195312 l 1,176,-1
 185.75 509.200195312 l 1,177,-1
 184.75 509.200195312 l 1,178,-1
 183.75 509.200195312 l 1,179,-1
 182.75 509.200195312 l 1,180,-1
 181.75 509.200195312 l 1,181,-1
 180.75 509.200195312 l 1,182,-1
 179.75 509.200195312 l 1,183,-1
 178.75 509.200195312 l 1,184,-1
 177.75 509.200195312 l 1,185,-1
 176.75 509.200195312 l 1,186,-1
 175.75 509.200195312 l 1,187,-1
 174.75 509.200195312 l 1,188,-1
 173.75 509.200195312 l 1,189,-1
 172.75 509.200195312 l 1,190,-1
 171.75 509.200195312 l 1,191,-1
 170.75 509.200195312 l 1,192,-1
 169.75 509.200195312 l 1,193,-1
 168.75 509.200195312 l 1,194,-1
 167.75 509.200195312 l 1,195,-1
 166.75 509.200195312 l 1,196,-1
 165.75 509.200195312 l 1,197,-1
 164.75 509.200195312 l 1,198,-1
 163.75 509.200195312 l 1,199,-1
 162.75 509.200195312 l 1,200,-1
 161.75 509.200195312 l 1,201,-1
 160.75 509.200195312 l 1,202,-1
 159.75 509.200195312 l 1,203,-1
 158.75 509.200195312 l 1,204,-1
 157.75 509.200195312 l 1,205,-1
 156.75 509.200195312 l 1,206,-1
 155.75 509.200195312 l 1,207,-1
 154.75 509.200195312 l 1,208,-1
 153.75 509.200195312 l 1,209,-1
 152.75 509.200195312 l 1,210,-1
 151.75 509.200195312 l 1,211,-1
 150.75 509.200195312 l 1,212,-1
 149.75 509.200195312 l 1,213,-1
 148.75 509.200195312 l 1,214,-1
 147.75 509.200195312 l 1,215,-1
 146.75 509.200195312 l 1,216,-1
 145.75 509.200195312 l 1,217,-1
 144.75 509.200195312 l 1,218,-1
 143.75 509.200195312 l 1,219,-1
 142.75 509.200195312 l 1,220,-1
 141.75 509.200195312 l 1,221,-1
 140.75 509.200195312 l 1,222,-1
 139.75 509.200195312 l 1,223,-1
 138.75 509.200195312 l 1,224,-1
 137.75 509.200195312 l 1,225,-1
 136.75 509.200195312 l 1,226,-1
 135.75 509.200195312 l 1,227,-1
 134.75 509.200195312 l 1,228,-1
 133.75 509.200195312 l 1,229,-1
 132.75 509.200195312 l 1,230,-1
 131.75 509.200195312 l 1,231,-1
 130.75 509.200195312 l 1,232,-1
 129.75 509.200195312 l 1,233,-1
 128.75 509.200195312 l 1,234,-1
 127.75 509.200195312 l 1,235,-1
 126.75 509.200195312 l 1,236,-1
 125.75 509.200195312 l 1,237,-1
 124.75 509.200195312 l 1,238,-1
 123.75 509.200195312 l 1,239,-1
 122.75 509.200195312 l 1,240,-1
 121.75 509.200195312 l 1,241,-1
 120.75 509.200195312 l 1,242,-1
 119.75 509.200195312 l 1,243,-1
 118.75 509.200195312 l 1,244,-1
 117.75 509.200195312 l 1,245,-1
 116.75 509.200195312 l 1,246,-1
 115.75 509.200195312 l 1,247,-1
 114.75 509.200195312 l 1,248,-1
 113.75 509.200195312 l 1,249,-1
 112.75 509.200195312 l 1,250,-1
 111.75 509.200195312 l 1,251,-1
 110.75 509.200195312 l 1,252,-1
 109.75 509.200195312 l 1,253,-1
 108.75 509.200195312 l 1,254,-1
 107.75 509.200195312 l 1,255,-1
 106.75 509.200195312 l 1,256,-1
 105.75 509.200195312 l 2,257,258
 102.75 510 102.75 510 88.75 510.200195312 c 0,259,260
 82.75 510 82.75 510 77.75 512.200195312 c 0,261,262
 51.75 520 51.75 520 49.75 545.200195312 c 1,263,264
 52.75 574 52.75 574 84.75 579.200195312 c 1,265,266
 124.75 579 124.75 579 430.75 579.200195312 c 0,267,268
 434.75 579 434.75 579 438.75 576.200195312 c 0,269,270
 448.75 571 448.75 571 449.75 563.200195312 c 0,271,272
 450.75 540 450.75 540 449.75 518.200195312 c 0,273,274
 449.75 508 449.75 508 445.75 503.200195312 c 0,275,276
 306.75 286 306.75 286 168.666992188 69 c 1,277,278
 168.75 69 168.75 69 438.666992188 69 c 0,279,280
 446.75 69 446.75 69 446.75 65 c 0,281,282
 446.75 32 446.75 32 446.75 0 c 1,0,1
EndSplineSet
Validated: 524321
EndChar
